Literata-M5Italic.ufo
<glyph name="parenright" format="2">
	<unicode hex="0029"/>
	<advance width="282"/>
	<outline>
		<contour>
			<point x="226" y="323" type="curve"/>
			<point x="226" y="511"/>
			<point x="144" y="663"/>
			<point x="71" y="792" type="curve"/>
			<point x="62" y="784" type="line"/>
			<point x="156" y="607"/>
			<point x="178" y="495"/>
			<point x="178" y="308" type="curve" smooth="yes"/>
			<point x="178" y="98"/>
			<point x="130" y="-34"/>
			<point x="28" y="-193" type="curve"/>
			<point x="37" y="-199" type="line"/>
			<point x="164" y="-30"/>
			<point x="226" y="142"/>
		</contour>
	</outline>
</glyph>
<glyph name="two" format="2">
	<unicode hex="0032"/>
	<advance width="493"/>
	<outline>
		<contour>
			<point x="61" y="611" type="curve" smooth="yes"/>
			<point x="61" y="582"/>
			<point x="78" y="565"/>
			<point x="105" y="565" type="curve" smooth="yes"/>
			<point x="125" y="565"/>
			<point x="147" y="578"/>
			<point x="151" y="596" type="curve"/>
			<point x="137" y="615" type="line" smooth="yes"/>
			<point x="98" y="668"/>
			<point x="143" y="728"/>
			<point x="244" y="728" type="curve" smooth="yes"/>
			<point x="344" y="728"/>
			<point x="382" y="657"/>
			<point x="382" y="558" type="curve" smooth="yes"/>
			<point x="382" y="421"/>
			<point x="343" y="350"/>
			<point x="46" y="23" type="curve"/>
			<point x="50" y="0" type="line"/>
			<point x="449" y="0" type="line"/>
			<point x="474" y="163" type="line"/>
			<point x="461" y="163" type="line"/>
			<point x="428" y="57"/>
			<point x="412" y="42"/>
			<point x="338" y="42" type="curve" smooth="yes"/>
			<point x="88" y="42" type="line"/>
			<point x="88" y="43" type="line"/>
			<point x="359" y="317"/>
			<point x="434" y="428"/>
			<point x="434" y="563" type="curve" smooth="yes"/>
			<point x="434" y="668"/>
			<point x="369" y="744"/>
			<point x="248" y="744" type="curve" smooth="yes"/>
			<point x="146" y="744"/>
			<point x="61" y="680"/>
		</contour>
	</outline>
</glyph>
<glyph name="four" format="2">
	<unicode hex="0034"/>
	<advance width="535"/>
	<outline>
		<contour>
			<point x="419" y="224" type="line"/>
			<point x="443" y="734" type="line"/>
			<point x="430" y="743" type="line"/>
			<point x="394" y="733" type="line"/>
			<point x="34" y="213" type="line"/>
			<point x="40" y="186" type="line"/>
			<point x="370" y="186" type="line"/>
			<point x="361" y="23" type="line"/>
			<point x="246" y="10" type="line"/>
			<point x="245" y="0" type="line"/>
			<point x="497" y="0" type="line"/>
			<point x="498" y="10" type="line"/>
			<point x="408" y="23" type="line"/>
			<point x="416" y="186" type="line"/>
			<point x="510" y="186" type="line"/>
			<point x="513" y="224" type="line"/>
		</contour>
		<contour>
			<point x="372" y="224" type="line"/>
			<point x="65" y="224" type="line"/>
			<point x="394" y="699" type="line"/>
		</contour>
	</outline>
</glyph>
<glyph name="greater" format="2">
	<unicode hex="003E"/>
	<advance width="574"/>
	<outline>
		<contour>
			<point x="115" y="45" type="line"/>
			<point x="506" y="276" type="line"/>
			<point x="506" y="292" type="line"/>
			<point x="131" y="521" type="line"/>
			<point x="122" y="508" type="line"/>
			<point x="489" y="284" type="line"/>
			<point x="106" y="58" type="line"/>
		</contour>
	</outline>
</glyph>
<glyph name="question" format="2">
	<unicode hex="003F"/>
	<advance width="482"/>
	<outline>
		<contour>
			<point x="190" y="392" type="curve"/>
			<point x="231" y="185" type="line"/>
			<point x="247" y="185" type="line"/>
			<point x="213" y="359" type="line"/>
			<point x="369" y="396"/>
			<point x="430" y="462"/>
			<point x="430" y="578" type="curve" smooth="yes"/>
			<point x="430" y="690"/>
			<point x="355" y="745"/>
			<point x="256" y="745" type="curve" smooth="yes"/>
			<point x="155" y="745"/>
			<point x="63" y="685"/>
			<point x="63" y="615" type="curve" smooth="yes"/>
			<point x="63" y="584"/>
			<point x="77" y="568"/>
			<point x="107" y="568" type="curve" smooth="yes"/>
			<point x="128" y="568"/>
			<point x="148" y="582"/>
			<point x="154" y="600" type="curve"/>
			<point x="139" y="620" type="line" smooth="yes"/>
			<point x="109" y="662"/>
			<point x="139" y="726"/>
			<point x="241" y="726" type="curve" smooth="yes"/>
			<point x="342" y="726"/>
			<point x="391" y="671"/>
			<point x="391" y="579" type="curve" smooth="yes"/>
			<point x="391" y="472"/>
			<point x="320" y="417"/>
		</contour>
		<contour>
			<point x="186" y="38" type="curve" smooth="yes"/>
			<point x="186" y="7"/>
			<point x="207" y="-11"/>
			<point x="233" y="-11" type="curve" smooth="yes"/>
			<point x="262" y="-11"/>
			<point x="282" y="12"/>
			<point x="282" y="41" type="curve" smooth="yes"/>
			<point x="282" y="72"/>
			<point x="264" y="92"/>
			<point x="235" y="92" type="curve" smooth="yes"/>
			<point x="207" y="92"/>
			<point x="186" y="69"/>
		</contour>
	</outline>
</glyph>
<glyph name="at" format="2">
	<unicode hex="0040"/>
	<advance width="795"/>
	<outline>
		<contour>
			<point x="410" y="-169" type="curve" smooth="yes"/>
			<point x="496" y="-169"/>
			<point x="578" y="-146"/>
			<point x="635" y="-91" type="curve"/>
			<point x="625" y="-80" type="line"/>
			<point x="572" y="-130"/>
			<point x="507" y="-154"/>
			<point x="409" y="-154" type="curve" smooth="yes"/>
			<point x="219" y="-154"/>
			<point x="77" y="-44"/>
			<point x="77" y="200" type="curve" smooth="yes"/>
			<point x="77" y="391"/>
			<point x="203" y="540"/>
			<point x="421" y="540" type="curve" smooth="yes"/>
			<point x="619" y="540"/>
			<point x="734" y="451"/>
			<point x="734" y="235" type="curve" smooth="yes"/>
			<point x="734" y="92"/>
			<point x="670" y="10"/>
			<point x="585" y="10" type="curve" smooth="yes"/>
			<point x="552" y="10"/>
			<point x="540" y="22"/>
			<point x="542" y="80" type="curve" smooth="yes"/>
			<point x="550" y="381" type="line"/>
			<point x="544" y="385" type="line"/>
			<point x="516" y="364" type="line"/>
			<point x="493" y="374"/>
			<point x="459" y="383"/>
			<point x="427" y="383" type="curve" smooth="yes"/>
			<point x="313" y="383"/>
			<point x="236" y="288"/>
			<point x="236" y="153" type="curve" smooth="yes"/>
			<point x="236" y="68"/>
			<point x="269" y="-7"/>
			<point x="344" y="-7" type="curve" smooth="yes"/>
			<point x="406" y="-7"/>
			<point x="436" y="29"/>
			<point x="468" y="136" type="curve" smooth="yes"/>
			<point x="507" y="266" type="line"/>
			<point x="511" y="266" type="line"/>
			<point x="494" y="88" type="line" smooth="yes"/>
			<point x="488" y="29"/>
			<point x="504" y="-7"/>
			<point x="573" y="-7" type="curve" smooth="yes"/>
			<point x="666" y="-7"/>
			<point x="753" y="71"/>
			<point x="753" y="234" type="curve" smooth="yes"/>
			<point x="753" y="444"/>
			<point x="640" y="555"/>
			<point x="424" y="555" type="curve" smooth="yes"/>
			<point x="195" y="555"/>
			<point x="58" y="399"/>
			<point x="58" y="187" type="curve" smooth="yes"/>
			<point x="58" y="-46"/>
			<point x="204" y="-169"/>
		</contour>
		<contour>
			<point x="353" y="16" type="curve" smooth="yes"/>
			<point x="305" y="16"/>
			<point x="277" y="59"/>
			<point x="277" y="159" type="curve" smooth="yes"/>
			<point x="277" y="317"/>
			<point x="341" y="371"/>
			<point x="426" y="371" type="curve" smooth="yes"/>
			<point x="458" y="371"/>
			<point x="486" y="365"/>
			<point x="517" y="349" type="curve"/>
			<point x="487" y="240" type="line" smooth="yes"/>
			<point x="437" y="60"/>
			<point x="409" y="16"/>
		</contour>
	</outline>
</glyph>
<glyph name="A" format="2">
	<unicode hex="0041"/>
	<advance width="644"/>
	<outline>
		<contour>
			<point x="369" y="731" type="line"/>
			<point x="333" y="728" type="line"/>
			<point x="85" y="21" type="line"/>
			<point x="12" y="10" type="line"/>
			<point x="11" y="0" type="line"/>
			<point x="189" y="0" type="line"/>
			<point x="190" y="10" type="line"/>
			<point x="104" y="21" type="line"/>
			<point x="191" y="266" type="line"/>
			<point x="443" y="266" type="line"/>
			<point x="505" y="21" type="line"/>
			<point x="420" y="10" type="line"/>
			<point x="419" y="0" type="line"/>
			<point x="633" y="0" type="line"/>
			<point x="634" y="10" type="line"/>
			<point x="554" y="21" type="line"/>
		</contour>
		<contour>
			<point x="196" y="282" type="line"/>
			<point x="335" y="684" type="line"/>
			<point x="337" y="684" type="line"/>
			<point x="438" y="282" type="line"/>
		</contour>
	</outline>
	<anchor name="bottom" x="301" y="-30"/>
	<anchor name="top" x="350" y="730"/>
</glyph>
<glyph name="B" format="2">
	<unicode hex="0042"/>
	<advance width="565"/>
	<outline>
		<contour>
			<point x="502" y="566" type="curve" smooth="yes"/>
			<point x="502" y="681"/>
			<point x="436" y="730"/>
			<point x="273" y="730" type="curve" smooth="yes"/>
			<point x="80" y="730" type="line"/>
			<point x="79" y="720" type="line"/>
			<point x="164" y="709" type="line"/>
			<point x="137" y="21" type="line"/>
			<point x="52" y="10" type="line"/>
			<point x="51" y="0" type="line"/>
			<point x="263" y="0" type="line" smooth="yes"/>
			<point x="430" y="0"/>
			<point x="530" y="73"/>
			<point x="530" y="214" type="curve" smooth="yes"/>
			<point x="530" y="317"/>
			<point x="460" y="380"/>
			<point x="345" y="387" type="curve"/>
			<point x="345" y="389" type="line"/>
			<point x="436" y="416"/>
			<point x="502" y="482"/>
		</contour>
		<contour>
			<point x="259" y="378" type="curve"/>
			<point x="258" y="364" type="line"/>
			<point x="276" y="368"/>
			<point x="301" y="372"/>
			<point x="324" y="372" type="curve" smooth="yes"/>
			<point x="415" y="372"/>
			<point x="479" y="326"/>
			<point x="479" y="216" type="curve" smooth="yes"/>
			<point x="479" y="71"/>
			<point x="402" y="18"/>
			<point x="270" y="18" type="curve" smooth="yes"/>
			<point x="186" y="18" type="line"/>
			<point x="213" y="712" type="line"/>
			<point x="280" y="712" type="line" smooth="yes"/>
			<point x="403" y="712"/>
			<point x="451" y="673"/>
			<point x="451" y="562" type="curve" smooth="yes"/>
			<point x="451" y="450"/>
			<point x="382" y="399"/>
		</contour>
	</outline>
</glyph>
<glyph name="C" format="2">
	<unicode hex="0043"/>
	<advance width="579"/>
	<outline>
		<contour>
			<point x="490" y="614" type="curve" smooth="yes"/>
			<point x="478" y="587" type="line"/>
			<point x="489" y="577"/>
			<point x="502" y="567"/>
			<point x="522" y="567" type="curve" smooth="yes"/>
			<point x="543" y="567"/>
			<point x="560" y="587"/>
			<point x="560" y="617" type="curve" smooth="yes"/>
			<point x="560" y="696"/>
			<point x="458" y="744"/>
			<point x="359" y="744" type="curve" smooth="yes"/>
			<point x="180" y="744"/>
			<point x="61" y="596"/>
			<point x="60" y="342" type="curve" smooth="yes"/>
			<point x="59" y="116"/>
			<point x="163" y="-14"/>
			<point x="324" y="-14" type="curve" smooth="yes"/>
			<point x="416" y="-14"/>
			<point x="490" y="27"/>
			<point x="550" y="108" type="curve"/>
			<point x="540" y="115" type="line"/>
			<point x="488" y="49"/>
			<point x="420" y="14"/>
			<point x="342" y="14" type="curve" smooth="yes"/>
			<point x="212" y="14"/>
			<point x="112" y="110"/>
			<point x="113" y="348" type="curve" smooth="yes"/>
			<point x="114" y="602"/>
			<point x="211" y="725"/>
			<point x="358" y="725" type="curve" smooth="yes"/>
			<point x="448" y="725"/>
			<point x="524" y="691"/>
		</contour>
	</outline>
	<anchor name="bottom" x="319" y="-30"/>
	<anchor name="top" x="357" y="730"/>
</glyph>
<glyph name="G" format="2">
	<unicode hex="0047"/>
	<advance width="607"/>
	<outline>
		<contour>
			<point x="555" y="329" type="line"/>
			<point x="423" y="329" type="line"/>
			<point x="423" y="319" type="line"/>
			<point x="507" y="308" type="line"/>
			<point x="498" y="52" type="line"/>
			<point x="462" y="27"/>
			<point x="407" y="5"/>
			<point x="343" y="5" type="curve" smooth="yes"/>
			<point x="211" y="5"/>
			<point x="112" y="109"/>
			<point x="113" y="347" type="curve" smooth="yes"/>
			<point x="114" y="602"/>
			<point x="211" y="725"/>
			<point x="358" y="725" type="curve" smooth="yes"/>
			<point x="448" y="725"/>
			<point x="524" y="691"/>
			<point x="490" y="614" type="curve" smooth="yes"/>
			<point x="478" y="587" type="line"/>
			<point x="489" y="577"/>
			<point x="502" y="567"/>
			<point x="522" y="567" type="curve" smooth="yes"/>
			<point x="543" y="567"/>
			<point x="560" y="587"/>
			<point x="560" y="617" type="curve" smooth="yes"/>
			<point x="560" y="696"/>
			<point x="458" y="744"/>
			<point x="359" y="744" type="curve" smooth="yes"/>
			<point x="180" y="744"/>
			<point x="61" y="596"/>
			<point x="60" y="342" type="curve" smooth="yes"/>
			<point x="59" y="112"/>
			<point x="179" y="-14"/>
			<point x="341" y="-14" type="curve" smooth="yes"/>
			<point x="417" y="-14"/>
			<point x="486" y="15"/>
			<point x="545" y="49" type="curve"/>
		</contour>
	</outline>
	<anchor name="bottom" x="326" y="-30"/>
	<anchor name="top" x="351" y="730"/>
</glyph>
<glyph name="H" format="2">
	<unicode hex="0048"/>
	<advance width="709"/>
	<outline>
		<contour>
			<point x="544" y="366" type="line"/>
			<point x="528" y="23" type="line"/>
			<point x="443" y="10" type="line"/>
			<point x="442" y="0" type="line"/>
			<point x="661" y="0" type="line"/>
			<point x="662" y="10" type="line"/>
			<point x="577" y="22" type="line"/>
			<point x="606" y="707" type="line"/>
			<point x="691" y="720" type="line"/>
			<point x="691" y="730" type="line"/>
			<point x="473" y="730" type="line"/>
			<point x="472" y="720" type="line"/>
			<point x="557" y="707" type="line"/>
			<point x="544" y="384" type="line"/>
			<point x="201" y="384" type="line"/>
			<point x="213" y="707" type="line"/>
			<point x="298" y="719" type="line"/>
			<point x="298" y="730" type="line"/>
			<point x="80" y="730" type="line"/>
			<point x="79" y="718" type="line"/>
			<point x="164" y="707" type="line"/>
			<point x="137" y="23" type="line"/>
			<point x="52" y="10" type="line"/>
			<point x="51" y="0" type="line"/>
			<point x="270" y="0" type="line"/>
			<point x="271" y="10" type="line"/>
			<point x="186" y="22" type="line"/>
			<point x="201" y="366" type="line"/>
		</contour>
	</outline>
	<anchor name="bottom" x="358" y="-30"/>
	<anchor name="top" x="387" y="730"/>
</glyph>
<glyph name="J" format="2">
	<unicode hex="004A"/>
	<advance width="308"/>
	<outline>
		<contour>
			<point x="161" y="707" type="line"/>
			<point x="135" y="40" type="line" smooth="yes"/>
			<point x="131" y="-61"/>
			<point x="108" y="-137"/>
			<point x="34" y="-217" type="curve"/>
			<point x="41" y="-224" type="line"/>
			<point x="154" y="-128"/>
			<point x="180" y="-63"/>
			<point x="184" y="39" type="curve" smooth="yes"/>
			<point x="210" y="707" type="line"/>
			<point x="291" y="719" type="line"/>
			<point x="291" y="730" type="line"/>
			<point x="71" y="730" type="line"/>
			<point x="70" y="718" type="line"/>
		</contour>
	</outline>
	<anchor name="top" x="178" y="730"/>
</glyph>
<glyph name="L" format="2">
	<unicode hex="004C"/>
	<advance width="526"/>
	<outline>
		<contour>
			<point x="52" y="10" type="line"/>
			<point x="51" y="0" type="line"/>
			<point x="471" y="0" type="line"/>
			<point x="494" y="155" type="line"/>
			<point x="481" y="155" type="line"/>
			<point x="471" y="121" type="line" smooth="yes"/>
			<point x="446" y="35"/>
			<point x="426" y="18"/>
			<point x="356" y="18" type="curve" smooth="yes"/>
			<point x="186" y="18" type="line"/>
			<point x="213" y="709" type="line"/>
			<point x="307" y="720" type="line"/>
			<point x="308" y="730" type="line"/>
			<point x="80" y="730" type="line"/>
			<point x="79" y="720" type="line"/>
			<point x="164" y="709" type="line"/>
			<point x="137" y="21" type="line"/>
		</contour>
	</outline>
	<anchor name="bottom" x="290" y="-29"/>
	<anchor name="top" x="187" y="730"/>
</glyph>
<glyph name="O" format="2">
	<unicode hex="004F"/>
	<advance width="675"/>
	<outline>
		<contour>
			<point x="61" y="344" type="curve" smooth="yes"/>
			<point x="62" y="109"/>
			<point x="173" y="-14"/>
			<point x="339" y="-14" type="curve" smooth="yes"/>
			<point x="520" y="-14"/>
			<point x="631" y="134"/>
			<point x="631" y="395" type="curve" smooth="yes"/>
			<point x="631" y="625"/>
			<point x="523" y="745"/>
			<point x="361" y="745" type="curve" smooth="yes"/>
			<point x="177" y="745"/>
			<point x="60" y="603"/>
		</contour>
		<contour>
			<point x="112" y="361" type="curve" smooth="yes"/>
			<point x="113" y="627"/>
			<point x="211" y="726"/>
			<point x="359" y="726" type="curve" smooth="yes"/>
			<point x="502" y="726"/>
			<point x="581" y="638"/>
			<point x="580" y="388" type="curve" smooth="yes"/>
			<point x="579" y="106"/>
			<point x="487" y="5"/>
			<point x="345" y="5" type="curve" smooth="yes"/>
			<point x="197" y="5"/>
			<point x="111" y="99"/>
		</contour>
	</outline>
	<anchor name="bottom" x="341" y="-30"/>
	<anchor name="top" x="359" y="730"/>
</glyph>
<glyph name="P" format="2">
	<unicode hex="0050"/>
	<advance width="534"/>
	<outline>
		<contour>
			<point x="248" y="327" type="curve"/>
			<point x="247" y="314" type="line"/>
			<point x="257" y="312"/>
			<point x="267" y="311"/>
			<point x="285" y="311" type="curve" smooth="yes"/>
			<point x="423" y="311"/>
			<point x="508" y="398"/>
			<point x="508" y="524" type="curve" smooth="yes"/>
			<point x="508" y="650"/>
			<point x="440" y="730"/>
			<point x="270" y="730" type="curve" smooth="yes"/>
			<point x="80" y="730" type="line"/>
			<point x="79" y="720" type="line"/>
			<point x="164" y="709" type="line"/>
			<point x="137" y="21" type="line"/>
			<point x="52" y="10" type="line"/>
			<point x="51" y="0" type="line"/>
			<point x="305" y="0" type="line"/>
			<point x="306" y="9" type="line"/>
			<point x="186" y="22" type="line"/>
			<point x="213" y="711" type="line"/>
			<point x="273" y="711" type="line" smooth="yes"/>
			<point x="393" y="711"/>
			<point x="457" y="668"/>
			<point x="457" y="523" type="curve" smooth="yes"/>
			<point x="457" y="382"/>
			<point x="399" y="325"/>
			<point x="279" y="325" type="curve" smooth="yes"/>
			<point x="268" y="325"/>
			<point x="256" y="326"/>
		</contour>
	</outline>
</glyph>
<glyph name="Q" format="2">
	<unicode hex="0051"/>
	<advance width="671"/>
	<outline>
		<contour>
			<point x="61" y="344" type="curve" smooth="yes"/>
			<point x="61" y="139"/>
			<point x="151" y="37"/>
			<point x="269" y="6" type="curve"/>
			<point x="269" y="5" type="line"/>
			<point x="234" y="1"/>
			<point x="198" y="-13"/>
			<point x="176" y="-27" type="curve"/>
			<point x="183" y="-39" type="line"/>
			<point x="217" y="-20"/>
			<point x="261" y="-5"/>
			<point x="310" y="-5" type="curve" smooth="yes"/>
			<point x="369" y="-5"/>
			<point x="408" y="-17"/>
			<point x="483" y="-77" type="curve" smooth="yes"/>
			<point x="558" y="-137"/>
			<point x="594" y="-156"/>
			<point x="641" y="-156" type="curve" smooth="yes"/>
			<point x="667" y="-156"/>
			<point x="698" y="-140"/>
			<point x="698" y="-105" type="curve" smooth="yes"/>
			<point x="698" y="-72"/>
			<point x="672" y="-58"/>
			<point x="635" y="-59" type="curve"/>
			<point x="630" y="-79" type="line" smooth="yes"/>
			<point x="620" y="-120"/>
			<point x="576" y="-130"/>
			<point x="508" y="-76" type="curve" smooth="yes"/>
			<point x="447" y="-28"/>
			<point x="409" y="-4"/>
			<point x="374" y="1" type="curve"/>
			<point x="374" y="2" type="line"/>
			<point x="532" y="16"/>
			<point x="631" y="158"/>
			<point x="631" y="395" type="curve" smooth="yes"/>
			<point x="631" y="625"/>
			<point x="523" y="745"/>
			<point x="361" y="745" type="curve" smooth="yes"/>
			<point x="177" y="745"/>
			<point x="61" y="602"/>
		</contour>
		<contour>
			<point x="112" y="361" type="curve" smooth="yes"/>
			<point x="113" y="627"/>
			<point x="212" y="726"/>
			<point x="359" y="726" type="curve" smooth="yes"/>
			<point x="503" y="726"/>
			<point x="580" y="637"/>
			<point x="580" y="388" type="curve" smooth="yes"/>
			<point x="580" y="132"/>
			<point x="491" y="14"/>
			<point x="345" y="14" type="curve" smooth="yes"/>
			<point x="183" y="14"/>
			<point x="111" y="137"/>
		</contour>
	</outline>
</glyph>
<glyph name="R" format="2">
	<unicode hex="0052"/>
	<advance width="598"/>
	<outline>
		<contour>
			<point x="249" y="373" type="curve"/>
			<point x="248" y="353" type="line"/>
			<point x="291" y="345"/>
			<point x="307" y="317"/>
			<point x="337" y="249" type="curve" smooth="yes"/>
			<point x="400" y="105" type="line" smooth="yes"/>
			<point x="436" y="22"/>
			<point x="482" y="-14"/>
			<point x="531" y="-14" type="curve" smooth="yes"/>
			<point x="565" y="-14"/>
			<point x="585" y="-2"/>
			<point x="608" y="21" type="curve"/>
			<point x="602" y="28" type="line"/>
			<point x="584" y="13"/>
			<point x="568" y="6"/>
			<point x="549" y="6" type="curve" smooth="yes"/>
			<point x="509" y="6"/>
			<point x="490" y="25"/>
			<point x="443" y="127" type="curve" smooth="yes"/>
			<point x="385" y="253" type="line" smooth="yes"/>
			<point x="356" y="316"/>
			<point x="328" y="342"/>
			<point x="282" y="358" type="curve"/>
			<point x="282" y="360" type="line"/>
			<point x="398" y="372"/>
			<point x="505" y="446"/>
			<point x="505" y="565" type="curve" smooth="yes"/>
			<point x="505" y="675"/>
			<point x="438" y="730"/>
			<point x="272" y="730" type="curve" smooth="yes"/>
			<point x="80" y="730" type="line"/>
			<point x="79" y="720" type="line"/>
			<point x="164" y="709" type="line"/>
			<point x="137" y="21" type="line"/>
			<point x="52" y="10" type="line"/>
			<point x="51" y="0" type="line"/>
			<point x="286" y="0" type="line"/>
			<point x="287" y="10" type="line"/>
			<point x="185" y="23" type="line"/>
			<point x="212" y="711" type="line"/>
			<point x="284" y="711" type="line" smooth="yes"/>
			<point x="395" y="711"/>
			<point x="452" y="675"/>
			<point x="452" y="563" type="curve" smooth="yes"/>
			<point x="452" y="439"/>
			<point x="366" y="376"/>
		</contour>
	</outline>
	<anchor name="bottom" x="305" y="-30"/>
	<anchor name="top" x="291" y="730"/>
</glyph>
<glyph name="V" format="2">
	<unicode hex="0056"/>
	<advance width="623"/>
	<outline>
		<contour>
			<point x="324" y="46" type="line"/>
			<point x="156" y="709" type="line"/>
			<point x="241" y="720" type="line"/>
			<point x="242" y="730" type="line"/>
			<point x="28" y="730" type="line"/>
			<point x="27" y="720" type="line"/>
			<point x="107" y="709" type="line"/>
			<point x="294" y="-10" type="line"/>
			<point x="325" y="-5" type="line"/>
			<point x="576" y="709" type="line"/>
			<point x="649" y="720" type="line"/>
			<point x="650" y="730" type="line"/>
			<point x="472" y="730" type="line"/>
			<point x="471" y="720" type="line"/>
			<point x="557" y="709" type="line"/>
			<point x="326" y="46" type="line"/>
		</contour>
	</outline>
	<anchor name="top" x="359" y="730"/>
</glyph>
<glyph name="W" format="2">
	<unicode hex="0057"/>
	<advance width="951"/>
	<outline>
		<contour>
			<point x="686" y="46" type="line"/>
			<point x="496" y="736" type="line"/>
			<point x="452" y="716" type="line"/>
			<point x="509" y="521" type="line"/>
			<point x="319" y="48" type="line"/>
			<point x="317" y="48" type="line"/>
			<point x="156" y="709" type="line"/>
			<point x="241" y="720" type="line"/>
			<point x="242" y="730" type="line"/>
			<point x="28" y="730" type="line"/>
			<point x="27" y="720" type="line"/>
			<point x="107" y="709" type="line"/>
			<point x="286" y="-10" type="line"/>
			<point x="317" y="-5" type="line"/>
			<point x="517" y="494" type="line"/>
			<point x="658" y="-10" type="line"/>
			<point x="689" y="-5" type="line"/>
			<point x="904" y="709" type="line"/>
			<point x="977" y="720" type="line"/>
			<point x="978" y="730" type="line"/>
			<point x="800" y="730" type="line"/>
			<point x="799" y="720" type="line"/>
			<point x="885" y="709" type="line"/>
			<point x="688" y="46" type="line"/>
		</contour>
	</outline>
	<anchor name="top" x="494" y="730"/>
</glyph>
<glyph name="grave" format="2">
	<unicode hex="0060"/>
	<advance width="504"/>
	<outline>
		<contour>
			<point x="336" y="594" type="line"/>
			<point x="220" y="758" type="line"/>
			<point x="192" y="765"/>
			<point x="174" y="748"/>
			<point x="174" y="731" type="curve" smooth="yes"/>
			<point x="174" y="719"/>
			<point x="177" y="708"/>
			<point x="198" y="692" type="curve" smooth="yes"/>
			<point x="330" y="587" type="line"/>
		</contour>
	</outline>
	<anchor name="_top" x="268" y="550"/>
</glyph>
<glyph name="g" format="2">
	<unicode hex="0067"/>
	<advance width="500"/>
	<outline>
		<contour>
			<point x="381" y="309" type="line"/>
			<point x="366" y="61" type="line" smooth="yes"/>
			<point x="352" y="-162"/>
			<point x="284" y="-212"/>
			<point x="191" y="-212" type="curve" smooth="yes"/>
			<point x="125" y="-212"/>
			<point x="110" y="-189"/>
			<point x="122" y="-144" type="curve" smooth="yes"/>
			<point x="128" y="-122" type="line"/>
			<point x="120" y="-110"/>
			<point x="108" y="-102"/>
			<point x="95" y="-102" type="curve" smooth="yes"/>
			<point x="72" y="-102"/>
			<point x="55" y="-119"/>
			<point x="55" y="-147" type="curve" smooth="yes"/>
			<point x="55" y="-196"/>
			<point x="111" y="-230"/>
			<point x="190" y="-230" type="curve" smooth="yes"/>
			<point x="338" y="-230"/>
			<point x="406" y="-108"/>
			<point x="415" y="89" type="curve" smooth="yes"/>
			<point x="434" y="508" type="line"/>
			<point x="427" y="513" type="line"/>
			<point x="396" y="493" type="line"/>
			<point x="362" y="509"/>
			<point x="324" y="523"/>
			<point x="276" y="523" type="curve" smooth="yes"/>
			<point x="147" y="523"/>
			<point x="44" y="398"/>
			<point x="44" y="206" type="curve" smooth="yes"/>
			<point x="44" y="90"/>
			<point x="85" y="-14"/>
			<point x="191" y="-14" type="curve" smooth="yes"/>
			<point x="282" y="-14"/>
			<point x="323" y="73"/>
			<point x="347" y="174" type="curve" smooth="yes"/>
			<point x="379" y="309" type="line"/>
		</contour>
		<contour>
			<point x="200" y="24" type="curve" smooth="yes"/>
			<point x="132" y="24"/>
			<point x="97" y="86"/>
			<point x="97" y="216" type="curve" smooth="yes"/>
			<point x="97" y="408"/>
			<point x="173" y="505"/>
			<point x="273" y="505" type="curve" smooth="yes"/>
			<point x="321" y="505"/>
			<point x="350" y="497"/>
			<point x="396" y="472" type="curve"/>
			<point x="355" y="287" type="line" smooth="yes"/>
			<point x="308" y="74"/>
			<point x="272" y="24"/>
		</contour>
	</outline>
	<anchor name="top" x="268" y="550"/>
</glyph>
<glyph name="h" format="2">
	<unicode hex="0068"/>
	<advance width="537"/>
	<outline>
		<contour>
			<point x="516" y="22" type="curve"/>
			<point x="510" y="31" type="line"/>
			<point x="488" y="18"/>
			<point x="467" y="12"/>
			<point x="444" y="12" type="curve" smooth="yes"/>
			<point x="421" y="12"/>
			<point x="414" y="26"/>
			<point x="416" y="56" type="curve" smooth="yes"/>
			<point x="441" y="377" type="line" smooth="yes"/>
			<point x="448" y="462"/>
			<point x="428" y="522"/>
			<point x="346" y="522" type="curve" smooth="yes"/>
			<point x="280" y="522"/>
			<point x="244" y="482"/>
			<point x="207" y="366" type="curve" smooth="yes"/>
			<point x="133" y="133" type="line"/>
			<point x="131" y="133" type="line"/>
			<point x="155" y="430" type="line"/>
			<point x="167" y="759" type="line"/>
			<point x="159" y="767" type="line"/>
			<point x="36" y="767" type="line"/>
			<point x="35" y="760" type="line"/>
			<point x="119" y="742" type="line"/>
			<point x="85" y="0" type="line"/>
			<point x="110" y="0" type="line"/>
			<point x="224" y="358" type="line" smooth="yes"/>
			<point x="260" y="472"/>
			<point x="294" y="488"/>
			<point x="335" y="488" type="curve" smooth="yes"/>
			<point x="378" y="488"/>
			<point x="399" y="460"/>
			<point x="393" y="382" type="curve" smooth="yes"/>
			<point x="368" y="63" type="line" smooth="yes"/>
			<point x="364" y="9"/>
			<point x="384" y="-14"/>
			<point x="424" y="-14" type="curve" smooth="yes"/>
			<point x="461" y="-14"/>
			<point x="494" y="4"/>
		</contour>
	</outline>
	<anchor name="bottom" x="250" y="-30"/>
	<anchor name="top" x="113" y="780"/>
</glyph>
<glyph name="m" format="2">
	<unicode hex="006D"/>
	<advance width="815"/>
	<outline>
		<contour>
			<point x="400" y="382" type="curve" smooth="yes"/>
			<point x="367" y="0" type="line"/>
			<point x="392" y="0" type="line"/>
			<point x="502" y="358" type="line" smooth="yes"/>
			<point x="537" y="472"/>
			<point x="572" y="488"/>
			<point x="613" y="488" type="curve" smooth="yes"/>
			<point x="656" y="488"/>
			<point x="677" y="460"/>
			<point x="671" y="382" type="curve" smooth="yes"/>
			<point x="646" y="63" type="line" smooth="yes"/>
			<point x="642" y="9"/>
			<point x="662" y="-14"/>
			<point x="702" y="-14" type="curve" smooth="yes"/>
			<point x="739" y="-14"/>
			<point x="772" y="4"/>
			<point x="794" y="22" type="curve"/>
			<point x="788" y="31" type="line"/>
			<point x="766" y="18"/>
			<point x="745" y="12"/>
			<point x="722" y="12" type="curve" smooth="yes"/>
			<point x="699" y="12"/>
			<point x="692" y="26"/>
			<point x="694" y="56" type="curve" smooth="yes"/>
			<point x="719" y="377" type="line" smooth="yes"/>
			<point x="726" y="462"/>
			<point x="706" y="522"/>
			<point x="624" y="522" type="curve" smooth="yes"/>
			<point x="558" y="522"/>
			<point x="520" y="482"/>
			<point x="485" y="366" type="curve" smooth="yes"/>
			<point x="415" y="133" type="line"/>
			<point x="413" y="133" type="line"/>
			<point x="446" y="381" type="line" smooth="yes"/>
			<point x="458" y="472"/>
			<point x="434" y="522"/>
			<point x="363" y="522" type="curve" smooth="yes"/>
			<point x="297" y="522"/>
			<point x="261" y="482"/>
			<point x="224" y="366" type="curve" smooth="yes"/>
			<point x="150" y="133" type="line"/>
			<point x="148" y="133" type="line"/>
			<point x="169" y="430" type="line" smooth="yes"/>
			<point x="173" y="488"/>
			<point x="165" y="523"/>
			<point x="115" y="523" type="curve" smooth="yes"/>
			<point x="79" y="523"/>
			<point x="48" y="508"/>
			<point x="21" y="491" type="curve"/>
			<point x="26" y="481" type="line"/>
			<point x="55" y="496"/>
			<point x="76" y="501"/>
			<point x="92" y="501" type="curve" smooth="yes"/>
			<point x="113" y="501"/>
			<point x="121" y="490"/>
			<point x="120" y="458" type="curve" smooth="yes"/>
			<point x="102" y="0" type="line"/>
			<point x="127" y="0" type="line"/>
			<point x="241" y="358" type="line" smooth="yes"/>
			<point x="277" y="472"/>
			<point x="311" y="488"/>
			<point x="348" y="488" type="curve" smooth="yes"/>
			<point x="391" y="488"/>
			<point x="407" y="460"/>
		</contour>
	</outline>
	<anchor name="bottom" x="384" y="-30"/>
</glyph>
<glyph name="n" format="2">
	<unicode hex="006E"/>
	<advance width="554"/>
	<outline>
		<contour>
			<point x="533" y="22" type="curve"/>
			<point x="527" y="31" type="line"/>
			<point x="505" y="18"/>
			<point x="484" y="12"/>
			<point x="461" y="12" type="curve" smooth="yes"/>
			<point x="438" y="12"/>
			<point x="431" y="26"/>
			<point x="433" y="56" type="curve" smooth="yes"/>
			<point x="458" y="377" type="line" smooth="yes"/>
			<point x="465" y="462"/>
			<point x="445" y="522"/>
			<point x="363" y="522" type="curve" smooth="yes"/>
			<point x="297" y="522"/>
			<point x="261" y="482"/>
			<point x="224" y="366" type="curve" smooth="yes"/>
			<point x="150" y="133" type="line"/>
			<point x="148" y="133" type="line"/>
			<point x="169" y="430" type="line" smooth="yes"/>
			<point x="173" y="488"/>
			<point x="165" y="523"/>
			<point x="115" y="523" type="curve" smooth="yes"/>
			<point x="79" y="523"/>
			<point x="48" y="508"/>
			<point x="21" y="491" type="curve"/>
			<point x="26" y="481" type="line"/>
			<point x="55" y="496"/>
			<point x="76" y="501"/>
			<point x="92" y="501" type="curve" smooth="yes"/>
			<point x="113" y="501"/>
			<point x="121" y="490"/>
			<point x="120" y="458" type="curve" smooth="yes"/>
			<point x="102" y="0" type="line"/>
			<point x="127" y="0" type="line"/>
			<point x="241" y="358" type="line" smooth="yes"/>
			<point x="277" y="470"/>
			<point x="310" y="488"/>
			<point x="352" y="488" type="curve" smooth="yes"/>
			<point x="395" y="488"/>
			<point x="416" y="460"/>
			<point x="410" y="382" type="curve" smooth="yes"/>
			<point x="385" y="63" type="line" smooth="yes"/>
			<point x="381" y="9"/>
			<point x="401" y="-14"/>
			<point x="441" y="-14" type="curve" smooth="yes"/>
			<point x="478" y="-14"/>
			<point x="511" y="4"/>
		</contour>
	</outline>
	<anchor name="bottom" x="266" y="-30"/>
	<anchor name="top" x="285" y="550"/>
</glyph>
<glyph name="o" format="2">
	<unicode hex="006F"/>
	<advance width="490"/>
	<outline>
		<contour>
			<point x="228" y="-14" type="curve" smooth="yes"/>
			<point x="381" y="-14"/>
			<point x="445" y="126"/>
			<point x="445" y="279" type="curve" smooth="yes"/>
			<point x="445" y="431"/>
			<point x="366" y="523"/>
			<point x="259" y="523" type="curve" smooth="yes"/>
			<point x="105" y="523"/>
			<point x="45" y="392"/>
			<point x="45" y="234" type="curve" smooth="yes"/>
			<point x="45" y="87"/>
			<point x="114" y="-14"/>
		</contour>
		<contour>
			<point x="233" y="4" type="curve" smooth="yes"/>
			<point x="146" y="4"/>
			<point x="98" y="82"/>
			<point x="98" y="232" type="curve" smooth="yes"/>
			<point x="98" y="391"/>
			<point x="138" y="505"/>
			<point x="254" y="505" type="curve" smooth="yes"/>
			<point x="353" y="505"/>
			<point x="392" y="427"/>
			<point x="392" y="278" type="curve" smooth="yes"/>
			<point x="392" y="117"/>
			<point x="348" y="4"/>
		</contour>
	</outline>
	<anchor name="bottom" x="230" y="-30"/>
	<anchor name="top" x="253" y="550"/>
</glyph>
<glyph name="p" format="2">
	<unicode hex="0070"/>
	<advance width="537"/>
	<outline>
		<contour>
			<point x="120" y="458" type="curve" smooth="yes"/>
			<point x="104" y="56" type="line"/>
			<point x="87" y="-220" type="line"/>
			<point x="95" y="-228" type="line"/>
			<point x="215" y="-228" type="line"/>
			<point x="216" y="-221" type="line"/>
			<point x="132" y="-203" type="line"/>
			<point x="145" y="14" type="line"/>
			<point x="177" y="-1"/>
			<point x="218" y="-14"/>
			<point x="263" y="-14" type="curve" smooth="yes"/>
			<point x="391" y="-14"/>
			<point x="493" y="111"/>
			<point x="493" y="303" type="curve" smooth="yes"/>
			<point x="493" y="419"/>
			<point x="453" y="523"/>
			<point x="347" y="523" type="curve" smooth="yes"/>
			<point x="256" y="523"/>
			<point x="215" y="436"/>
			<point x="191" y="335" type="curve" smooth="yes"/>
			<point x="159" y="200" type="line"/>
			<point x="157" y="200" type="line"/>
			<point x="169" y="430" type="line" smooth="yes"/>
			<point x="172" y="493"/>
			<point x="162" y="523"/>
			<point x="115" y="523" type="curve" smooth="yes"/>
			<point x="79" y="523"/>
			<point x="48" y="508"/>
			<point x="21" y="491" type="curve"/>
			<point x="26" y="481" type="line"/>
			<point x="55" y="496"/>
			<point x="76" y="501"/>
			<point x="92" y="501" type="curve" smooth="yes"/>
			<point x="112" y="501"/>
			<point x="121" y="490"/>
		</contour>
		<contour>
			<point x="338" y="485" type="curve" smooth="yes"/>
			<point x="406" y="485"/>
			<point x="440" y="423"/>
			<point x="440" y="293" type="curve" smooth="yes"/>
			<point x="440" y="101"/>
			<point x="365" y="4"/>
			<point x="264" y="4" type="curve" smooth="yes"/>
			<point x="214" y="4"/>
			<point x="183" y="14"/>
			<point x="142" y="37" type="curve"/>
			<point x="183" y="222" type="line" smooth="yes"/>
			<point x="230" y="435"/>
			<point x="266" y="485"/>
		</contour>
	</outline>
</glyph>
<glyph name="q" format="2">
	<unicode hex="0071"/>
	<advance width="500"/>
	<outline>
		<contour>
			<point x="395" y="-154" type="curve" smooth="yes"/>
			<point x="434" y="508" type="line"/>
			<point x="427" y="513" type="line"/>
			<point x="396" y="493" type="line"/>
			<point x="362" y="509"/>
			<point x="324" y="523"/>
			<point x="276" y="523" type="curve" smooth="yes"/>
			<point x="147" y="523"/>
			<point x="44" y="398"/>
			<point x="44" y="206" type="curve" smooth="yes"/>
			<point x="44" y="90"/>
			<point x="85" y="-14"/>
			<point x="191" y="-14" type="curve" smooth="yes"/>
			<point x="282" y="-14"/>
			<point x="323" y="73"/>
			<point x="347" y="174" type="curve" smooth="yes"/>
			<point x="379" y="309" type="line"/>
			<point x="381" y="309" type="line"/>
			<point x="365" y="75" type="line"/>
			<point x="347" y="-148" type="line" smooth="yes"/>
			<point x="343" y="-201"/>
			<point x="363" y="-225"/>
			<point x="403" y="-225" type="curve" smooth="yes"/>
			<point x="440" y="-225"/>
			<point x="473" y="-207"/>
			<point x="495" y="-189" type="curve"/>
			<point x="489" y="-180" type="line"/>
			<point x="467" y="-193"/>
			<point x="446" y="-199"/>
			<point x="423" y="-199" type="curve" smooth="yes"/>
			<point x="400" y="-199"/>
			<point x="393" y="-184"/>
		</contour>
		<contour>
			<point x="200" y="24" type="curve" smooth="yes"/>
			<point x="131" y="24"/>
			<point x="97" y="86"/>
			<point x="97" y="216" type="curve" smooth="yes"/>
			<point x="97" y="408"/>
			<point x="173" y="505"/>
			<point x="273" y="505" type="curve" smooth="yes"/>
			<point x="321" y="505"/>
			<point x="350" y="497"/>
			<point x="396" y="472" type="curve"/>
			<point x="355" y="287" type="line" smooth="yes"/>
			<point x="308" y="74"/>
			<point x="272" y="24"/>
		</contour>
	</outline>
</glyph>
<glyph name="s" format="2">
	<unicode hex="0073"/>
	<advance width="396"/>
	<outline>
		<contour>
			<point x="190" y="4" type="curve" smooth="yes"/>
			<point x="117" y="4"/>
			<point x="107" y="28"/>
			<point x="111" y="62" type="curve" smooth="yes"/>
			<point x="115" y="99" type="line"/>
			<point x="106" y="104"/>
			<point x="93" y="108"/>
			<point x="82" y="108" type="curve" smooth="yes"/>
			<point x="60" y="108"/>
			<point x="41" y="95"/>
			<point x="41" y="71" type="curve" smooth="yes"/>
			<point x="41" y="20"/>
			<point x="97" y="-14"/>
			<point x="183" y="-14" type="curve" smooth="yes"/>
			<point x="288" y="-14"/>
			<point x="350" y="51"/>
			<point x="350" y="136" type="curve" smooth="yes"/>
			<point x="350" y="213"/>
			<point x="309" y="246"/>
			<point x="217" y="294" type="curve" smooth="yes"/>
			<point x="155" y="326"/>
			<point x="111" y="349"/>
			<point x="111" y="411" type="curve" smooth="yes"/>
			<point x="111" y="468"/>
			<point x="153" y="505"/>
			<point x="230" y="505" type="curve" smooth="yes"/>
			<point x="300" y="505"/>
			<point x="322" y="472"/>
			<point x="296" y="429" type="curve" smooth="yes"/>
			<point x="285" y="411" type="line"/>
			<point x="293" y="402"/>
			<point x="306" y="393"/>
			<point x="321" y="393" type="curve" smooth="yes"/>
			<point x="344" y="393"/>
			<point x="354" y="412"/>
			<point x="354" y="434" type="curve" smooth="yes"/>
			<point x="354" y="474"/>
			<point x="320" y="523"/>
			<point x="236" y="523" type="curve" smooth="yes"/>
			<point x="112" y="523"/>
			<point x="78" y="448"/>
			<point x="78" y="391" type="curve" smooth="yes"/>
			<point x="78" y="319"/>
			<point x="126" y="284"/>
			<point x="204" y="246" type="curve" smooth="yes"/>
			<point x="288" y="205"/>
			<point x="317" y="175"/>
			<point x="317" y="118" type="curve" smooth="yes"/>
			<point x="317" y="43"/>
			<point x="258" y="4"/>
		</contour>
	</outline>
	<anchor name="bottom" x="186" y="-30"/>
	<anchor name="top" x="224" y="550"/>
</glyph>
<glyph name="u" format="2">
	<unicode hex="0075"/>
	<advance width="554"/>
	<outline>
		<contour>
			<point x="24" y="487" type="curve"/>
			<point x="30" y="478" type="line"/>
			<point x="52" y="491"/>
			<point x="73" y="497"/>
			<point x="96" y="497" type="curve" smooth="yes"/>
			<point x="119" y="497"/>
			<point x="126" y="483"/>
			<point x="124" y="453" type="curve" smooth="yes"/>
			<point x="99" y="132" type="line" smooth="yes"/>
			<point x="92" y="47"/>
			<point x="112" y="-14"/>
			<point x="194" y="-14" type="curve" smooth="yes"/>
			<point x="260" y="-14"/>
			<point x="296" y="27"/>
			<point x="333" y="143" type="curve" smooth="yes"/>
			<point x="407" y="376" type="line"/>
			<point x="409" y="376" type="line"/>
			<point x="388" y="79" type="line" smooth="yes"/>
			<point x="384" y="21"/>
			<point x="393" y="-14"/>
			<point x="442" y="-14" type="curve" smooth="yes"/>
			<point x="478" y="-14"/>
			<point x="509" y="1"/>
			<point x="536" y="18" type="curve"/>
			<point x="531" y="28" type="line"/>
			<point x="502" y="13"/>
			<point x="481" y="8"/>
			<point x="465" y="8" type="curve" smooth="yes"/>
			<point x="444" y="8"/>
			<point x="436" y="19"/>
			<point x="437" y="51" type="curve" smooth="yes"/>
			<point x="455" y="509" type="line"/>
			<point x="430" y="509" type="line"/>
			<point x="316" y="151" type="line" smooth="yes"/>
			<point x="280" y="39"/>
			<point x="247" y="20"/>
			<point x="205" y="20" type="curve" smooth="yes"/>
			<point x="162" y="20"/>
			<point x="141" y="48"/>
			<point x="147" y="126" type="curve" smooth="yes"/>
			<point x="172" y="446" type="line" smooth="yes"/>
			<point x="176" y="500"/>
			<point x="156" y="523"/>
			<point x="116" y="523" type="curve" smooth="yes"/>
			<point x="79" y="523"/>
			<point x="46" y="505"/>
		</contour>
	</outline>
	<anchor name="bottom" x="273" y="-30"/>
	<anchor name="top" x="281" y="550"/>
</glyph>
<glyph name="y" format="2">
	<unicode hex="0079"/>
	<advance width="492"/>
	<outline>
		<contour>
			<point x="258" y="-82" type="curve" smooth="yes"/>
			<point x="389" y="224" type="line" smooth="yes"/>
			<point x="449" y="365"/>
			<point x="464" y="391"/>
			<point x="464" y="448" type="curve" smooth="yes"/>
			<point x="464" y="484"/>
			<point x="443" y="523"/>
			<point x="404" y="523" type="curve" smooth="yes"/>
			<point x="373" y="523"/>
			<point x="359" y="499"/>
			<point x="362" y="466" type="curve"/>
			<point x="398" y="455" type="line" smooth="yes"/>
			<point x="440" y="442"/>
			<point x="447" y="409"/>
			<point x="417" y="339" type="curve" smooth="yes"/>
			<point x="279" y="15" type="line"/>
			<point x="261" y="15" type="line" smooth="yes"/>
			<point x="221" y="15"/>
			<point x="205" y="30"/>
			<point x="187" y="64" type="curve" smooth="yes"/>
			<point x="162" y="112"/>
			<point x="150" y="221"/>
			<point x="153" y="353" type="curve" smooth="yes"/>
			<point x="153" y="359"/>
			<point x="156" y="432"/>
			<point x="157" y="447" type="curve" smooth="yes"/>
			<point x="160" y="501"/>
			<point x="141" y="523"/>
			<point x="101" y="523" type="curve" smooth="yes"/>
			<point x="64" y="523"/>
			<point x="31" y="505"/>
			<point x="9" y="487" type="curve"/>
			<point x="15" y="478" type="line"/>
			<point x="37" y="491"/>
			<point x="58" y="497"/>
			<point x="81" y="497" type="curve" smooth="yes"/>
			<point x="104" y="497"/>
			<point x="111" y="484"/>
			<point x="109" y="453" type="curve" smooth="yes"/>
			<point x="107" y="429"/>
			<point x="106" y="378"/>
			<point x="106" y="349" type="curve" smooth="yes"/>
			<point x="106" y="230"/>
			<point x="116" y="128"/>
			<point x="154" y="62" type="curve" smooth="yes"/>
			<point x="178" y="20"/>
			<point x="214" y="0"/>
			<point x="253" y="0" type="curve" smooth="yes"/>
			<point x="275" y="0" type="line"/>
			<point x="251" y="-57" type="line" smooth="yes"/>
			<point x="202" y="-173"/>
			<point x="158" y="-200"/>
			<point x="123" y="-200" type="curve" smooth="yes"/>
			<point x="101" y="-200"/>
			<point x="87" y="-188"/>
			<point x="71" y="-161" type="curve" smooth="yes"/>
			<point x="55" y="-134" type="line"/>
			<point x="29" y="-142"/>
			<point x="17" y="-157"/>
			<point x="17" y="-178" type="curve" smooth="yes"/>
			<point x="17" y="-206"/>
			<point x="39" y="-230"/>
			<point x="89" y="-230" type="curve" smooth="yes"/>
			<point x="159" y="-230"/>
			<point x="211" y="-193"/>
		</contour>
	</outline>
	<anchor name="bottom" x="356" y="-30"/>
	<anchor name="top" x="266" y="550"/>
</glyph>
<glyph name="braceright" format="2">
	<unicode hex="007D"/>
	<advance width="343"/>
	<outline>
		<contour>
			<point x="288" y="306" type="curve"/>
			<point x="289" y="320" type="line"/>
			<point x="218" y="317"/>
			<point x="204" y="341"/>
			<point x="204" y="417" type="curve" smooth="yes"/>
			<point x="204" y="480"/>
			<point x="239" y="649"/>
			<point x="239" y="710" type="curve" smooth="yes"/>
			<point x="239" y="790"/>
			<point x="196" y="831"/>
			<point x="125" y="831" type="curve" smooth="yes"/>
			<point x="108" y="831"/>
			<point x="91" y="829"/>
			<point x="71" y="825" type="curve"/>
			<point x="72" y="814" type="line"/>
			<point x="90" y="818"/>
			<point x="102" y="819"/>
			<point x="123" y="819" type="curve" smooth="yes"/>
			<point x="178" y="819"/>
			<point x="205" y="791"/>
			<point x="203" y="726" type="curve" smooth="yes"/>
			<point x="202" y="684"/>
			<point x="170" y="494"/>
			<point x="170" y="445" type="curve" smooth="yes"/>
			<point x="170" y="354"/>
			<point x="192" y="327"/>
			<point x="234" y="313" type="curve"/>
			<point x="185" y="301"/>
			<point x="158" y="267"/>
			<point x="158" y="178" type="curve" smooth="yes"/>
			<point x="158" y="104"/>
			<point x="172" y="-62"/>
			<point x="172" y="-122" type="curve" smooth="yes"/>
			<point x="172" y="-197"/>
			<point x="136" y="-218"/>
			<point x="99" y="-218" type="curve" smooth="yes"/>
			<point x="80" y="-218"/>
			<point x="66" y="-217"/>
			<point x="44" y="-212" type="curve"/>
			<point x="41" y="-224" type="line"/>
			<point x="58" y="-228"/>
			<point x="77" y="-230"/>
			<point x="94" y="-230" type="curve" smooth="yes"/>
			<point x="168" y="-230"/>
			<point x="209" y="-183"/>
			<point x="209" y="-107" type="curve" smooth="yes"/>
			<point x="209" y="-49"/>
			<point x="192" y="139"/>
			<point x="192" y="208" type="curve" smooth="yes"/>
			<point x="192" y="278"/>
			<point x="201" y="304"/>
		</contour>
	</outline>
</glyph>
<glyph name="asciitilde" format="2">
	<unicode hex="007E"/>
	<advance width="554"/>
	<outline>
		<contour>
			<point x="440" y="257" type="curve" smooth="yes"/>
			<point x="470" y="257"/>
			<point x="489" y="271"/>
			<point x="508" y="306" type="curve"/>
			<point x="496" y="312" type="line"/>
			<point x="479" y="284"/>
			<point x="471" y="271"/>
			<point x="440" y="271" type="curve" smooth="yes"/>
			<point x="386" y="271"/>
			<point x="228" y="317"/>
			<point x="174" y="317" type="curve" smooth="yes"/>
			<point x="144" y="317"/>
			<point x="125" y="299"/>
			<point x="107" y="264" type="curve"/>
			<point x="118" y="258" type="line"/>
			<point x="136" y="286"/>
			<point x="144" y="303"/>
			<point x="175" y="303" type="curve" smooth="yes"/>
			<point x="227" y="303"/>
			<point x="385" y="257"/>
		</contour>
	</outline>
</glyph>
<glyph name="currency" format="2">
	<unicode hex="00A4"/>
	<advance width="503"/>
	<outline>
		<contour>
			<point x="98" y="316" type="curve" smooth="yes"/>
			<point x="98" y="272"/>
			<point x="111" y="233"/>
			<point x="135" y="205" type="curve"/>
			<point x="75" y="125" type="line"/>
			<point x="79" y="121" type="line"/>
			<point x="155" y="182" type="line"/>
			<point x="183" y="159"/>
			<point x="218" y="147"/>
			<point x="261" y="147" type="curve" smooth="yes"/>
			<point x="302" y="147"/>
			<point x="339" y="159"/>
			<point x="369" y="183" type="curve"/>
			<point x="448" y="119" type="line"/>
			<point x="452" y="123" type="line"/>
			<point x="386" y="206" type="line"/>
			<point x="409" y="235"/>
			<point x="422" y="277"/>
			<point x="422" y="326" type="curve" smooth="yes"/>
			<point x="422" y="370"/>
			<point x="409" y="410"/>
			<point x="386" y="439" type="curve"/>
			<point x="444" y="517" type="line"/>
			<point x="440" y="521" type="line"/>
			<point x="368" y="461" type="line"/>
			<point x="338" y="485"/>
			<point x="302" y="497"/>
			<point x="262" y="497" type="curve" smooth="yes"/>
			<point x="217" y="497"/>
			<point x="177" y="483"/>
			<point x="147" y="456" type="curve"/>
			<point x="68" y="519" type="line"/>
			<point x="64" y="515" type="line"/>
			<point x="130" y="433" type="line"/>
			<point x="109" y="404"/>
			<point x="98" y="364"/>
		</contour>
		<contour>
			<point x="136" y="322" type="curve" smooth="yes"/>
			<point x="136" y="430"/>
			<point x="186" y="485"/>
			<point x="257" y="485" type="curve" smooth="yes"/>
			<point x="337" y="485"/>
			<point x="382" y="429"/>
			<point x="382" y="322" type="curve" smooth="yes"/>
			<point x="382" y="225"/>
			<point x="340" y="159"/>
			<point x="265" y="159" type="curve" smooth="yes"/>
			<point x="181" y="159"/>
			<point x="136" y="225"/>
		</contour>
	</outline>
</glyph>
<glyph name="brokenbar" format="2">
	<unicode hex="00A6"/>
	<advance width="287"/>
	<outline>
		<contour>
			<point x="129" y="-110" type="line"/>
			<point x="157" y="-110" type="line"/>
			<point x="171" y="289" type="line"/>
			<point x="143" y="289" type="line"/>
		</contour>
		<contour>
			<point x="148" y="432" type="line"/>
			<point x="176" y="432" type="line"/>
			<point x="189" y="802" type="line"/>
			<point x="161" y="802" type="line"/>
		</contour>
	</outline>
</glyph>
<glyph name="ordfeminine" format="2">
	<unicode hex="00AA"/>
	<advance width="414"/>
	<outline>
		<contour>
			<point x="340" y="418" type="curve" smooth="yes"/>
			<point x="355" y="735" type="line"/>
			<point x="349" y="739" type="line"/>
			<point x="317" y="719" type="line"/>
			<point x="284" y="733"/>
			<point x="257" y="742"/>
			<point x="222" y="742" type="curve" smooth="yes"/>
			<point x="133" y="742"/>
			<point x="62" y="656"/>
			<point x="62" y="515" type="curve" smooth="yes"/>
			<point x="62" y="418"/>
			<point x="99" y="362"/>
			<point x="166" y="362" type="curve" smooth="yes"/>
			<point x="242" y="362"/>
			<point x="264" y="429"/>
			<point x="295" y="537" type="curve" smooth="yes"/>
			<point x="311" y="593" type="line"/>
			<point x="313" y="593" type="line"/>
			<point x="300" y="431" type="line" smooth="yes"/>
			<point x="297" y="398"/>
			<point x="298" y="362"/>
			<point x="342" y="362" type="curve" smooth="yes"/>
			<point x="374" y="362"/>
			<point x="394" y="377"/>
			<point x="416" y="394" type="curve"/>
			<point x="409" y="404" type="line"/>
			<point x="390" y="391"/>
			<point x="374" y="383"/>
			<point x="359" y="383" type="curve" smooth="yes"/>
			<point x="341" y="383"/>
			<point x="339" y="397"/>
		</contour>
		<contour>
			<point x="173" y="393" type="curve" smooth="yes"/>
			<point x="128" y="393"/>
			<point x="106" y="424"/>
			<point x="106" y="522" type="curve" smooth="yes"/>
			<point x="106" y="676"/>
			<point x="159" y="727"/>
			<point x="222" y="727" type="curve" smooth="yes"/>
			<point x="264" y="727"/>
			<point x="301" y="709"/>
			<point x="323" y="696" type="curve"/>
			<point x="294" y="592" type="line" smooth="yes"/>
			<point x="257" y="460"/>
			<point x="234" y="393"/>
		</contour>
	</outline>
</glyph>
<glyph name="logicalnot" format="2">
	<unicode hex="00AC"/>
	<advance width="582"/>
	<outline>
		<contour>
			<point x="464" y="154" type="line"/>
			<point x="481" y="154" type="line"/>
			<point x="487" y="350" type="line"/>
			<point x="82" y="350" type="line"/>
			<point x="81" y="333" type="line"/>
			<point x="469" y="333" type="line"/>
		</contour>
	</outline>
</glyph>
<glyph name="softhyphen" format="2">
	<unicode hex="00AD"/>
	<advance width="343"/>
	<outline>
		<contour>
			<point x="52" y="306" type="line"/>
			<point x="50" y="272" type="line"/>
			<point x="310" y="272" type="line"/>
			<point x="312" y="306" type="line"/>
		</contour>
	</outline>
</glyph>
<glyph name="macron" format="2">
	<unicode hex="00AF"/>
	<advance width="501"/>
	<outline>
		<contour>
			<point x="143" y="680" type="line"/>
			<point x="142" y="646" type="line"/>
			<point x="402" y="646" type="line"/>
			<point x="403" y="680" type="line"/>
		</contour>
	</outline>
	<anchor name="_top" x="269" y="550"/>
</glyph>
<glyph name="degree" format="2">
	<unicode hex="00B0"/>
	<advance width="273"/>
	<outline>
		<contour>
			<point x="152" y="559" type="curve" smooth="yes"/>
			<point x="218" y="559"/>
			<point x="260" y="600"/>
			<point x="260" y="669" type="curve" smooth="yes"/>
			<point x="260" y="738"/>
			<point x="218" y="779"/>
			<point x="152" y="779" type="curve" smooth="yes"/>
			<point x="86" y="779"/>
			<point x="44" y="738"/>
			<point x="44" y="669" type="curve" smooth="yes"/>
			<point x="44" y="600"/>
			<point x="86" y="559"/>
		</contour>
		<contour>
			<point x="152" y="582" type="curve" smooth="yes"/>
			<point x="100" y="582"/>
			<point x="68" y="615"/>
			<point x="68" y="669" type="curve" smooth="yes"/>
			<point x="68" y="723"/>
			<point x="100" y="756"/>
			<point x="152" y="756" type="curve" smooth="yes"/>
			<point x="204" y="756"/>
			<point x="236" y="723"/>
			<point x="236" y="669" type="curve" smooth="yes"/>
			<point x="236" y="615"/>
			<point x="204" y="582"/>
		</contour>
	</outline>
</glyph>
<glyph name="acute" format="2">
	<unicode hex="00B4"/>
	<advance width="502"/>
	<outline>
		<contour>
			<point x="304" y="715" type="curve" smooth="yes"/>
			<point x="214" y="588" type="line"/>
			<point x="221" y="582" type="line"/>
			<point x="379" y="715" type="line"/>
			<point x="381" y="735"/>
			<point x="373" y="754"/>
			<point x="352" y="754" type="curve" smooth="yes"/>
			<point x="334" y="754"/>
			<point x="325" y="745"/>
		</contour>
	</outline>
	<anchor name="_top" x="270" y="550"/>
</glyph>
<glyph name="ordmasculine" format="2">
	<unicode hex="00BA"/>
	<advance width="406"/>
	<outline>
		<contour>
			<point x="207" y="362" type="curve" smooth="yes"/>
			<point x="326" y="362"/>
			<point x="372" y="458"/>
			<point x="372" y="566" type="curve" smooth="yes"/>
			<point x="372" y="670"/>
			<point x="321" y="741"/>
			<point x="228" y="741" type="curve" smooth="yes"/>
			<point x="112" y="741"/>
			<point x="67" y="644"/>
			<point x="67" y="538" type="curve" smooth="yes"/>
			<point x="67" y="434"/>
			<point x="117" y="362"/>
		</contour>
		<contour>
			<point x="210" y="377" type="curve" smooth="yes"/>
			<point x="143" y="377"/>
			<point x="114" y="427"/>
			<point x="114" y="536" type="curve" smooth="yes"/>
			<point x="114" y="655"/>
			<point x="136" y="726"/>
			<point x="224" y="726" type="curve" smooth="yes"/>
			<point x="300" y="726"/>
			<point x="325" y="680"/>
			<point x="325" y="567" type="curve" smooth="yes"/>
			<point x="325" y="447"/>
			<point x="301" y="377"/>
		</contour>
	</outline>
</glyph>
<glyph name="AE" format="2">
	<unicode hex="00C6"/>
	<advance width="891"/>
	<outline>
		<contour>
			<point x="11" y="0" type="line"/>
			<point x="189" y="0" type="line"/>
			<point x="190" y="10" type="line"/>
			<point x="104" y="21" type="line"/>
			<point x="191" y="266" type="line"/>
			<point x="443" y="266" type="line"/>
			<point x="505" y="21" type="line"/>
			<point x="420" y="10" type="line"/>
			<point x="419" y="0" type="line"/>
			<point x="830" y="0" type="line"/>
			<point x="854" y="165" type="line"/>
			<point x="841" y="165" type="line"/>
			<point x="821" y="98" type="line" smooth="yes"/>
			<point x="801" y="31"/>
			<point x="771" y="18"/>
			<point x="708" y="18" type="curve" smooth="yes"/>
			<point x="555" y="18" type="line"/>
			<point x="463" y="371" type="line"/>
			<point x="708" y="371" type="line"/>
			<point x="710" y="389" type="line"/>
			<point x="458" y="389" type="line"/>
			<point x="374" y="712" type="line"/>
			<point x="623" y="712" type="line" smooth="yes"/>
			<point x="682" y="712"/>
			<point x="705" y="698"/>
			<point x="723" y="637" type="curve" smooth="yes"/>
			<point x="744" y="566" type="line"/>
			<point x="756" y="568" type="line"/>
			<point x="742" y="730" type="line"/>
			<point x="334" y="730" type="line"/>
			<point x="85" y="21" type="line"/>
			<point x="12" y="10" type="line"/>
		</contour>
		<contour>
			<point x="196" y="282" type="line"/>
			<point x="335" y="684" type="line"/>
			<point x="337" y="684" type="line"/>
			<point x="438" y="282" type="line"/>
		</contour>
	</outline>
	<anchor name="top" x="542" y="730"/>
</glyph>
<glyph name="Ccedilla" format="2">
	<unicode hex="00C7"/>
	<advance width="579"/>
	<outline>
		<contour>
			<point x="303" y="-219" type="curve" smooth="yes"/>
			<point x="357" y="-219"/>
			<point x="402" y="-186"/>
			<point x="402" y="-137" type="curve" smooth="yes"/>
			<point x="402" y="-85"/>
			<point x="359" y="-55"/>
			<point x="299" y="-69" type="curve"/>
			<point x="322" y="-14" type="line"/>
			<point x="415" y="-14"/>
			<point x="489" y="26"/>
			<point x="550" y="108" type="curve"/>
			<point x="540" y="115" type="line"/>
			<point x="488" y="49"/>
			<point x="420" y="14"/>
			<point x="342" y="14" type="curve" smooth="yes"/>
			<point x="212" y="14"/>
			<point x="112" y="110"/>
			<point x="113" y="348" type="curve" smooth="yes"/>
			<point x="114" y="602"/>
			<point x="211" y="725"/>
			<point x="358" y="725" type="curve" smooth="yes"/>
			<point x="448" y="725"/>
			<point x="524" y="691"/>
			<point x="490" y="614" type="curve" smooth="yes"/>
			<point x="478" y="587" type="line"/>
			<point x="489" y="577"/>
			<point x="502" y="567"/>
			<point x="522" y="567" type="curve" smooth="yes"/>
			<point x="543" y="567"/>
			<point x="560" y="587"/>
			<point x="560" y="617" type="curve" smooth="yes"/>
			<point x="560" y="696"/>
			<point x="458" y="744"/>
			<point x="359" y="744" type="curve" smooth="yes"/>
			<point x="180" y="744"/>
			<point x="61" y="596"/>
			<point x="60" y="342" type="curve" smooth="yes"/>
			<point x="59" y="124"/>
			<point x="156" y="-4"/>
			<point x="307" y="-13" type="curve"/>
			<point x="280" y="-77" type="line"/>
			<point x="286" y="-84" type="line"/>
			<point x="334" y="-75"/>
			<point x="364" y="-94"/>
			<point x="364" y="-141" type="curve" smooth="yes"/>
			<point x="364" y="-187"/>
			<point x="323" y="-199"/>
			<point x="295" y="-199" type="curve" smooth="yes"/>
			<point x="277" y="-199"/>
			<point x="260" y="-196"/>
			<point x="236" y="-185" type="curve"/>
			<point x="232" y="-192" type="line"/>
			<point x="252" y="-210"/>
			<point x="276" y="-219"/>
		</contour>
	</outline>
</glyph>
<glyph name="Oslash" format="2">
	<unicode hex="00D8"/>
	<advance width="675"/>
	<outline>
		<contour>
			<point x="66" y="-14" type="line"/>
			<point x="89" y="-14" type="line"/>
			<point x="147" y="66" type="line"/>
			<point x="195" y="13"/>
			<point x="261" y="-14"/>
			<point x="339" y="-14" type="curve" smooth="yes"/>
			<point x="520" y="-14"/>
			<point x="631" y="134"/>
			<point x="631" y="395" type="curve" smooth="yes"/>
			<point x="631" y="502"/>
			<point x="607" y="586"/>
			<point x="566" y="644" type="curve"/>
			<point x="638" y="744" type="line"/>
			<point x="615" y="744" type="line"/>
			<point x="554" y="660" type="line"/>
			<point x="507" y="716"/>
			<point x="440" y="745"/>
			<point x="361" y="745" type="curve" smooth="yes"/>
			<point x="177" y="745"/>
			<point x="60" y="603"/>
			<point x="61" y="344" type="curve" smooth="yes"/>
			<point x="61" y="229"/>
			<point x="88" y="141"/>
			<point x="135" y="81" type="curve"/>
		</contour>
		<contour>
			<point x="345" y="5" type="curve" smooth="yes"/>
			<point x="267" y="5"/>
			<point x="207" y="31"/>
			<point x="167" y="93" type="curve"/>
			<point x="544" y="614" type="line"/>
			<point x="568" y="562"/>
			<point x="580" y="488"/>
			<point x="580" y="388" type="curve" smooth="yes"/>
			<point x="579" y="106"/>
			<point x="487" y="5"/>
		</contour>
		<contour>
			<point x="157" y="111" type="line"/>
			<point x="127" y="167"/>
			<point x="112" y="249"/>
			<point x="112" y="361" type="curve" smooth="yes"/>
			<point x="113" y="627"/>
			<point x="211" y="726"/>
			<point x="359" y="726" type="curve" smooth="yes"/>
			<point x="438" y="726"/>
			<point x="497" y="699"/>
			<point x="535" y="633" type="curve"/>
		</contour>
	</outline>
</glyph>
<glyph name="germandbls" format="2">
	<unicode hex="00DF"/>
	<advance width="576"/>
	<outline>
		<contour>
			<point x="370" y="4" type="curve" smooth="yes"/>
			<point x="301" y="4"/>
			<point x="288" y="26"/>
			<point x="291" y="62" type="curve" smooth="yes"/>
			<point x="295" y="105" type="line"/>
			<point x="286" y="110"/>
			<point x="273" y="114"/>
			<point x="262" y="114" type="curve" smooth="yes"/>
			<point x="240" y="114"/>
			<point x="221" y="103"/>
			<point x="221" y="77" type="curve" smooth="yes"/>
			<point x="221" y="26"/>
			<point x="277" y="-14"/>
			<point x="363" y="-14" type="curve" smooth="yes"/>
			<point x="468" y="-14"/>
			<point x="530" y="51"/>
			<point x="530" y="129" type="curve" smooth="yes"/>
			<point x="530" y="289"/>
			<point x="309" y="262"/>
			<point x="309" y="397" type="curve" smooth="yes"/>
			<point x="309" y="493"/>
			<point x="474" y="518"/>
			<point x="474" y="656" type="curve" smooth="yes"/>
			<point x="474" y="745"/>
			<point x="388" y="782"/>
			<point x="318" y="782" type="curve" smooth="yes"/>
			<point x="187" y="782"/>
			<point x="132" y="695"/>
			<point x="125" y="559" type="curve" smooth="yes"/>
			<point x="97" y="-5" type="line" smooth="yes"/>
			<point x="94" y="-62"/>
			<point x="93" y="-96"/>
			<point x="86" y="-141" type="curve" smooth="yes"/>
			<point x="78" y="-190"/>
			<point x="49" y="-211"/>
			<point x="-2" y="-170" type="curve" smooth="yes"/>
			<point x="-26" y="-151" type="line"/>
			<point x="-38" y="-161"/>
			<point x="-44" y="-173"/>
			<point x="-44" y="-191" type="curve" smooth="yes"/>
			<point x="-44" y="-208"/>
			<point x="-31" y="-229"/>
			<point x="5" y="-229" type="curve" smooth="yes"/>
			<point x="34" y="-229"/>
			<point x="66" y="-217"/>
			<point x="90" y="-184" type="curve" smooth="yes"/>
			<point x="126" y="-135"/>
			<point x="142" y="-41"/>
			<point x="149" y="103" type="curve" smooth="yes"/>
			<point x="175" y="602" type="line" smooth="yes"/>
			<point x="181" y="710"/>
			<point x="223" y="764"/>
			<point x="315" y="764" type="curve" smooth="yes"/>
			<point x="374" y="764"/>
			<point x="426" y="739"/>
			<point x="426" y="649" type="curve" smooth="yes"/>
			<point x="426" y="490"/>
			<point x="275" y="499"/>
			<point x="275" y="372" type="curve" smooth="yes"/>
			<point x="275" y="231"/>
			<point x="497" y="260"/>
			<point x="497" y="115" type="curve" smooth="yes"/>
			<point x="497" y="42"/>
			<point x="438" y="4"/>
		</contour>
	</outline>
</glyph>
<glyph name="eth" format="2">
	<unicode hex="00F0"/>
	<advance width="500"/>
	<outline>
		<contour>
			<point x="228" y="-14" type="curve" smooth="yes"/>
			<point x="383" y="-14"/>
			<point x="446" y="126"/>
			<point x="446" y="345" type="curve" smooth="yes"/>
			<point x="446" y="525"/>
			<point x="393" y="615"/>
			<point x="321" y="687" type="curve"/>
			<point x="421" y="753" type="line"/>
			<point x="415" y="763" type="line"/>
			<point x="312" y="696" type="line"/>
			<point x="260" y="735"/>
			<point x="180" y="758"/>
			<point x="120" y="764" type="curve"/>
			<point x="118" y="754" type="line"/>
			<point x="180" y="747"/>
			<point x="248" y="717"/>
			<point x="287" y="681" type="curve"/>
			<point x="184" y="615" type="line"/>
			<point x="191" y="605" type="line"/>
			<point x="296" y="672" type="line"/>
			<point x="352" y="618"/>
			<point x="383" y="528"/>
			<point x="392" y="440" type="curve"/>
			<point x="389" y="440" type="line"/>
			<point x="361" y="496"/>
			<point x="311" y="523"/>
			<point x="253" y="523" type="curve" smooth="yes"/>
			<point x="103" y="523"/>
			<point x="45" y="392"/>
			<point x="45" y="234" type="curve" smooth="yes"/>
			<point x="45" y="87"/>
			<point x="114" y="-14"/>
		</contour>
		<contour>
			<point x="233" y="4" type="curve" smooth="yes"/>
			<point x="146" y="4"/>
			<point x="99" y="82"/>
			<point x="98" y="232" type="curve" smooth="yes"/>
			<point x="97" y="391"/>
			<point x="138" y="505"/>
			<point x="254" y="505" type="curve" smooth="yes"/>
			<point x="353" y="505"/>
			<point x="391" y="427"/>
			<point x="392" y="278" type="curve" smooth="yes"/>
			<point x="393" y="117"/>
			<point x="348" y="4"/>
		</contour>
	</outline>
</glyph>
<glyph name="divide" format="2">
	<unicode hex="00F7"/>
	<advance width="582"/>
	<outline>
		<contour>
			<point x="73" y="295" type="line"/>
			<point x="501" y="295" type="line"/>
			<point x="502" y="312" type="line"/>
			<point x="74" y="312" type="line"/>
		</contour>
		<contour>
			<point x="276" y="122" type="curve" smooth="yes"/>
			<point x="306" y="122"/>
			<point x="328" y="143"/>
			<point x="328" y="170" type="curve" smooth="yes"/>
			<point x="328" y="195"/>
			<point x="309" y="213"/>
			<point x="282" y="213" type="curve" smooth="yes"/>
			<point x="252" y="213"/>
			<point x="231" y="191"/>
			<point x="231" y="163" type="curve" smooth="yes"/>
			<point x="231" y="140"/>
			<point x="250" y="122"/>
		</contour>
		<contour>
			<point x="296" y="395" type="curve" smooth="yes"/>
			<point x="326" y="395"/>
			<point x="348" y="416"/>
			<point x="348" y="443" type="curve" smooth="yes"/>
			<point x="348" y="468"/>
			<point x="329" y="486"/>
			<point x="302" y="486" type="curve" smooth="yes"/>
			<point x="272" y="486"/>
			<point x="251" y="464"/>
			<point x="251" y="436" type="curve" smooth="yes"/>
			<point x="251" y="413"/>
			<point x="270" y="395"/>
		</contour>
	</outline>
</glyph>
<glyph name="thorn" format="2">
	<unicode hex="00FE"/>
	<advance width="521"/>
	<outline>
		<contour>
			<point x="79" y="-228" type="line"/>
			<point x="199" y="-228" type="line"/>
			<point x="200" y="-221" type="line"/>
			<point x="116" y="-203" type="line"/>
			<point x="129" y="14" type="line"/>
			<point x="161" y="-1"/>
			<point x="202" y="-14"/>
			<point x="247" y="-14" type="curve" smooth="yes"/>
			<point x="375" y="-14"/>
			<point x="477" y="111"/>
			<point x="477" y="303" type="curve" smooth="yes"/>
			<point x="477" y="419"/>
			<point x="437" y="523"/>
			<point x="331" y="523" type="curve" smooth="yes"/>
			<point x="246" y="523"/>
			<point x="201" y="446"/>
			<point x="175" y="335" type="curve" smooth="yes"/>
			<point x="143" y="200" type="line"/>
			<point x="141" y="200" type="line"/>
			<point x="153" y="430" type="line"/>
			<point x="167" y="759" type="line"/>
			<point x="159" y="767" type="line"/>
			<point x="36" y="767" type="line"/>
			<point x="35" y="760" type="line"/>
			<point x="119" y="742" type="line"/>
			<point x="89" y="68" type="line"/>
			<point x="71" y="-220" type="line"/>
		</contour>
		<contour>
			<point x="322" y="485" type="curve" smooth="yes"/>
			<point x="390" y="485"/>
			<point x="424" y="423"/>
			<point x="424" y="293" type="curve" smooth="yes"/>
			<point x="424" y="101"/>
			<point x="349" y="4"/>
			<point x="248" y="4" type="curve" smooth="yes"/>
			<point x="198" y="4"/>
			<point x="167" y="14"/>
			<point x="126" y="37" type="curve"/>
			<point x="167" y="222" type="line" smooth="yes"/>
			<point x="214" y="434"/>
			<point x="250" y="485"/>
		</contour>
	</outline>
</glyph>
<glyph name="dcroat" format="2">
	<unicode hex="0111"/>
	<advance width="535"/>
	<outline>
		<contour>
			<point x="191" y="-14" type="curve" smooth="yes"/>
			<point x="282" y="-14"/>
			<point x="323" y="73"/>
			<point x="347" y="174" type="curve" smooth="yes"/>
			<point x="379" y="309" type="line"/>
			<point x="381" y="309" type="line"/>
			<point x="369" y="73" type="line" smooth="yes"/>
			<point x="366" y="16"/>
			<point x="382" y="-14"/>
			<point x="431" y="-14" type="curve" smooth="yes"/>
			<point x="468" y="-14"/>
			<point x="499" y="4"/>
			<point x="524" y="26" type="curve"/>
			<point x="516" y="37" type="line"/>
			<point x="494" y="20"/>
			<point x="469" y="11"/>
			<point x="447" y="11" type="curve" smooth="yes"/>
			<point x="426" y="11"/>
			<point x="417" y="22"/>
			<point x="418" y="59" type="curve" smooth="yes"/>
			<point x="438" y="625" type="line"/>
			<point x="525" y="625" type="line"/>
			<point x="526" y="641" type="line"/>
			<point x="439" y="641" type="line"/>
			<point x="443" y="759" type="line"/>
			<point x="435" y="767" type="line"/>
			<point x="312" y="767" type="line"/>
			<point x="311" y="760" type="line"/>
			<point x="395" y="742" type="line"/>
			<point x="391" y="641" type="line"/>
			<point x="245" y="641" type="line"/>
			<point x="243" y="625" type="line"/>
			<point x="391" y="625" type="line"/>
			<point x="386" y="499" type="line"/>
			<point x="358" y="510"/>
			<point x="322" y="523"/>
			<point x="276" y="523" type="curve" smooth="yes"/>
			<point x="147" y="523"/>
			<point x="44" y="406"/>
			<point x="44" y="206" type="curve" smooth="yes"/>
			<point x="44" y="90"/>
			<point x="85" y="-14"/>
		</contour>
		<contour>
			<point x="200" y="24" type="curve" smooth="yes"/>
			<point x="132" y="24"/>
			<point x="97" y="86"/>
			<point x="97" y="216" type="curve" smooth="yes"/>
			<point x="97" y="408"/>
			<point x="173" y="505"/>
			<point x="273" y="505" type="curve" smooth="yes"/>
			<point x="321" y="505"/>
			<point x="350" y="497"/>
			<point x="396" y="472" type="curve"/>
			<point x="355" y="287" type="line" smooth="yes"/>
			<point x="308" y="74"/>
			<point x="272" y="24"/>
		</contour>
	</outline>
</glyph>
<glyph name="eogonek" format="2">
	<unicode hex="0119"/>
	<advance width="423"/>
	<outline>
		<contour>
			<point x="44" y="223" type="curve" smooth="yes"/>
			<point x="44" y="94"/>
			<point x="96" y="-14"/>
			<point x="217" y="-14" type="curve"/>
			<point x="243" y="-14"/>
			<point x="262" y="-11"/>
			<point x="280" y="-4" type="curve"/>
			<point x="227" y="-40"/>
			<point x="164" y="-90"/>
			<point x="164" y="-153" type="curve" smooth="yes"/>
			<point x="164" y="-196"/>
			<point x="190" y="-224"/>
			<point x="232" y="-224" type="curve" smooth="yes"/>
			<point x="262" y="-224"/>
			<point x="302" y="-214"/>
			<point x="336" y="-156" type="curve"/>
			<point x="327" y="-150" type="line"/>
			<point x="300" y="-182"/>
			<point x="278" y="-190"/>
			<point x="252" y="-190" type="curve" smooth="yes"/>
			<point x="227" y="-190"/>
			<point x="213" y="-177"/>
			<point x="213" y="-144" type="curve" smooth="yes"/>
			<point x="213" y="-78"/>
			<point x="269" y="-29"/>
			<point x="308" y="1" type="curve" smooth="yes"/>
			<point x="339" y="25"/>
			<point x="360" y="46"/>
			<point x="383" y="74" type="curve"/>
			<point x="373" y="82" type="line"/>
			<point x="328" y="26"/>
			<point x="283" y="10"/>
			<point x="233" y="10" type="curve" smooth="yes"/>
			<point x="142" y="10"/>
			<point x="95" y="78"/>
			<point x="97" y="238" type="curve"/>
			<point x="220" y="273" type="line" smooth="yes"/>
			<point x="311" y="299"/>
			<point x="382" y="337"/>
			<point x="382" y="414" type="curve" smooth="yes"/>
			<point x="382" y="479"/>
			<point x="342" y="523"/>
			<point x="259" y="523" type="curve" smooth="yes"/>
			<point x="126" y="523"/>
			<point x="44" y="401"/>
		</contour>
		<contour>
			<point x="97" y="253" type="line"/>
			<point x="102" y="437"/>
			<point x="173" y="505"/>
			<point x="250" y="505" type="curve" smooth="yes"/>
			<point x="302" y="505"/>
			<point x="333" y="480"/>
			<point x="333" y="414" type="curve" smooth="yes"/>
			<point x="333" y="343"/>
			<point x="294" y="312"/>
			<point x="197" y="283" type="curve" smooth="yes"/>
		</contour>
	</outline>
</glyph>
<glyph name="Hbar" format="2">
	<unicode hex="0126"/>
	<advance width="709"/>
	<outline>
		<contour>
			<point x="51" y="0" type="line"/>
			<point x="270" y="0" type="line"/>
			<point x="271" y="10" type="line"/>
			<point x="186" y="22" type="line"/>
			<point x="201" y="366" type="line"/>
			<point x="544" y="366" type="line"/>
			<point x="528" y="23" type="line"/>
			<point x="443" y="10" type="line"/>
			<point x="442" y="0" type="line"/>
			<point x="661" y="0" type="line"/>
			<point x="662" y="10" type="line"/>
			<point x="577" y="22" type="line"/>
			<point x="599" y="549" type="line"/>
			<point x="694" y="549" type="line"/>
			<point x="696" y="567" type="line"/>
			<point x="600" y="567" type="line"/>
			<point x="606" y="707" type="line"/>
			<point x="691" y="720" type="line"/>
			<point x="691" y="730" type="line"/>
			<point x="473" y="730" type="line"/>
			<point x="472" y="720" type="line"/>
			<point x="557" y="707" type="line"/>
			<point x="551" y="567" type="line"/>
			<point x="208" y="567" type="line"/>
			<point x="213" y="707" type="line"/>
			<point x="298" y="719" type="line"/>
			<point x="298" y="730" type="line"/>
			<point x="80" y="730" type="line"/>
			<point x="79" y="718" type="line"/>
			<point x="164" y="707" type="line"/>
			<point x="158" y="567" type="line"/>
			<point x="64" y="567" type="line"/>
			<point x="62" y="549" type="line"/>
			<point x="158" y="549" type="line"/>
			<point x="137" y="23" type="line"/>
			<point x="52" y="10" type="line"/>
		</contour>
		<contour>
			<point x="201" y="384" type="line"/>
			<point x="207" y="549" type="line"/>
			<point x="551" y="549" type="line"/>
			<point x="544" y="384" type="line"/>
		</contour>
	</outline>
</glyph>
<glyph name="Eng" format="2">
	<unicode hex="014A"/>
	<advance width="684"/>
	<outline>
		<contour>
			<point x="51" y="0" type="line"/>
			<point x="252" y="0" type="line"/>
			<point x="253" y="10" type="line"/>
			<point x="156" y="22" type="line"/>
			<point x="181" y="681" type="line"/>
			<point x="511" y="40" type="line"/>
			<point x="507" y="-73"/>
			<point x="476" y="-145"/>
			<point x="410" y="-217" type="curve"/>
			<point x="417" y="-224" type="line"/>
			<point x="517" y="-139"/>
			<point x="555" y="-79"/>
			<point x="560" y="39" type="curve" smooth="yes"/>
			<point x="586" y="707" type="line"/>
			<point x="671" y="720" type="line"/>
			<point x="671" y="730" type="line"/>
			<point x="483" y="730" type="line"/>
			<point x="482" y="720" type="line"/>
			<point x="567" y="707" type="line"/>
			<point x="543" y="77" type="line"/>
			<point x="207" y="730" type="line"/>
			<point x="80" y="730" type="line"/>
			<point x="79" y="718" type="line"/>
			<point x="164" y="707" type="line"/>
			<point x="137" y="23" type="line"/>
			<point x="52" y="10" type="line"/>
		</contour>
	</outline>
</glyph>
<glyph name="eng" format="2">
	<unicode hex="014B"/>
	<advance width="545"/>
	<outline>
		<contour>
			<point x="286" y="-229" type="curve" smooth="yes"/>
			<point x="316" y="-229"/>
			<point x="347" y="-217"/>
			<point x="371" y="-184" type="curve" smooth="yes"/>
			<point x="405" y="-138"/>
			<point x="427" y="-23"/>
			<point x="438" y="122" type="curve" smooth="yes"/>
			<point x="458" y="377" type="line" smooth="yes"/>
			<point x="465" y="462"/>
			<point x="445" y="522"/>
			<point x="363" y="522" type="curve" smooth="yes"/>
			<point x="289" y="522"/>
			<point x="256" y="467"/>
			<point x="224" y="366" type="curve" smooth="yes"/>
			<point x="150" y="133" type="line"/>
			<point x="148" y="133" type="line"/>
			<point x="169" y="430" type="line" smooth="yes"/>
			<point x="173" y="488"/>
			<point x="165" y="523"/>
			<point x="115" y="523" type="curve" smooth="yes"/>
			<point x="79" y="523"/>
			<point x="48" y="508"/>
			<point x="21" y="491" type="curve"/>
			<point x="26" y="481" type="line"/>
			<point x="55" y="496"/>
			<point x="76" y="501"/>
			<point x="92" y="501" type="curve" smooth="yes"/>
			<point x="113" y="501"/>
			<point x="121" y="490"/>
			<point x="120" y="458" type="curve" smooth="yes"/>
			<point x="102" y="0" type="line"/>
			<point x="127" y="0" type="line"/>
			<point x="241" y="358" type="line" smooth="yes"/>
			<point x="277" y="470"/>
			<point x="310" y="488"/>
			<point x="352" y="488" type="curve" smooth="yes"/>
			<point x="396" y="488"/>
			<point x="416" y="460"/>
			<point x="410" y="382" type="curve" smooth="yes"/>
			<point x="369" y="-139" type="line" smooth="yes"/>
			<point x="365" y="-189"/>
			<point x="330" y="-211"/>
			<point x="279" y="-170" type="curve" smooth="yes"/>
			<point x="255" y="-151" type="line"/>
			<point x="243" y="-161"/>
			<point x="237" y="-173"/>
			<point x="237" y="-191" type="curve" smooth="yes"/>
			<point x="237" y="-208"/>
			<point x="250" y="-229"/>
		</contour>
	</outline>
</glyph>
<glyph name="OE" format="2">
	<unicode hex="0152"/>
	<advance width="958"/>
	<outline>
		<contour>
			<point x="61" y="344" type="curve" smooth="yes"/>
			<point x="62" y="109"/>
			<point x="173" y="-14"/>
			<point x="339" y="-14" type="curve" smooth="yes"/>
			<point x="370" y="-14"/>
			<point x="401" y="-9"/>
			<point x="429" y="0" type="curve"/>
			<point x="897" y="0" type="line"/>
			<point x="921" y="165" type="line"/>
			<point x="908" y="165" type="line"/>
			<point x="888" y="98" type="line" smooth="yes"/>
			<point x="868" y="31"/>
			<point x="838" y="18"/>
			<point x="775" y="18" type="curve" smooth="yes"/>
			<point x="470" y="18" type="line"/>
			<point x="581" y="79"/>
			<point x="627" y="219"/>
			<point x="631" y="371" type="curve"/>
			<point x="854" y="371" type="line"/>
			<point x="856" y="389" type="line"/>
			<point x="631" y="389" type="line"/>
			<point x="632" y="529"/>
			<point x="592" y="655"/>
			<point x="492" y="712" type="curve"/>
			<point x="780" y="712" type="line" smooth="yes"/>
			<point x="838" y="712"/>
			<point x="862" y="699"/>
			<point x="880" y="637" type="curve" smooth="yes"/>
			<point x="901" y="566" type="line"/>
			<point x="913" y="568" type="line"/>
			<point x="899" y="730" type="line"/>
			<point x="453" y="730" type="line"/>
			<point x="426" y="740"/>
			<point x="398" y="745"/>
			<point x="361" y="745" type="curve" smooth="yes"/>
			<point x="177" y="745"/>
			<point x="60" y="603"/>
		</contour>
		<contour>
			<point x="112" y="361" type="curve" smooth="yes"/>
			<point x="113" y="615"/>
			<point x="205" y="726"/>
			<point x="359" y="726" type="curve" smooth="yes"/>
			<point x="502" y="726"/>
			<point x="581" y="638"/>
			<point x="580" y="388" type="curve" smooth="yes"/>
			<point x="579" y="106"/>
			<point x="487" y="5"/>
			<point x="345" y="5" type="curve" smooth="yes"/>
			<point x="201" y="5"/>
			<point x="110" y="96"/>
		</contour>
	</outline>
</glyph>
<glyph name="oe" format="2">
	<unicode hex="0153"/>
	<advance width="765"/>
	<outline>
		<contour>
			<point x="601" y="523" type="curve" smooth="yes"/>
			<point x="515" y="523"/>
			<point x="455" y="472"/>
			<point x="423" y="404" type="curve"/>
			<point x="396" y="469"/>
			<point x="342" y="523"/>
			<point x="259" y="523" type="curve" smooth="yes"/>
			<point x="105" y="523"/>
			<point x="45" y="392"/>
			<point x="45" y="234" type="curve" smooth="yes"/>
			<point x="45" y="87"/>
			<point x="114" y="-14"/>
			<point x="228" y="-14" type="curve" smooth="yes"/>
			<point x="318" y="-14"/>
			<point x="374" y="34"/>
			<point x="407" y="97" type="curve"/>
			<point x="427" y="43"/>
			<point x="470" y="-14"/>
			<point x="560" y="-14" type="curve" smooth="yes"/>
			<point x="638" y="-14"/>
			<point x="687" y="25"/>
			<point x="725" y="74" type="curve"/>
			<point x="715" y="82" type="line"/>
			<point x="670" y="26"/>
			<point x="625" y="10"/>
			<point x="575" y="10" type="curve" smooth="yes"/>
			<point x="494" y="10"/>
			<point x="437" y="63"/>
			<point x="439" y="238" type="curve"/>
			<point x="562" y="273" type="line" smooth="yes"/>
			<point x="653" y="299"/>
			<point x="724" y="337"/>
			<point x="724" y="414" type="curve" smooth="yes"/>
			<point x="724" y="479"/>
			<point x="684" y="523"/>
		</contour>
		<contour>
			<point x="233" y="4" type="curve" smooth="yes"/>
			<point x="146" y="4"/>
			<point x="99" y="82"/>
			<point x="98" y="232" type="curve" smooth="yes"/>
			<point x="97" y="392"/>
			<point x="138" y="505"/>
			<point x="254" y="505" type="curve" smooth="yes"/>
			<point x="353" y="505"/>
			<point x="391" y="427"/>
			<point x="392" y="278" type="curve" smooth="yes"/>
			<point x="393" y="117"/>
			<point x="348" y="4"/>
		</contour>
		<contour>
			<point x="675" y="414" type="curve" smooth="yes"/>
			<point x="675" y="340"/>
			<point x="630" y="310"/>
			<point x="539" y="283" type="curve" smooth="yes"/>
			<point x="439" y="253" type="line"/>
			<point x="444" y="437"/>
			<point x="515" y="505"/>
			<point x="592" y="505" type="curve" smooth="yes"/>
			<point x="644" y="505"/>
			<point x="675" y="480"/>
		</contour>
	</outline>
</glyph>
<glyph name="scedilla" format="2">
	<unicode hex="015F"/>
	<advance width="396"/>
	<outline>
		<contour>
			<point x="170" y="-219" type="curve" smooth="yes"/>
			<point x="224" y="-219"/>
			<point x="269" y="-186"/>
			<point x="269" y="-137" type="curve" smooth="yes"/>
			<point x="269" y="-85"/>
			<point x="226" y="-55"/>
			<point x="166" y="-69" type="curve"/>
			<point x="189" y="-14" type="line"/>
			<point x="291" y="-11"/>
			<point x="350" y="53"/>
			<point x="350" y="136" type="curve" smooth="yes"/>
			<point x="350" y="213"/>
			<point x="309" y="246"/>
			<point x="217" y="294" type="curve" smooth="yes"/>
			<point x="155" y="326"/>
			<point x="111" y="349"/>
			<point x="111" y="411" type="curve" smooth="yes"/>
			<point x="111" y="468"/>
			<point x="153" y="505"/>
			<point x="230" y="505" type="curve" smooth="yes"/>
			<point x="300" y="505"/>
			<point x="322" y="472"/>
			<point x="296" y="429" type="curve" smooth="yes"/>
			<point x="285" y="411" type="line"/>
			<point x="293" y="402"/>
			<point x="306" y="393"/>
			<point x="321" y="393" type="curve" smooth="yes"/>
			<point x="344" y="393"/>
			<point x="354" y="412"/>
			<point x="354" y="434" type="curve" smooth="yes"/>
			<point x="354" y="474"/>
			<point x="320" y="523"/>
			<point x="236" y="523" type="curve" smooth="yes"/>
			<point x="112" y="523"/>
			<point x="78" y="448"/>
			<point x="78" y="391" type="curve" smooth="yes"/>
			<point x="78" y="319"/>
			<point x="126" y="284"/>
			<point x="204" y="246" type="curve" smooth="yes"/>
			<point x="288" y="205"/>
			<point x="317" y="175"/>
			<point x="317" y="118" type="curve" smooth="yes"/>
			<point x="317" y="43"/>
			<point x="258" y="4"/>
			<point x="190" y="4" type="curve" smooth="yes"/>
			<point x="117" y="4"/>
			<point x="107" y="28"/>
			<point x="111" y="62" type="curve" smooth="yes"/>
			<point x="115" y="99" type="line"/>
			<point x="106" y="104"/>
			<point x="93" y="108"/>
			<point x="82" y="108" type="curve" smooth="yes"/>
			<point x="60" y="108"/>
			<point x="41" y="95"/>
			<point x="41" y="71" type="curve" smooth="yes"/>
			<point x="41" y="22"/>
			<point x="93" y="-11"/>
			<point x="174" y="-14" type="curve"/>
			<point x="147" y="-77" type="line"/>
			<point x="153" y="-84" type="line"/>
			<point x="201" y="-75"/>
			<point x="231" y="-94"/>
			<point x="231" y="-141" type="curve" smooth="yes"/>
			<point x="231" y="-187"/>
			<point x="190" y="-199"/>
			<point x="162" y="-199" type="curve" smooth="yes"/>
			<point x="144" y="-199"/>
			<point x="127" y="-196"/>
			<point x="103" y="-185" type="curve"/>
			<point x="99" y="-192" type="line"/>
			<point x="119" y="-210"/>
			<point x="143" y="-219"/>
		</contour>
	</outline>
</glyph>
<glyph name="Schwa" format="2">
	<unicode hex="018F"/>
	<advance width="617"/>
	<outline>
		<contour>
			<point x="263" y="-14" type="curve" smooth="yes"/>
			<point x="461" y="-14"/>
			<point x="573" y="136"/>
			<point x="573" y="382" type="curve" smooth="yes"/>
			<point x="573" y="603"/>
			<point x="489" y="744"/>
			<point x="315" y="744" type="curve" smooth="yes"/>
			<point x="222" y="744"/>
			<point x="140" y="702"/>
			<point x="73" y="603" type="curve"/>
			<point x="85" y="593" type="line"/>
			<point x="145" y="671"/>
			<point x="214" y="725"/>
			<point x="314" y="725" type="curve" smooth="yes"/>
			<point x="447" y="725"/>
			<point x="523" y="602"/>
			<point x="522" y="348" type="curve"/>
			<point x="77" y="348" type="line"/>
			<point x="62" y="301"/>
			<point x="56" y="266"/>
			<point x="56" y="222" type="curve" smooth="yes"/>
			<point x="56" y="77"/>
			<point x="122" y="-14"/>
		</contour>
		<contour>
			<point x="273" y="5" type="curve" smooth="yes"/>
			<point x="161" y="5"/>
			<point x="106" y="91"/>
			<point x="106" y="210" type="curve" smooth="yes"/>
			<point x="106" y="247"/>
			<point x="113" y="296"/>
			<point x="119" y="327" type="curve"/>
			<point x="521" y="327" type="line"/>
			<point x="501" y="73"/>
			<point x="381" y="5"/>
		</contour>
	</outline>
</glyph>
<glyph name="uhorn" format="2">
	<unicode hex="01B0"/>
	<advance width="589"/>
	<outline>
		<contour>
			<point x="194" y="-14" type="curve" smooth="yes"/>
			<point x="260" y="-14"/>
			<point x="296" y="27"/>
			<point x="333" y="143" type="curve" smooth="yes"/>
			<point x="407" y="376" type="line"/>
			<point x="409" y="376" type="line"/>
			<point x="388" y="79" type="line" smooth="yes"/>
			<point x="384" y="21"/>
			<point x="393" y="-14"/>
			<point x="442" y="-14" type="curve" smooth="yes"/>
			<point x="478" y="-14"/>
			<point x="509" y="1"/>
			<point x="536" y="18" type="curve"/>
			<point x="531" y="28" type="line"/>
			<point x="502" y="13"/>
			<point x="481" y="8"/>
			<point x="465" y="8" type="curve" smooth="yes"/>
			<point x="444" y="8"/>
			<point x="436" y="19"/>
			<point x="437" y="51" type="curve" smooth="yes"/>
			<point x="450" y="382" type="line"/>
			<point x="567" y="420"/>
			<point x="600" y="497"/>
			<point x="600" y="586" type="curve" smooth="yes"/>
			<point x="600" y="625"/>
			<point x="581" y="653"/>
			<point x="547" y="653" type="curve" smooth="yes"/>
			<point x="516" y="653"/>
			<point x="500" y="634"/>
			<point x="500" y="607" type="curve" smooth="yes"/>
			<point x="500" y="595"/>
			<point x="505" y="581"/>
			<point x="511" y="573" type="curve"/>
			<point x="554" y="564" type="line" smooth="yes"/>
			<point x="568" y="561"/>
			<point x="570" y="558"/>
			<point x="570" y="545" type="curve" smooth="yes"/>
			<point x="570" y="498"/>
			<point x="553" y="433"/>
			<point x="451" y="397" type="curve"/>
			<point x="455" y="509" type="line"/>
			<point x="430" y="509" type="line"/>
			<point x="316" y="151" type="line" smooth="yes"/>
			<point x="280" y="39"/>
			<point x="247" y="20"/>
			<point x="205" y="20" type="curve" smooth="yes"/>
			<point x="162" y="20"/>
			<point x="141" y="48"/>
			<point x="147" y="126" type="curve" smooth="yes"/>
			<point x="172" y="446" type="line" smooth="yes"/>
			<point x="176" y="500"/>
			<point x="156" y="523"/>
			<point x="116" y="523" type="curve" smooth="yes"/>
			<point x="79" y="523"/>
			<point x="46" y="505"/>
			<point x="24" y="487" type="curve"/>
			<point x="30" y="478" type="line"/>
			<point x="52" y="491"/>
			<point x="73" y="497"/>
			<point x="96" y="497" type="curve" smooth="yes"/>
			<point x="119" y="497"/>
			<point x="126" y="483"/>
			<point x="124" y="453" type="curve" smooth="yes"/>
			<point x="99" y="132" type="line" smooth="yes"/>
			<point x="92" y="47"/>
			<point x="112" y="-14"/>
		</contour>
	</outline>
</glyph>
<glyph name="Oogonek" format="2">
	<unicode hex="01EA"/>
	<advance width="675"/>
	<outline>
		<contour>
			<point x="341" y="-224" type="curve" smooth="yes"/>
			<point x="371" y="-224"/>
			<point x="411" y="-214"/>
			<point x="445" y="-156" type="curve"/>
			<point x="436" y="-150" type="line"/>
			<point x="409" y="-182"/>
			<point x="387" y="-190"/>
			<point x="361" y="-190" type="curve" smooth="yes"/>
			<point x="336" y="-190"/>
			<point x="322" y="-177"/>
			<point x="322" y="-144" type="curve" smooth="yes"/>
			<point x="322" y="-88"/>
			<point x="360" y="-48"/>
			<point x="406" y="-7" type="curve"/>
			<point x="547" y="26"/>
			<point x="631" y="168"/>
			<point x="631" y="395" type="curve" smooth="yes"/>
			<point x="631" y="625"/>
			<point x="523" y="745"/>
			<point x="361" y="745" type="curve" smooth="yes"/>
			<point x="177" y="745"/>
			<point x="60" y="603"/>
			<point x="61" y="344" type="curve" smooth="yes"/>
			<point x="62" y="109"/>
			<point x="173" y="-14"/>
			<point x="339" y="-14" type="curve" smooth="yes"/>
			<point x="352" y="-14"/>
			<point x="365" y="-13"/>
			<point x="377" y="-12" type="curve"/>
			<point x="323" y="-49"/>
			<point x="273" y="-99"/>
			<point x="273" y="-153" type="curve" smooth="yes"/>
			<point x="273" y="-196"/>
			<point x="299" y="-224"/>
		</contour>
		<contour>
			<point x="345" y="5" type="curve" smooth="yes"/>
			<point x="197" y="5"/>
			<point x="111" y="99"/>
			<point x="112" y="361" type="curve" smooth="yes"/>
			<point x="113" y="627"/>
			<point x="211" y="726"/>
			<point x="359" y="726" type="curve" smooth="yes"/>
			<point x="502" y="726"/>
			<point x="581" y="638"/>
			<point x="580" y="388" type="curve" smooth="yes"/>
			<point x="579" y="106"/>
			<point x="487" y="5"/>
		</contour>
	</outline>
</glyph>
<glyph name="Aringacute" format="2">
	<unicode hex="01FA"/>
	<advance width="644"/>
	<outline>
		<contour>
			<point x="11" y="0" type="line"/>
			<point x="189" y="0" type="line"/>
			<point x="190" y="10" type="line"/>
			<point x="104" y="21" type="line"/>
			<point x="191" y="266" type="line"/>
			<point x="443" y="266" type="line"/>
			<point x="505" y="21" type="line"/>
			<point x="420" y="10" type="line"/>
			<point x="419" y="0" type="line"/>
			<point x="633" y="0" type="line"/>
			<point x="634" y="10" type="line"/>
			<point x="554" y="21" type="line"/>
			<point x="372" y="718" type="line"/>
			<point x="416" y="727"/>
			<point x="443" y="763"/>
			<point x="443" y="818" type="curve" smooth="yes"/>
			<point x="443" y="877"/>
			<point x="415" y="908"/>
			<point x="357" y="908" type="curve" smooth="yes"/>
			<point x="299" y="908"/>
			<point x="263" y="867"/>
			<point x="263" y="809" type="curve" smooth="yes"/>
			<point x="263" y="757"/>
			<point x="280" y="724"/>
			<point x="329" y="717" type="curve"/>
			<point x="85" y="21" type="line"/>
			<point x="12" y="10" type="line"/>
		</contour>
		<contour>
			<point x="196" y="282" type="line"/>
			<point x="335" y="684" type="line"/>
			<point x="337" y="684" type="line"/>
			<point x="438" y="282" type="line"/>
		</contour>
		<contour>
			<point x="352" y="732" type="curve" smooth="yes"/>
			<point x="311" y="732"/>
			<point x="303" y="757"/>
			<point x="303" y="811" type="curve" smooth="yes"/>
			<point x="303" y="863"/>
			<point x="319" y="892"/>
			<point x="354" y="892" type="curve" smooth="yes"/>
			<point x="390" y="892"/>
			<point x="403" y="872"/>
			<point x="403" y="814" type="curve" smooth="yes"/>
			<point x="403" y="766"/>
			<point x="388" y="732"/>
		</contour>
		<contour>
			<point x="269" y="947" type="line"/>
			<point x="444" y="1032" type="line"/>
			<point x="448" y="1042"/>
			<point x="450" y="1054"/>
			<point x="450" y="1061" type="curve" smooth="yes"/>
			<point x="450" y="1070"/>
			<point x="444" y="1083"/>
			<point x="426" y="1083" type="curve" smooth="yes"/>
			<point x="415" y="1083"/>
			<point x="403" y="1075"/>
			<point x="391" y="1065" type="curve" smooth="yes"/>
			<point x="263" y="956" type="line"/>
		</contour>
	</outline>
</glyph>
<glyph name="jdotless" format="2">
	<unicode hex="0237"/>
	<advance width="258"/>
	<outline>
		<contour>
			<point x="158" y="121" type="curve" smooth="yes"/>
			<point x="169" y="423" type="line" smooth="yes"/>
			<point x="171" y="491"/>
			<point x="169" y="523"/>
			<point x="121" y="523" type="curve" smooth="yes"/>
			<point x="86" y="523"/>
			<point x="61" y="512"/>
			<point x="27" y="491" type="curve"/>
			<point x="32" y="481" type="line"/>
			<point x="61" y="495"/>
			<point x="79" y="501"/>
			<point x="98" y="501" type="curve" smooth="yes"/>
			<point x="123" y="501"/>
			<point x="126" y="483"/>
			<point x="125" y="446" type="curve" smooth="yes"/>
			<point x="106" y="-31" type="line" smooth="yes"/>
			<point x="104" y="-82"/>
			<point x="101" y="-109"/>
			<point x="98" y="-141" type="curve" smooth="yes"/>
			<point x="94" y="-190"/>
			<point x="61" y="-211"/>
			<point x="10" y="-170" type="curve" smooth="yes"/>
			<point x="-14" y="-151" type="line"/>
			<point x="-26" y="-161"/>
			<point x="-32" y="-173"/>
			<point x="-32" y="-191" type="curve" smooth="yes"/>
			<point x="-32" y="-208"/>
			<point x="-19" y="-229"/>
			<point x="17" y="-229" type="curve" smooth="yes"/>
			<point x="46" y="-229"/>
			<point x="78" y="-217"/>
			<point x="102" y="-184" type="curve" smooth="yes"/>
			<point x="136" y="-138"/>
			<point x="153" y="-23"/>
		</contour>
	</outline>
	<anchor name="top" x="117" y="550"/>
</glyph>
<glyph name="circumflex" format="2">
	<unicode hex="02C6"/>
	<advance width="500"/>
	<outline>
		<contour>
			<point x="409" y="594" type="line"/>
			<point x="299" y="745" type="line"/>
			<point x="293" y="749"/>
			<point x="283" y="752"/>
			<point x="276" y="752" type="curve" smooth="yes"/>
			<point x="261" y="752"/>
			<point x="251" y="743"/>
			<point x="240" y="729" type="curve" smooth="yes"/>
			<point x="135" y="594" type="line"/>
			<point x="141" y="587" type="line"/>
			<point x="274" y="695" type="line"/>
			<point x="403" y="587" type="line"/>
		</contour>
	</outline>
	<anchor name="_top" x="269" y="550"/>
</glyph>
<glyph name="caron" format="2">
	<unicode hex="02C7"/>
	<advance width="499"/>
	<outline>
		<contour>
			<point x="135" y="750" type="line"/>
			<point x="245" y="599" type="line"/>
			<point x="251" y="595"/>
			<point x="261" y="592"/>
			<point x="268" y="592" type="curve" smooth="yes"/>
			<point x="283" y="592"/>
			<point x="293" y="601"/>
			<point x="304" y="615" type="curve" smooth="yes"/>
			<point x="409" y="750" type="line"/>
			<point x="403" y="757" type="line"/>
			<point x="270" y="649" type="line"/>
			<point x="141" y="757" type="line"/>
		</contour>
	</outline>
	<anchor name="_top" x="269" y="550"/>
</glyph>
<glyph name="ring" format="2">
	<unicode hex="02DA"/>
	<advance width="502"/>
	<outline>
		<contour>
			<point x="271" y="585" type="curve" smooth="yes"/>
			<point x="328" y="585"/>
			<point x="365" y="623"/>
			<point x="365" y="687" type="curve" smooth="yes"/>
			<point x="365" y="746"/>
			<point x="337" y="777"/>
			<point x="279" y="777" type="curve" smooth="yes"/>
			<point x="221" y="777"/>
			<point x="185" y="736"/>
			<point x="185" y="678" type="curve" smooth="yes"/>
			<point x="185" y="619"/>
			<point x="207" y="585"/>
		</contour>
		<contour>
			<point x="274" y="601" type="curve" smooth="yes"/>
			<point x="233" y="601"/>
			<point x="225" y="626"/>
			<point x="225" y="680" type="curve" smooth="yes"/>
			<point x="225" y="732"/>
			<point x="241" y="761"/>
			<point x="276" y="761" type="curve" smooth="yes"/>
			<point x="312" y="761"/>
			<point x="325" y="741"/>
			<point x="325" y="683" type="curve" smooth="yes"/>
			<point x="325" y="635"/>
			<point x="310" y="601"/>
		</contour>
	</outline>
	<anchor name="_top" x="269" y="550"/>
</glyph>
<glyph name="hungarumlaut" format="2">
	<unicode hex="02DD"/>
	<advance width="496"/>
	<outline>
		<contour>
			<point x="398" y="720" type="curve" smooth="yes"/>
			<point x="310" y="588" type="line"/>
			<point x="317" y="582" type="line"/>
			<point x="466" y="707" type="line"/>
			<point x="472" y="737"/>
			<point x="459" y="753"/>
			<point x="442" y="753" type="curve" smooth="yes"/>
			<point x="427" y="753"/>
			<point x="417" y="748"/>
		</contour>
		<contour>
			<point x="265" y="721" type="curve" smooth="yes"/>
			<point x="182" y="588" type="line"/>
			<point x="189" y="582" type="line"/>
			<point x="332" y="709" type="line"/>
			<point x="338" y="739"/>
			<point x="326" y="755"/>
			<point x="309" y="755" type="curve" smooth="yes"/>
			<point x="293" y="755"/>
			<point x="283" y="750"/>
		</contour>
	</outline>
	<anchor name="_top" x="269" y="550"/>
</glyph>
<glyph name="hookabovecomb" format="2">
	<unicode hex="0309"/>
	<outline>
		<contour>
			<point x="21" y="786" type="curve" smooth="yes"/>
			<point x="55" y="786"/>
			<point x="78" y="769"/>
			<point x="78" y="734" type="curve" smooth="yes"/>
			<point x="78" y="675"/>
			<point x="-5" y="670"/>
			<point x="-8" y="615" type="curve" smooth="yes"/>
			<point x="-10" y="577" type="line"/>
			<point x="28" y="577" type="line"/>
			<point x="29" y="605" type="line" smooth="yes"/>
			<point x="30" y="646"/>
			<point x="116" y="660"/>
			<point x="116" y="723" type="curve" smooth="yes"/>
			<point x="116" y="781"/>
			<point x="68" y="801"/>
			<point x="27" y="801" type="curve" smooth="yes"/>
			<point x="-29" y="801"/>
			<point x="-74" y="771"/>
			<point x="-74" y="725" type="curve" smooth="yes"/>
			<point x="-74" y="703"/>
			<point x="-62" y="691"/>
			<point x="-46" y="691" type="curve" smooth="yes"/>
			<point x="-27" y="691"/>
			<point x="-12" y="703"/>
			<point x="-18" y="734" type="curve"/>
			<point x="-35" y="743" type="line" smooth="yes"/>
			<point x="-41" y="746"/>
			<point x="-43" y="749"/>
			<point x="-43" y="755" type="curve" smooth="yes"/>
			<point x="-43" y="769"/>
			<point x="-18" y="786"/>
		</contour>
	</outline>
	<anchor name="_top" x="8" y="550"/>
</glyph>
<glyph name="commaturnedabovecomb" format="2">
	<unicode hex="0312"/>
	<outline>
		<contour>
			<point x="46" y="791" type="line"/>
			<point x="-22" y="744"/>
			<point x="-35" y="695"/>
			<point x="-35" y="652" type="curve" smooth="yes"/>
			<point x="-35" y="615"/>
			<point x="-17" y="590"/>
			<point x="12" y="590" type="curve" smooth="yes"/>
			<point x="48" y="590"/>
			<point x="61" y="627"/>
			<point x="43" y="659" type="curve"/>
			<point x="15" y="669" type="line" smooth="yes"/>
			<point x="4" y="673"/>
			<point x="1" y="678"/>
			<point x="1" y="686" type="curve" smooth="yes"/>
			<point x="1" y="712"/>
			<point x="10" y="747"/>
			<point x="54" y="780" type="curve"/>
		</contour>
	</outline>
	<anchor name="_top" x="10" y="550"/>
</glyph>
<glyph name="horncomb" format="2">
	<unicode hex="031B"/>
	<outline>
		<contour>
			<point x="-95" y="396" type="curve"/>
			<point x="-96" y="381" type="line"/>
			<point x="24" y="418"/>
			<point x="58" y="496"/>
			<point x="58" y="586" type="curve" smooth="yes"/>
			<point x="58" y="625"/>
			<point x="39" y="653"/>
			<point x="5" y="653" type="curve" smooth="yes"/>
			<point x="-26" y="653"/>
			<point x="-42" y="634"/>
			<point x="-42" y="607" type="curve" smooth="yes"/>
			<point x="-42" y="595"/>
			<point x="-37" y="581"/>
			<point x="-31" y="573" type="curve"/>
			<point x="12" y="564" type="line" smooth="yes"/>
			<point x="26" y="561"/>
			<point x="28" y="558"/>
			<point x="28" y="545" type="curve" smooth="yes"/>
			<point x="28" y="497"/>
			<point x="11" y="431"/>
		</contour>
	</outline>
</glyph>
<glyph name="dieresistonos" format="2">
	<unicode hex="0385"/>
	<advance width="581"/>
	<outline>
		<contour>
			<point x="268" y="583" type="line"/>
			<point x="379" y="755" type="line"/>
			<point x="379" y="759" type="line"/>
			<point x="365" y="773"/>
			<point x="352" y="779"/>
			<point x="341" y="779" type="curve" smooth="yes"/>
			<point x="325" y="779"/>
			<point x="319" y="771"/>
			<point x="312" y="749" type="curve" smooth="yes"/>
			<point x="260" y="586" type="line"/>
		</contour>
		<contour>
			<point x="189" y="628" type="curve" smooth="yes"/>
			<point x="213" y="628"/>
			<point x="228" y="650"/>
			<point x="228" y="676" type="curve" smooth="yes"/>
			<point x="228" y="706"/>
			<point x="213" y="718"/>
			<point x="192" y="718" type="curve" smooth="yes"/>
			<point x="167" y="718"/>
			<point x="151" y="698"/>
			<point x="151" y="670" type="curve" smooth="yes"/>
			<point x="151" y="642"/>
			<point x="167" y="628"/>
		</contour>
		<contour>
			<point x="435" y="628" type="curve" smooth="yes"/>
			<point x="459" y="628"/>
			<point x="475" y="650"/>
			<point x="475" y="676" type="curve" smooth="yes"/>
			<point x="475" y="705"/>
			<point x="460" y="718"/>
			<point x="438" y="718" type="curve" smooth="yes"/>
			<point x="413" y="718"/>
			<point x="398" y="698"/>
			<point x="398" y="670" type="curve" smooth="yes"/>
			<point x="398" y="642"/>
			<point x="414" y="628"/>
		</contour>
	</outline>
	<anchor name="_top" x="264" y="550"/>
</glyph>
<glyph name="Gamma" format="2">
	<unicode hex="0393"/>
	<advance width="507"/>
	<outline>
		<contour>
			<point x="51" y="0" type="line"/>
			<point x="298" y="0" type="line"/>
			<point x="299" y="9" type="line"/>
			<point x="186" y="22" type="line"/>
			<point x="213" y="712" type="line"/>
			<point x="350" y="712" type="line" smooth="yes"/>
			<point x="404" y="712"/>
			<point x="430" y="704"/>
			<point x="450" y="637" type="curve" smooth="yes"/>
			<point x="471" y="566" type="line"/>
			<point x="483" y="568" type="line"/>
			<point x="469" y="730" type="line"/>
			<point x="80" y="730" type="line"/>
			<point x="79" y="720" type="line"/>
			<point x="164" y="709" type="line"/>
			<point x="137" y="21" type="line"/>
			<point x="52" y="10" type="line"/>
		</contour>
	</outline>
</glyph>
<glyph name="Lambda" format="2">
	<unicode hex="039B"/>
	<advance width="624"/>
	<outline>
		<contour>
			<point x="11" y="0" type="line"/>
			<point x="189" y="0" type="line"/>
			<point x="190" y="10" type="line"/>
			<point x="104" y="21" type="line"/>
			<point x="325" y="684" type="line"/>
			<point x="327" y="684" type="line"/>
			<point x="485" y="21" type="line"/>
			<point x="400" y="10" type="line"/>
			<point x="399" y="0" type="line"/>
			<point x="613" y="0" type="line"/>
			<point x="614" y="10" type="line"/>
			<point x="534" y="21" type="line"/>
			<point x="359" y="731" type="line"/>
			<point x="323" y="728" type="line"/>
			<point x="85" y="21" type="line"/>
			<point x="12" y="10" type="line"/>
		</contour>
	</outline>
</glyph>
<glyph name="Xi" format="2">
	<unicode hex="039E"/>
	<advance width="565"/>
	<outline>
		<contour>
			<point x="35" y="0" type="line"/>
			<point x="503" y="0" type="line"/>
			<point x="528" y="173" type="line"/>
			<point x="515" y="173" type="line"/>
			<point x="505" y="143" type="line" smooth="yes"/>
			<point x="474" y="50"/>
			<point x="452" y="36"/>
			<point x="343" y="36" type="curve" smooth="yes"/>
			<point x="196" y="36" type="line" smooth="yes"/>
			<point x="90" y="36"/>
			<point x="70" y="51"/>
			<point x="52" y="135" type="curve" smooth="yes"/>
			<point x="44" y="173" type="line"/>
			<point x="31" y="173" type="line"/>
		</contour>
		<contour>
			<point x="126" y="345" type="line"/>
			<point x="451" y="345" type="line"/>
			<point x="454" y="373" type="line"/>
			<point x="129" y="373" type="line"/>
		</contour>
		<contour>
			<point x="87" y="566" type="line"/>
			<point x="97" y="589" type="line" smooth="yes"/>
			<point x="136" y="679"/>
			<point x="158" y="694"/>
			<point x="269" y="694" type="curve" smooth="yes"/>
			<point x="360" y="694" type="line" smooth="yes"/>
			<point x="472" y="695"/>
			<point x="490" y="678"/>
			<point x="516" y="587" type="curve" smooth="yes"/>
			<point x="522" y="566" type="line"/>
			<point x="534" y="568" type="line"/>
			<point x="520" y="730" type="line"/>
			<point x="114" y="730" type="line"/>
			<point x="75" y="568" type="line"/>
		</contour>
	</outline>
</glyph>
<glyph name="Sigma" format="2">
	<unicode hex="03A3"/>
	<advance width="584"/>
	<outline>
		<contour>
			<point x="50" y="0" type="line"/>
			<point x="516" y="0" type="line"/>
			<point x="545" y="165" type="line"/>
			<point x="532" y="165" type="line"/>
			<point x="521" y="135" type="line" smooth="yes"/>
			<point x="497" y="69"/>
			<point x="455" y="26"/>
			<point x="380" y="26" type="curve" smooth="yes"/>
			<point x="74" y="26" type="line"/>
			<point x="101" y="15" type="line"/>
			<point x="346" y="382" type="line"/>
			<point x="347" y="391" type="line"/>
			<point x="167" y="712" type="line"/>
			<point x="410" y="712" type="line" smooth="yes"/>
			<point x="494" y="712"/>
			<point x="510" y="703"/>
			<point x="541" y="580" type="curve" smooth="yes"/>
			<point x="545" y="564" type="line"/>
			<point x="557" y="566" type="line"/>
			<point x="534" y="730" type="line"/>
			<point x="97" y="730" type="line"/>
			<point x="96" y="714" type="line"/>
			<point x="289" y="367" type="line"/>
			<point x="51" y="15" type="line"/>
		</contour>
	</outline>
</glyph>
<glyph name="Phi" format="2">
	<unicode hex="03A6"/>
	<advance width="730"/>
	<outline>
		<contour>
			<point x="251" y="-22" type="line"/>
			<point x="468" y="-22" type="line"/>
			<point x="469" y="-12" type="line"/>
			<point x="386" y="0" type="line"/>
			<point x="389" y="68" type="line"/>
			<point x="584" y="73"/>
			<point x="678" y="204"/>
			<point x="686" y="381" type="curve" smooth="yes"/>
			<point x="693" y="546"/>
			<point x="607" y="652"/>
			<point x="412" y="666" type="curve"/>
			<point x="414" y="727" type="line"/>
			<point x="499" y="739" type="line"/>
			<point x="499" y="750" type="line"/>
			<point x="281" y="750" type="line"/>
			<point x="280" y="738" type="line"/>
			<point x="365" y="727" type="line"/>
			<point x="363" y="665" type="line"/>
			<point x="161" y="658"/>
			<point x="67" y="535"/>
			<point x="61" y="365" type="curve" smooth="yes"/>
			<point x="55" y="189"/>
			<point x="141" y="79"/>
			<point x="340" y="67" type="curve"/>
			<point x="337" y="1" type="line"/>
			<point x="252" y="-12" type="line"/>
		</contour>
		<contour>
			<point x="340" y="86" type="line"/>
			<point x="187" y="98"/>
			<point x="106" y="200"/>
			<point x="112" y="374" type="curve" smooth="yes"/>
			<point x="118" y="559"/>
			<point x="220" y="639"/>
			<point x="362" y="646" type="curve"/>
		</contour>
		<contour>
			<point x="389" y="85" type="curve"/>
			<point x="411" y="645" type="line"/>
			<point x="559" y="634"/>
			<point x="641" y="539"/>
			<point x="635" y="363" type="curve" smooth="yes"/>
			<point x="629" y="175"/>
			<point x="533" y="93"/>
		</contour>
	</outline>
</glyph>
<glyph name="Psi" format="2">
	<unicode hex="03A8"/>
	<advance width="803"/>
	<outline>
		<contour>
			<point x="278" y="0" type="line"/>
			<point x="495" y="0" type="line"/>
			<point x="496" y="10" type="line"/>
			<point x="413" y="22" type="line"/>
			<point x="420" y="198" type="line"/>
			<point x="590" y="210"/>
			<point x="649" y="271"/>
			<point x="660" y="438" type="curve" smooth="yes"/>
			<point x="677" y="707" type="line"/>
			<point x="764" y="718" type="line"/>
			<point x="764" y="730" type="line"/>
			<point x="630" y="730" type="line"/>
			<point x="612" y="442" type="line" smooth="yes"/>
			<point x="603" y="300"/>
			<point x="564" y="227"/>
			<point x="421" y="216" type="curve"/>
			<point x="440" y="707" type="line"/>
			<point x="525" y="719" type="line"/>
			<point x="525" y="730" type="line"/>
			<point x="307" y="730" type="line"/>
			<point x="306" y="718" type="line"/>
			<point x="391" y="707" type="line"/>
			<point x="372" y="216" type="line"/>
			<point x="229" y="227"/>
			<point x="188" y="300"/>
			<point x="194" y="442" type="curve" smooth="yes"/>
			<point x="206" y="730" type="line"/>
			<point x="72" y="730" type="line"/>
			<point x="71" y="718" type="line"/>
			<point x="156" y="707" type="line"/>
			<point x="145" y="438" type="line" smooth="yes"/>
			<point x="138" y="271"/>
			<point x="202" y="210"/>
			<point x="372" y="198" type="curve"/>
			<point x="364" y="23" type="line"/>
			<point x="279" y="10" type="line"/>
		</contour>
	</outline>
</glyph>
<glyph name="Omega" format="2">
	<unicode hex="03A9"/>
	<advance width="697"/>
	<outline>
		<contour>
			<point x="43" y="0" type="line"/>
			<point x="278" y="0" type="line"/>
			<point x="283" y="117" type="line"/>
			<point x="153" y="165"/>
			<point x="121" y="285"/>
			<point x="117" y="407" type="curve" smooth="yes"/>
			<point x="112" y="569"/>
			<point x="187" y="726"/>
			<point x="357" y="726" type="curve" smooth="yes"/>
			<point x="525" y="726"/>
			<point x="590" y="569"/>
			<point x="584" y="408" type="curve" smooth="yes"/>
			<point x="579" y="284"/>
			<point x="550" y="161"/>
			<point x="405" y="113" type="curve"/>
			<point x="400" y="0" type="line"/>
			<point x="639" y="0" type="line"/>
			<point x="665" y="174" type="line"/>
			<point x="652" y="174" type="line"/>
			<point x="639" y="135" type="line" smooth="yes"/>
			<point x="606" y="35"/>
			<point x="582" y="25"/>
			<point x="520" y="25" type="curve" smooth="yes"/>
			<point x="424" y="25" type="line"/>
			<point x="427" y="101" type="line"/>
			<point x="569" y="158"/>
			<point x="631" y="280"/>
			<point x="635" y="411" type="curve" smooth="yes"/>
			<point x="641" y="602"/>
			<point x="545" y="744"/>
			<point x="364" y="744" type="curve" smooth="yes"/>
			<point x="180" y="744"/>
			<point x="63" y="591"/>
			<point x="66" y="400" type="curve" smooth="yes"/>
			<point x="68" y="269"/>
			<point x="128" y="150"/>
			<point x="260" y="102" type="curve"/>
			<point x="257" y="25" type="line"/>
			<point x="159" y="25" type="line" smooth="yes"/>
			<point x="107" y="25"/>
			<point x="73" y="34"/>
			<point x="46" y="145" type="curve" smooth="yes"/>
			<point x="39" y="174" type="line"/>
			<point x="26" y="174" type="line"/>
		</contour>
	</outline>
	<anchor name="bottom" x="344" y="-45"/>
	<anchor name="side" x="715" y="217"/>
	<anchor name="topleft" x="43" y="730"/>
</glyph>
<glyph name="alpha" format="2">
	<unicode hex="03B1"/>
	<advance width="593"/>
	<outline>
		<contour>
			<point x="216" y="-14" type="curve" smooth="yes"/>
			<point x="300" y="-14"/>
			<point x="345" y="63"/>
			<point x="379" y="148" type="curve"/>
			<point x="380" y="148" type="line"/>
			<point x="390" y="32"/>
			<point x="408" y="-14"/>
			<point x="474" y="-14" type="curve" smooth="yes"/>
			<point x="514" y="-14"/>
			<point x="546" y="10"/>
			<point x="565" y="26" type="curve"/>
			<point x="557" y="37" type="line"/>
			<point x="533" y="19"/>
			<point x="514" y="11"/>
			<point x="492" y="11" type="curve" smooth="yes"/>
			<point x="458" y="11"/>
			<point x="450" y="35"/>
			<point x="436" y="148" type="curve" smooth="yes"/>
			<point x="426" y="228" type="line"/>
			<point x="468" y="327"/>
			<point x="504" y="416"/>
			<point x="541" y="514" type="curve"/>
			<point x="533" y="518" type="line"/>
			<point x="482" y="511" type="line"/>
			<point x="470" y="464"/>
			<point x="454" y="404"/>
			<point x="422" y="294" type="curve"/>
			<point x="421" y="294" type="line"/>
			<point x="410" y="493"/>
			<point x="326" y="523"/>
			<point x="250" y="523" type="curve" smooth="yes"/>
			<point x="103" y="523"/>
			<point x="50" y="370"/>
			<point x="50" y="223" type="curve" smooth="yes"/>
			<point x="50" y="101"/>
			<point x="85" y="-14"/>
		</contour>
		<contour>
			<point x="222" y="26" type="curve" smooth="yes"/>
			<point x="150" y="26"/>
			<point x="102" y="74"/>
			<point x="102" y="229" type="curve" smooth="yes"/>
			<point x="102" y="383"/>
			<point x="148" y="505"/>
			<point x="253" y="505" type="curve" smooth="yes"/>
			<point x="343" y="505"/>
			<point x="371" y="424"/>
			<point x="375" y="263" type="curve" smooth="yes"/>
			<point x="377" y="195" type="line"/>
			<point x="319" y="55"/>
			<point x="277" y="26"/>
		</contour>
	</outline>
	<anchor name="bottom" x="226" y="-30"/>
	<anchor name="top" x="265" y="550"/>
</glyph>
<glyph name="beta" format="2">
	<unicode hex="03B2"/>
	<advance width="516"/>
	<outline>
		<contour>
			<point x="248" y="-14" type="curve" smooth="yes"/>
			<point x="374" y="-14"/>
			<point x="442" y="89"/>
			<point x="442" y="203" type="curve" smooth="yes"/>
			<point x="442" y="288"/>
			<point x="408" y="367"/>
			<point x="332" y="396" type="curve"/>
			<point x="398" y="426"/>
			<point x="484" y="525"/>
			<point x="484" y="630" type="curve" smooth="yes"/>
			<point x="484" y="719"/>
			<point x="433" y="782"/>
			<point x="332" y="782" type="curve" smooth="yes"/>
			<point x="164" y="782"/>
			<point x="61" y="545"/>
			<point x="61" y="308" type="curve" smooth="yes"/>
			<point x="61" y="156"/>
			<point x="81" y="-14"/>
		</contour>
		<contour>
			<point x="257" y="3" type="curve" smooth="yes"/>
			<point x="148" y="3"/>
			<point x="114" y="147"/>
			<point x="114" y="337" type="curve"/>
			<point x="171" y="342"/>
			<point x="245" y="357"/>
			<point x="313" y="386" type="curve"/>
			<point x="349" y="347"/>
			<point x="389" y="268"/>
			<point x="389" y="195" type="curve" smooth="yes"/>
			<point x="389" y="81"/>
			<point x="344" y="3"/>
		</contour>
		<contour>
			<point x="115" y="354" type="curve"/>
			<point x="126" y="545"/>
			<point x="202" y="764"/>
			<point x="332" y="764" type="curve" smooth="yes"/>
			<point x="389" y="764"/>
			<point x="430" y="722"/>
			<point x="430" y="653" type="curve" smooth="yes"/>
			<point x="430" y="527"/>
			<point x="336" y="394"/>
		</contour>
	</outline>
</glyph>
<glyph name="epsilon" format="2">
	<unicode hex="03B5"/>
	<advance width="485"/>
	<outline>
		<contour>
			<point x="236" y="-14" type="curve" smooth="yes"/>
			<point x="302" y="-14"/>
			<point x="378" y="8"/>
			<point x="431" y="86" type="curve"/>
			<point x="421" y="94" type="line"/>
			<point x="379" y="38"/>
			<point x="322" y="10"/>
			<point x="248" y="10" type="curve" smooth="yes"/>
			<point x="145" y="10"/>
			<point x="97" y="59"/>
			<point x="97" y="129" type="curve" smooth="yes"/>
			<point x="97" y="185"/>
			<point x="125" y="233"/>
			<point x="211" y="253" type="curve"/>
			<point x="236" y="234"/>
			<point x="258" y="225"/>
			<point x="276" y="225" type="curve" smooth="yes"/>
			<point x="304" y="225"/>
			<point x="321" y="245"/>
			<point x="321" y="266" type="curve" smooth="yes"/>
			<point x="321" y="287"/>
			<point x="308" y="303"/>
			<point x="279" y="303" type="curve" smooth="yes"/>
			<point x="254" y="303"/>
			<point x="234" y="290"/>
			<point x="212" y="272" type="curve"/>
			<point x="157" y="285"/>
			<point x="121" y="322"/>
			<point x="121" y="375" type="curve" smooth="yes"/>
			<point x="121" y="456"/>
			<point x="182" y="505"/>
			<point x="282" y="505" type="curve" smooth="yes"/>
			<point x="363" y="505"/>
			<point x="391" y="485"/>
			<point x="391" y="461" type="curve" smooth="yes"/>
			<point x="391" y="446"/>
			<point x="382" y="432"/>
			<point x="370" y="411" type="curve"/>
			<point x="378" y="399"/>
			<point x="391" y="389"/>
			<point x="409" y="389" type="curve" smooth="yes"/>
			<point x="432" y="389"/>
			<point x="447" y="409"/>
			<point x="447" y="434" type="curve" smooth="yes"/>
			<point x="447" y="495"/>
			<point x="370" y="523"/>
			<point x="278" y="523" type="curve" smooth="yes"/>
			<point x="144" y="523"/>
			<point x="71" y="460"/>
			<point x="71" y="378" type="curve" smooth="yes"/>
			<point x="71" y="343"/>
			<point x="90" y="285"/>
			<point x="189" y="262" type="curve"/>
			<point x="189" y="260" type="line"/>
			<point x="85" y="240"/>
			<point x="45" y="191"/>
			<point x="45" y="118" type="curve" smooth="yes"/>
			<point x="45" y="43"/>
			<point x="112" y="-14"/>
		</contour>
	</outline>
	<anchor name="top" x="278" y="550"/>
</glyph>
<glyph name="zeta" format="2">
	<unicode hex="03B6"/>
	<advance width="409"/>
	<outline>
		<contour>
			<point x="292" y="-234" type="line"/>
			<point x="335" y="-189"/>
			<point x="367" y="-138"/>
			<point x="367" y="-83" type="curve" smooth="yes"/>
			<point x="367" y="-20"/>
			<point x="338" y="11"/>
			<point x="233" y="56" type="curve" smooth="yes"/>
			<point x="111" y="108"/>
			<point x="95" y="158"/>
			<point x="95" y="244" type="curve" smooth="yes"/>
			<point x="95" y="408"/>
			<point x="240" y="562"/>
			<point x="287" y="607" type="curve"/>
			<point x="331" y="612"/>
			<point x="426" y="635"/>
			<point x="426" y="709" type="curve" smooth="yes"/>
			<point x="426" y="726"/>
			<point x="418" y="734"/>
			<point x="405" y="744" type="curve"/>
			<point x="381" y="734"/>
			<point x="339" y="696"/>
			<point x="276" y="629" type="curve"/>
			<point x="197" y="646"/>
			<point x="174" y="673"/>
			<point x="174" y="714" type="curve" smooth="yes"/>
			<point x="174" y="726"/>
			<point x="175" y="736"/>
			<point x="181" y="748" type="curve"/>
			<point x="173" y="754"/>
			<point x="161" y="759"/>
			<point x="145" y="759" type="curve" smooth="yes"/>
			<point x="118" y="759"/>
			<point x="101" y="740"/>
			<point x="101" y="711" type="curve" smooth="yes"/>
			<point x="101" y="660"/>
			<point x="152" y="612"/>
			<point x="260" y="610" type="curve"/>
			<point x="145" y="495"/>
			<point x="43" y="331"/>
			<point x="43" y="206" type="curve" smooth="yes"/>
			<point x="43" y="123"/>
			<point x="70" y="61"/>
			<point x="202" y="3" type="curve" smooth="yes"/>
			<point x="302" y="-41"/>
			<point x="338" y="-65"/>
			<point x="338" y="-109" type="curve" smooth="yes"/>
			<point x="338" y="-137"/>
			<point x="329" y="-173"/>
			<point x="279" y="-224" type="curve"/>
		</contour>
	</outline>
</glyph>
<glyph name="lambda" format="2">
	<unicode hex="03BB"/>
	<advance width="503"/>
	<outline>
		<contour>
			<point x="353" y="-14" type="curve" smooth="yes"/>
			<point x="392" y="-14"/>
			<point x="427" y="8"/>
			<point x="460" y="36" type="curve"/>
			<point x="453" y="44" type="line"/>
			<point x="428" y="25"/>
			<point x="402" y="11"/>
			<point x="378" y="11" type="curve" smooth="yes"/>
			<point x="352" y="11"/>
			<point x="329" y="29"/>
			<point x="318" y="127" type="curve" smooth="yes"/>
			<point x="263" y="626" type="line" smooth="yes"/>
			<point x="250" y="747"/>
			<point x="207" y="782"/>
			<point x="134" y="782" type="curve" smooth="yes"/>
			<point x="53" y="782"/>
			<point x="7" y="750"/>
			<point x="7" y="702" type="curve" smooth="yes"/>
			<point x="7" y="661"/>
			<point x="31" y="648"/>
			<point x="53" y="648" type="curve" smooth="yes"/>
			<point x="77" y="648"/>
			<point x="91" y="660"/>
			<point x="98" y="666" type="curve"/>
			<point x="90" y="679" type="line" smooth="yes"/>
			<point x="83" y="691"/>
			<point x="80" y="699"/>
			<point x="80" y="718" type="curve" smooth="yes"/>
			<point x="80" y="744"/>
			<point x="95" y="764"/>
			<point x="129" y="764" type="curve" smooth="yes"/>
			<point x="171" y="764"/>
			<point x="202" y="735"/>
			<point x="213" y="607" type="curve" smooth="yes"/>
			<point x="223" y="495" type="line"/>
			<point x="-5" y="7" type="line"/>
			<point x="2" y="0" type="line"/>
			<point x="54" y="0" type="line"/>
			<point x="231" y="411" type="line"/>
			<point x="233" y="411" type="line"/>
			<point x="270" y="88" type="line" smooth="yes"/>
			<point x="278" y="16"/>
			<point x="300" y="-14"/>
		</contour>
	</outline>
</glyph>
<glyph name="mu" format="2">
	<unicode hex="03BC"/>
	<advance width="536"/>
	<outline>
		<contour>
			<point x="68" y="-230" type="line"/>
			<point x="123" y="-214" type="line"/>
			<point x="112" y="-147"/>
			<point x="110" y="-79"/>
			<point x="106" y="23" type="curve"/>
			<point x="107" y="23" type="line"/>
			<point x="125" y="10"/>
			<point x="160" y="-14"/>
			<point x="200" y="-14" type="curve" smooth="yes"/>
			<point x="239" y="-14"/>
			<point x="314" y="0"/>
			<point x="338" y="113" type="curve"/>
			<point x="339" y="113" type="line"/>
			<point x="329" y="12"/>
			<point x="373" y="-14"/>
			<point x="421" y="-14" type="curve" smooth="yes"/>
			<point x="459" y="-14"/>
			<point x="489" y="3"/>
			<point x="513" y="18" type="curve"/>
			<point x="508" y="28" type="line"/>
			<point x="485" y="16"/>
			<point x="468" y="8"/>
			<point x="439" y="8" type="curve" smooth="yes"/>
			<point x="394" y="8"/>
			<point x="383" y="63"/>
			<point x="383" y="113" type="curve" smooth="yes"/>
			<point x="383" y="179"/>
			<point x="413" y="412"/>
			<point x="425" y="514" type="curve"/>
			<point x="417" y="518" type="line"/>
			<point x="362" y="510" type="line"/>
			<point x="336" y="241" type="line" smooth="yes"/>
			<point x="327" y="88"/>
			<point x="277" y="20"/>
			<point x="186" y="20" type="curve" smooth="yes"/>
			<point x="157" y="20"/>
			<point x="124" y="28"/>
			<point x="107" y="44" type="curve"/>
			<point x="107" y="112"/>
			<point x="116" y="292"/>
			<point x="151" y="514" type="curve"/>
			<point x="143" y="518" type="line"/>
			<point x="87" y="510" type="line"/>
			<point x="64" y="297"/>
			<point x="50" y="79"/>
			<point x="50" y="-24" type="curve" smooth="yes"/>
			<point x="50" y="-83"/>
			<point x="53" y="-177"/>
			<point x="60" y="-228" type="curve"/>
		</contour>
	</outline>
</glyph>
<glyph name="nu" format="2">
	<unicode hex="03BD"/>
	<advance width="500"/>
	<outline>
		<contour>
			<point x="200" y="-27" type="line"/>
			<point x="361" y="118"/>
			<point x="449" y="299"/>
			<point x="449" y="399" type="curve" smooth="yes"/>
			<point x="449" y="487"/>
			<point x="421" y="523"/>
			<point x="383" y="523" type="curve" smooth="yes"/>
			<point x="356" y="523"/>
			<point x="341" y="506"/>
			<point x="342" y="466" type="curve"/>
			<point x="386" y="455" type="line" smooth="yes"/>
			<point x="414" y="448"/>
			<point x="428" y="431"/>
			<point x="428" y="391" type="curve" smooth="yes"/>
			<point x="428" y="301"/>
			<point x="347" y="155"/>
			<point x="215" y="13" type="curve"/>
			<point x="215" y="92"/>
			<point x="209" y="228"/>
			<point x="198" y="332" type="curve" smooth="yes"/>
			<point x="182" y="491"/>
			<point x="171" y="523"/>
			<point x="110" y="523" type="curve" smooth="yes"/>
			<point x="76" y="523"/>
			<point x="36" y="500"/>
			<point x="21" y="487" type="curve"/>
			<point x="27" y="478" type="line"/>
			<point x="46" y="488"/>
			<point x="66" y="498"/>
			<point x="91" y="498" type="curve" smooth="yes"/>
			<point x="123" y="498"/>
			<point x="137" y="471"/>
			<point x="152" y="325" type="curve" smooth="yes"/>
			<point x="165" y="197"/>
			<point x="171" y="65"/>
			<point x="172" y="-16" type="curve"/>
		</contour>
	</outline>
</glyph>
<glyph name="omicron" format="2">
	<unicode hex="03BF"/>
	<advance width="469"/>
	<outline>
		<contour>
			<point x="212" y="-14" type="curve" smooth="yes"/>
			<point x="367" y="-14"/>
			<point x="424" y="130"/>
			<point x="424" y="286" type="curve" smooth="yes"/>
			<point x="424" y="434"/>
			<point x="358" y="523"/>
			<point x="253" y="523" type="curve" smooth="yes"/>
			<point x="96" y="523"/>
			<point x="44" y="386"/>
			<point x="44" y="223" type="curve" smooth="yes"/>
			<point x="44" y="82"/>
			<point x="101" y="-14"/>
		</contour>
		<contour>
			<point x="218" y="4" type="curve" smooth="yes"/>
			<point x="133" y="4"/>
			<point x="97" y="78"/>
			<point x="97" y="220" type="curve" smooth="yes"/>
			<point x="97" y="386"/>
			<point x="128" y="505"/>
			<point x="247" y="505" type="curve" smooth="yes"/>
			<point x="343" y="505"/>
			<point x="371" y="432"/>
			<point x="371" y="293" type="curve" smooth="yes"/>
			<point x="371" y="124"/>
			<point x="337" y="4"/>
		</contour>
	</outline>
	<anchor name="top" x="259" y="550"/>
</glyph>
<glyph name="pi" format="2">
	<unicode hex="03C0"/>
	<advance width="594"/>
	<outline>
		<contour>
			<point x="402" y="-14" type="curve" smooth="yes"/>
			<point x="445" y="-14"/>
			<point x="480" y="8"/>
			<point x="512" y="36" type="curve"/>
			<point x="505" y="44" type="line"/>
			<point x="462" y="13"/>
			<point x="445" y="11"/>
			<point x="428" y="11" type="curve" smooth="yes"/>
			<point x="408" y="11"/>
			<point x="394" y="22"/>
			<point x="394" y="63" type="curve" smooth="yes"/>
			<point x="394" y="129"/>
			<point x="400" y="294"/>
			<point x="414" y="451" type="curve"/>
			<point x="455" y="448"/>
			<point x="489" y="446"/>
			<point x="510" y="446" type="curve" smooth="yes"/>
			<point x="545" y="446"/>
			<point x="567" y="463"/>
			<point x="567" y="494" type="curve" smooth="yes"/>
			<point x="567" y="514"/>
			<point x="556" y="522"/>
			<point x="544" y="532" type="curve"/>
			<point x="449" y="499" type="line"/>
			<point x="109" y="523" type="line" smooth="yes"/>
			<point x="60" y="526"/>
			<point x="11" y="515"/>
			<point x="11" y="464" type="curve" smooth="yes"/>
			<point x="11" y="437"/>
			<point x="30" y="416"/>
			<point x="75" y="416" type="curve"/>
			<point x="78" y="429" type="line" smooth="yes"/>
			<point x="86" y="464"/>
			<point x="101" y="470"/>
			<point x="118" y="470" type="curve" smooth="yes"/>
			<point x="134" y="470"/>
			<point x="160" y="469"/>
			<point x="192" y="467" type="curve"/>
			<point x="82" y="4" type="line"/>
			<point x="91" y="0" type="line"/>
			<point x="145" y="0" type="line"/>
			<point x="215" y="465" type="line"/>
			<point x="273" y="461"/>
			<point x="330" y="456"/>
			<point x="388" y="452" type="curve"/>
			<point x="357" y="252"/>
			<point x="337" y="123"/>
			<point x="337" y="63" type="curve" smooth="yes"/>
			<point x="337" y="17"/>
			<point x="355" y="-14"/>
		</contour>
	</outline>
</glyph>
<glyph name="rho" format="2">
	<unicode hex="03C1"/>
	<advance width="464"/>
	<outline>
		<contour>
			<point x="50" y="-230" type="line"/>
			<point x="105" y="-214" type="line"/>
			<point x="94" y="-156"/>
			<point x="88" y="-43"/>
			<point x="88" y="24" type="curve"/>
			<point x="89" y="24" type="line"/>
			<point x="113" y="2"/>
			<point x="152" y="-14"/>
			<point x="191" y="-14" type="curve" smooth="yes"/>
			<point x="323" y="-14"/>
			<point x="420" y="120"/>
			<point x="420" y="297" type="curve" smooth="yes"/>
			<point x="420" y="451"/>
			<point x="345" y="523"/>
			<point x="257" y="523" type="curve" smooth="yes"/>
			<point x="108" y="523"/>
			<point x="31" y="330"/>
			<point x="31" y="0" type="curve" smooth="yes"/>
			<point x="31" y="-77"/>
			<point x="33" y="-141"/>
			<point x="42" y="-228" type="curve"/>
		</contour>
		<contour>
			<point x="191" y="4" type="curve" smooth="yes"/>
			<point x="156" y="4"/>
			<point x="121" y="16"/>
			<point x="89" y="44" type="curve"/>
			<point x="85" y="303"/>
			<point x="149" y="505"/>
			<point x="258" y="505" type="curve" smooth="yes"/>
			<point x="314" y="505"/>
			<point x="367" y="460"/>
			<point x="367" y="294" type="curve" smooth="yes"/>
			<point x="367" y="126"/>
			<point x="307" y="4"/>
		</contour>
	</outline>
	<anchor name="top" x="273" y="550"/>
</glyph>
<glyph name="sigmafinal" format="2">
	<unicode hex="03C2"/>
	<advance width="433"/>
	<outline>
		<contour>
			<point x="294" y="-234" type="line"/>
			<point x="337" y="-189"/>
			<point x="369" y="-138"/>
			<point x="369" y="-83" type="curve" smooth="yes"/>
			<point x="369" y="-20"/>
			<point x="340" y="11"/>
			<point x="235" y="56" type="curve" smooth="yes"/>
			<point x="119" y="105"/>
			<point x="97" y="183"/>
			<point x="97" y="272" type="curve" smooth="yes"/>
			<point x="97" y="417"/>
			<point x="170" y="505"/>
			<point x="268" y="505" type="curve" smooth="yes"/>
			<point x="316" y="505"/>
			<point x="344" y="488"/>
			<point x="344" y="461" type="curve" smooth="yes"/>
			<point x="344" y="452"/>
			<point x="341" y="441"/>
			<point x="334" y="430" type="curve" smooth="yes"/>
			<point x="323" y="411" type="line"/>
			<point x="331" y="398"/>
			<point x="345" y="389"/>
			<point x="362" y="389" type="curve" smooth="yes"/>
			<point x="383" y="389"/>
			<point x="400" y="406"/>
			<point x="400" y="435" type="curve" smooth="yes"/>
			<point x="400" y="476"/>
			<point x="358" y="523"/>
			<point x="271" y="523" type="curve" smooth="yes"/>
			<point x="135" y="523"/>
			<point x="45" y="401"/>
			<point x="45" y="242" type="curve" smooth="yes"/>
			<point x="45" y="140"/>
			<point x="84" y="55"/>
			<point x="204" y="3" type="curve" smooth="yes"/>
			<point x="304" y="-41"/>
			<point x="340" y="-65"/>
			<point x="340" y="-109" type="curve" smooth="yes"/>
			<point x="340" y="-137"/>
			<point x="331" y="-173"/>
			<point x="281" y="-224" type="curve"/>
		</contour>
	</outline>
</glyph>
<glyph name="sigma" format="2">
	<unicode hex="03C3"/>
	<advance width="579"/>
	<outline>
		<contour>
			<point x="226" y="-14" type="curve" smooth="yes"/>
			<point x="361" y="-14"/>
			<point x="431" y="116"/>
			<point x="433" y="269" type="curve" smooth="yes"/>
			<point x="435" y="343"/>
			<point x="420" y="419"/>
			<point x="371" y="460" type="curve"/>
			<point x="371" y="462" type="line"/>
			<point x="430" y="444"/>
			<point x="454" y="437"/>
			<point x="490" y="437" type="curve" smooth="yes"/>
			<point x="522" y="437"/>
			<point x="546" y="452"/>
			<point x="547" y="481" type="curve" smooth="yes"/>
			<point x="547" y="499"/>
			<point x="538" y="510"/>
			<point x="525" y="523" type="curve"/>
			<point x="420" y="486" type="line"/>
			<point x="360" y="499"/>
			<point x="316" y="508"/>
			<point x="268" y="508" type="curve" smooth="yes"/>
			<point x="119" y="508"/>
			<point x="46" y="377"/>
			<point x="44" y="226" type="curve" smooth="yes"/>
			<point x="41" y="41"/>
			<point x="135" y="-14"/>
		</contour>
		<contour>
			<point x="227" y="4" type="curve" smooth="yes"/>
			<point x="165" y="4"/>
			<point x="94" y="48"/>
			<point x="97" y="231" type="curve" smooth="yes"/>
			<point x="99" y="361"/>
			<point x="156" y="476"/>
			<point x="271" y="476" type="curve" smooth="yes"/>
			<point x="296" y="476"/>
			<point x="310" y="474"/>
			<point x="333" y="468" type="curve"/>
			<point x="379" y="416"/>
			<point x="381" y="326"/>
			<point x="380" y="266" type="curve" smooth="yes"/>
			<point x="377" y="95"/>
			<point x="319" y="4"/>
		</contour>
	</outline>
</glyph>
<glyph name="tau" format="2">
	<unicode hex="03C4"/>
	<advance width="469"/>
	<outline>
		<contour>
			<point x="259" y="-14" type="curve" smooth="yes"/>
			<point x="311" y="-14"/>
			<point x="354" y="14"/>
			<point x="384" y="56" type="curve"/>
			<point x="376" y="63" type="line"/>
			<point x="345" y="30"/>
			<point x="312" y="12"/>
			<point x="268" y="12" type="curve" smooth="yes"/>
			<point x="213" y="12"/>
			<point x="203" y="53"/>
			<point x="208" y="127" type="curve" smooth="yes"/>
			<point x="216" y="235"/>
			<point x="230" y="342"/>
			<point x="245" y="459" type="curve"/>
			<point x="297" y="453"/>
			<point x="351" y="446"/>
			<point x="390" y="446" type="curve" smooth="yes"/>
			<point x="425" y="446"/>
			<point x="447" y="463"/>
			<point x="447" y="494" type="curve" smooth="yes"/>
			<point x="447" y="514"/>
			<point x="436" y="522"/>
			<point x="424" y="532" type="curve"/>
			<point x="329" y="499" type="line"/>
			<point x="109" y="523" type="line" smooth="yes"/>
			<point x="60" y="528"/>
			<point x="11" y="515"/>
			<point x="11" y="464" type="curve" smooth="yes"/>
			<point x="11" y="437"/>
			<point x="30" y="416"/>
			<point x="75" y="416" type="curve"/>
			<point x="78" y="429" type="line" smooth="yes"/>
			<point x="86" y="464"/>
			<point x="101" y="470"/>
			<point x="118" y="470" type="curve" smooth="yes"/>
			<point x="145" y="470"/>
			<point x="182" y="466"/>
			<point x="222" y="462" type="curve"/>
			<point x="197" y="349"/>
			<point x="173" y="245"/>
			<point x="155" y="142" type="curve" smooth="yes"/>
			<point x="136" y="37"/>
			<point x="168" y="-14"/>
		</contour>
	</outline>
</glyph>
<glyph name="upsilon" format="2">
	<unicode hex="03C5"/>
	<advance width="510"/>
	<outline>
		<contour>
			<point x="208" y="-14" type="curve" smooth="yes"/>
			<point x="372" y="-14"/>
			<point x="458" y="179"/>
			<point x="458" y="393" type="curve" smooth="yes"/>
			<point x="458" y="500"/>
			<point x="420" y="523"/>
			<point x="390" y="523" type="curve" smooth="yes"/>
			<point x="357" y="523"/>
			<point x="345" y="498"/>
			<point x="345" y="466" type="curve"/>
			<point x="388" y="456" type="line" smooth="yes"/>
			<point x="427" y="447"/>
			<point x="437" y="434"/>
			<point x="437" y="383" type="curve" smooth="yes"/>
			<point x="437" y="205"/>
			<point x="362" y="19"/>
			<point x="227" y="20" type="curve" smooth="yes"/>
			<point x="154" y="21"/>
			<point x="125" y="61"/>
			<point x="125" y="119" type="curve" smooth="yes"/>
			<point x="125" y="194"/>
			<point x="172" y="430"/>
			<point x="172" y="460" type="curve" smooth="yes"/>
			<point x="172" y="500"/>
			<point x="160" y="523"/>
			<point x="112" y="523" type="curve" smooth="yes"/>
			<point x="88" y="523"/>
			<point x="52" y="509"/>
			<point x="24" y="487" type="curve"/>
			<point x="30" y="478" type="line"/>
			<point x="52" y="490"/>
			<point x="75" y="498"/>
			<point x="93" y="498" type="curve" smooth="yes"/>
			<point x="112" y="498"/>
			<point x="124" y="490"/>
			<point x="124" y="463" type="curve" smooth="yes"/>
			<point x="124" y="428"/>
			<point x="78" y="181"/>
			<point x="78" y="119" type="curve" smooth="yes"/>
			<point x="78" y="25"/>
			<point x="131" y="-14"/>
		</contour>
	</outline>
	<anchor name="top" x="271" y="550"/>
</glyph>
<glyph name="phi" format="2">
	<unicode hex="03C6"/>
	<advance width="633"/>
	<outline>
		<contour>
			<point x="237" y="-230" type="line"/>
			<point x="261" y="-220" type="line"/>
			<point x="300" y="-11" type="line"/>
			<point x="519" y="2"/>
			<point x="590" y="185"/>
			<point x="590" y="339" type="curve" smooth="yes"/>
			<point x="590" y="447"/>
			<point x="552" y="523"/>
			<point x="449" y="523" type="curve" smooth="yes"/>
			<point x="382" y="523"/>
			<point x="330" y="483"/>
			<point x="313" y="364" type="curve" smooth="yes"/>
			<point x="261" y="8" type="line"/>
			<point x="149" y="20"/>
			<point x="97" y="109"/>
			<point x="97" y="229" type="curve" smooth="yes"/>
			<point x="97" y="370"/>
			<point x="152" y="464"/>
			<point x="233" y="509" type="curve"/>
			<point x="226" y="523" type="line"/>
			<point x="119" y="486"/>
			<point x="44" y="387"/>
			<point x="44" y="231" type="curve" smooth="yes"/>
			<point x="44" y="103"/>
			<point x="107" y="4"/>
			<point x="259" y="-10" type="curve"/>
			<point x="228" y="-226" type="line"/>
		</contour>
		<contour>
			<point x="303" y="7" type="curve"/>
			<point x="377" y="408" type="line" smooth="yes"/>
			<point x="392" y="492"/>
			<point x="416" y="505"/>
			<point x="449" y="505" type="curve" smooth="yes"/>
			<point x="500" y="505"/>
			<point x="537" y="466"/>
			<point x="537" y="337" type="curve" smooth="yes"/>
			<point x="537" y="197"/>
			<point x="472" y="19"/>
		</contour>
	</outline>
</glyph>
<glyph name="chi" format="2">
	<unicode hex="03C7"/>
	<advance width="463"/>
	<outline>
		<contour>
			<point x="82" y="-230" type="curve" smooth="yes"/>
			<point x="117" y="-230"/>
			<point x="130" y="-204"/>
			<point x="130" y="-166" type="curve"/>
			<point x="96" y="-158" type="line" smooth="yes"/>
			<point x="54" y="-148"/>
			<point x="43" y="-134"/>
			<point x="43" y="-116" type="curve" smooth="yes"/>
			<point x="43" y="-84"/>
			<point x="79" y="-4"/>
			<point x="218" y="123" type="curve"/>
			<point x="287" y="-152" type="line" smooth="yes"/>
			<point x="299" y="-195"/>
			<point x="310" y="-230"/>
			<point x="367" y="-230" type="curve" smooth="yes"/>
			<point x="409" y="-230"/>
			<point x="448" y="-203"/>
			<point x="475" y="-180" type="curve"/>
			<point x="468" y="-172" type="line"/>
			<point x="439" y="-195"/>
			<point x="413" y="-205"/>
			<point x="393" y="-205" type="curve" smooth="yes"/>
			<point x="362" y="-205"/>
			<point x="359" y="-185"/>
			<point x="353" y="-162" type="curve" smooth="yes"/>
			<point x="268" y="165" type="line"/>
			<point x="388" y="279"/>
			<point x="444" y="361"/>
			<point x="444" y="424" type="curve" smooth="yes"/>
			<point x="444" y="491"/>
			<point x="420" y="523"/>
			<point x="381" y="523" type="curve" smooth="yes"/>
			<point x="351" y="523"/>
			<point x="338" y="502"/>
			<point x="339" y="466" type="curve"/>
			<point x="373" y="458" type="line" smooth="yes"/>
			<point x="410" y="449"/>
			<point x="420" y="435"/>
			<point x="420" y="409" type="curve" smooth="yes"/>
			<point x="420" y="376"/>
			<point x="378" y="292"/>
			<point x="262" y="185" type="curve"/>
			<point x="196" y="439" type="line" smooth="yes"/>
			<point x="179" y="504"/>
			<point x="158" y="523"/>
			<point x="115" y="523" type="curve" smooth="yes"/>
			<point x="79" y="523"/>
			<point x="44" y="504"/>
			<point x="23" y="487" type="curve"/>
			<point x="29" y="478" type="line"/>
			<point x="59" y="492"/>
			<point x="71" y="498"/>
			<point x="94" y="498" type="curve" smooth="yes"/>
			<point x="111" y="498"/>
			<point x="120" y="487"/>
			<point x="126" y="466" type="curve" smooth="yes"/>
			<point x="212" y="143" type="line"/>
			<point x="70" y="9"/>
			<point x="15" y="-74"/>
			<point x="15" y="-145" type="curve" smooth="yes"/>
			<point x="15" y="-206"/>
			<point x="45" y="-230"/>
		</contour>
	</outline>
</glyph>
<glyph name="psi" format="2">
	<unicode hex="03C8"/>
	<advance width="684"/>
	<outline>
		<contour>
			<point x="232" y="-230" type="line"/>
			<point x="294" y="-218" type="line"/>
			<point x="324" y="-12" type="line"/>
			<point x="557" y="9"/>
			<point x="632" y="195"/>
			<point x="632" y="393" type="curve" smooth="yes"/>
			<point x="632" y="492"/>
			<point x="592" y="523"/>
			<point x="558" y="523" type="curve" smooth="yes"/>
			<point x="527" y="523"/>
			<point x="514" y="504"/>
			<point x="514" y="466" type="curve"/>
			<point x="557" y="452" type="line" smooth="yes"/>
			<point x="593" y="440"/>
			<point x="611" y="436"/>
			<point x="611" y="389" type="curve" smooth="yes"/>
			<point x="611" y="211"/>
			<point x="549" y="42"/>
			<point x="329" y="22" type="curve"/>
			<point x="434" y="741" type="line"/>
			<point x="414" y="741" type="line"/>
			<point x="272" y="20" type="line"/>
			<point x="164" y="23"/>
			<point x="125" y="78"/>
			<point x="125" y="144" type="curve" smooth="yes"/>
			<point x="125" y="199"/>
			<point x="172" y="421"/>
			<point x="172" y="467" type="curve" smooth="yes"/>
			<point x="172" y="512"/>
			<point x="143" y="523"/>
			<point x="116" y="523" type="curve" smooth="yes"/>
			<point x="86" y="523"/>
			<point x="55" y="511"/>
			<point x="24" y="487" type="curve"/>
			<point x="30" y="478" type="line"/>
			<point x="52" y="490"/>
			<point x="73" y="498"/>
			<point x="96" y="498" type="curve" smooth="yes"/>
			<point x="111" y="498"/>
			<point x="124" y="489"/>
			<point x="124" y="467" type="curve" smooth="yes"/>
			<point x="124" y="414"/>
			<point x="78" y="194"/>
			<point x="78" y="130" type="curve" smooth="yes"/>
			<point x="78" y="49"/>
			<point x="135" y="-10"/>
			<point x="266" y="-14" type="curve"/>
			<point x="224" y="-226" type="line"/>
		</contour>
	</outline>
</glyph>
<glyph name="KoppaArchaic" format="2">
	<unicode hex="03D8"/>
	<advance width="675"/>
	<outline>
		<contour>
			<point x="301" y="-206" type="line"/>
			<point x="354" y="-201" type="line"/>
			<point x="353" y="-160"/>
			<point x="351" y="-48"/>
			<point x="351" y="-14" type="curve"/>
			<point x="525" y="-7"/>
			<point x="631" y="140"/>
			<point x="631" y="395" type="curve" smooth="yes"/>
			<point x="631" y="625"/>
			<point x="523" y="745"/>
			<point x="361" y="745" type="curve" smooth="yes"/>
			<point x="177" y="745"/>
			<point x="60" y="603"/>
			<point x="61" y="344" type="curve" smooth="yes"/>
			<point x="62" y="122"/>
			<point x="161" y="0"/>
			<point x="312" y="-13" type="curve"/>
			<point x="311" y="-49"/>
			<point x="306" y="-104"/>
			<point x="297" y="-202" type="curve"/>
		</contour>
		<contour>
			<point x="352" y="5" type="curve"/>
			<point x="355" y="49"/>
			<point x="362" y="140"/>
			<point x="372" y="250" type="curve"/>
			<point x="368" y="254" type="line"/>
			<point x="315" y="249" type="line"/>
			<point x="315" y="197"/>
			<point x="314" y="35"/>
			<point x="313" y="7" type="curve"/>
			<point x="185" y="20"/>
			<point x="111" y="118"/>
			<point x="112" y="361" type="curve" smooth="yes"/>
			<point x="113" y="627"/>
			<point x="211" y="726"/>
			<point x="359" y="726" type="curve" smooth="yes"/>
			<point x="502" y="726"/>
			<point x="581" y="638"/>
			<point x="580" y="388" type="curve" smooth="yes"/>
			<point x="579" y="111"/>
			<point x="490" y="8"/>
		</contour>
	</outline>
</glyph>
<glyph name="koppaArchaic" format="2">
	<unicode hex="03D9"/>
	<advance width="490"/>
	<outline>
		<contour>
			<point x="195" y="-162" type="line"/>
			<point x="246" y="-158" type="line"/>
			<point x="247" y="-105"/>
			<point x="246" y="-62"/>
			<point x="246" y="-13" type="curve"/>
			<point x="386" y="-3"/>
			<point x="445" y="132"/>
			<point x="445" y="279" type="curve" smooth="yes"/>
			<point x="445" y="431"/>
			<point x="366" y="523"/>
			<point x="259" y="523" type="curve" smooth="yes"/>
			<point x="105" y="523"/>
			<point x="45" y="392"/>
			<point x="45" y="234" type="curve" smooth="yes"/>
			<point x="45" y="94"/>
			<point x="107" y="-4"/>
			<point x="211" y="-13" type="curve"/>
			<point x="203" y="-63"/>
			<point x="195" y="-108"/>
			<point x="186" y="-159" type="curve"/>
		</contour>
		<contour>
			<point x="246" y="5" type="curve"/>
			<point x="246" y="42"/>
			<point x="247" y="83"/>
			<point x="248" y="135" type="curve"/>
			<point x="237" y="140" type="line"/>
			<point x="234" y="139" type="line"/>
			<point x="227" y="89"/>
			<point x="220" y="45"/>
			<point x="214" y="5" type="curve"/>
			<point x="139" y="16"/>
			<point x="98" y="93"/>
			<point x="98" y="232" type="curve" smooth="yes"/>
			<point x="98" y="391"/>
			<point x="138" y="505"/>
			<point x="254" y="505" type="curve" smooth="yes"/>
			<point x="353" y="505"/>
			<point x="392" y="427"/>
			<point x="392" y="278" type="curve" smooth="yes"/>
			<point x="392" y="123"/>
			<point x="351" y="13"/>
		</contour>
	</outline>
</glyph>
<glyph name="stigma" format="2">
	<unicode hex="03DB"/>
	<advance width="438"/>
	<outline>
		<contour>
			<point x="294" y="-234" type="line"/>
			<point x="337" y="-189"/>
			<point x="369" y="-138"/>
			<point x="369" y="-83" type="curve" smooth="yes"/>
			<point x="369" y="-20"/>
			<point x="340" y="11"/>
			<point x="235" y="56" type="curve" smooth="yes"/>
			<point x="122" y="104"/>
			<point x="88" y="179"/>
			<point x="87" y="266" type="curve" smooth="yes"/>
			<point x="89" y="462"/>
			<point x="202" y="475"/>
			<point x="320" y="475" type="curve" smooth="yes"/>
			<point x="391" y="475"/>
			<point x="410" y="518"/>
			<point x="410" y="563" type="curve" smooth="yes"/>
			<point x="410" y="605"/>
			<point x="377" y="635"/>
			<point x="356" y="651" type="curve"/>
			<point x="348" y="646" type="line"/>
			<point x="360" y="626"/>
			<point x="364" y="597"/>
			<point x="364" y="578" type="curve" smooth="yes"/>
			<point x="364" y="543"/>
			<point x="345" y="521"/>
			<point x="296" y="521" type="curve" smooth="yes"/>
			<point x="146" y="521"/>
			<point x="45" y="406"/>
			<point x="45" y="237" type="curve" smooth="yes"/>
			<point x="46" y="137"/>
			<point x="86" y="54"/>
			<point x="204" y="3" type="curve" smooth="yes"/>
			<point x="304" y="-41"/>
			<point x="340" y="-65"/>
			<point x="340" y="-109" type="curve" smooth="yes"/>
			<point x="340" y="-137"/>
			<point x="331" y="-173"/>
			<point x="281" y="-224" type="curve"/>
		</contour>
	</outline>
</glyph>
<glyph name="digamma" format="2">
	<unicode hex="03DD"/>
	<advance width="281"/>
	<outline>
		<contour>
			<point x="60" y="0" type="line"/>
			<point x="100" y="0" type="line"/>
			<point x="125" y="490" type="line"/>
			<point x="282" y="490" type="line"/>
			<point x="283" y="509" type="line"/>
			<point x="126" y="509" type="line"/>
			<point x="131" y="612" type="line" smooth="yes"/>
			<point x="136" y="705"/>
			<point x="171" y="764"/>
			<point x="252" y="764" type="curve" smooth="yes"/>
			<point x="313" y="764"/>
			<point x="329" y="735"/>
			<point x="306" y="696" type="curve" smooth="yes"/>
			<point x="295" y="677" type="line"/>
			<point x="303" y="664"/>
			<point x="317" y="655"/>
			<point x="334" y="655" type="curve" smooth="yes"/>
			<point x="355" y="655"/>
			<point x="372" y="672"/>
			<point x="372" y="701" type="curve" smooth="yes"/>
			<point x="372" y="737"/>
			<point x="341" y="782"/>
			<point x="258" y="782" type="curve" smooth="yes"/>
			<point x="139" y="782"/>
			<point x="87" y="697"/>
			<point x="81" y="559" type="curve" smooth="yes"/>
			<point x="79" y="511" type="line"/>
			<point x="-9" y="501" type="line"/>
			<point x="-9" y="490" type="line"/>
			<point x="78" y="490" type="line"/>
			<point x="53" y="7" type="line"/>
		</contour>
	</outline>
</glyph>
<glyph name="Koppa" format="2">
	<unicode hex="03DE"/>
	<advance width="537"/>
	<outline>
		<contour>
			<point x="275" y="-93" type="curve" smooth="yes"/>
			<point x="302" y="-93"/>
			<point x="331" y="-78"/>
			<point x="356" y="-49" type="curve"/>
			<point x="350" y="-42" type="line"/>
			<point x="326" y="-59"/>
			<point x="307" y="-62"/>
			<point x="291" y="-62" type="curve" smooth="yes"/>
			<point x="267" y="-62"/>
			<point x="250" y="-46"/>
			<point x="250" y="-15" type="curve" smooth="yes"/>
			<point x="250" y="46"/>
			<point x="282" y="98"/>
			<point x="443" y="299" type="curve" smooth="yes"/>
			<point x="499" y="368" type="line"/>
			<point x="484" y="390" type="line"/>
			<point x="103" y="190" type="line"/>
			<point x="297" y="416"/>
			<point x="339" y="474"/>
			<point x="339" y="539" type="curve" smooth="yes"/>
			<point x="339" y="582"/>
			<point x="313" y="610"/>
			<point x="267" y="610" type="curve" smooth="yes"/>
			<point x="240" y="610"/>
			<point x="211" y="595"/>
			<point x="186" y="566" type="curve"/>
			<point x="192" y="559" type="line"/>
			<point x="216" y="576"/>
			<point x="235" y="579"/>
			<point x="251" y="579" type="curve" smooth="yes"/>
			<point x="274" y="579"/>
			<point x="292" y="565"/>
			<point x="292" y="533" type="curve" smooth="yes"/>
			<point x="292" y="480"/>
			<point x="253" y="415"/>
			<point x="99" y="224" type="curve" smooth="yes"/>
			<point x="44" y="155" type="line"/>
			<point x="56" y="131" type="line"/>
			<point x="434" y="324" type="line"/>
			<point x="256" y="111"/>
			<point x="202" y="34"/>
			<point x="202" y="-24" type="curve" smooth="yes"/>
			<point x="202" y="-64"/>
			<point x="229" y="-93"/>
		</contour>
	</outline>
</glyph>
<glyph name="Sampi" format="2">
	<unicode hex="03E0"/>
	<advance width="804"/>
	<outline>
		<contour>
			<point x="257" y="-177" type="line"/>
			<point x="268" y="-169" type="line"/>
			<point x="248" y="-125" type="line" smooth="yes"/>
			<point x="243" y="-111"/>
			<point x="237" y="-99"/>
			<point x="254" y="-86" type="curve" smooth="yes"/>
			<point x="662" y="211" type="line"/>
			<point x="680" y="151"/>
			<point x="686" y="86"/>
			<point x="686" y="21" type="curve" smooth="yes"/>
			<point x="686" y="-31"/>
			<point x="680" y="-109"/>
			<point x="673" y="-170" type="curve"/>
			<point x="724" y="-172" type="line"/>
			<point x="734" y="-98"/>
			<point x="738" y="-63"/>
			<point x="738" y="9" type="curve" smooth="yes"/>
			<point x="738" y="339"/>
			<point x="570" y="528"/>
			<point x="206" y="532" type="curve"/>
			<point x="204" y="514" type="line"/>
			<point x="344" y="509"/>
			<point x="447" y="475"/>
			<point x="519" y="423" type="curve"/>
			<point x="125" y="134" type="line" smooth="yes"/>
			<point x="104" y="120"/>
			<point x="91" y="119"/>
			<point x="71" y="143" type="curve" smooth="yes"/>
			<point x="48" y="171" type="line"/>
			<point x="39" y="165" type="line"/>
			<point x="143" y="3" type="line"/>
			<point x="153" y="11" type="line"/>
			<point x="134" y="55" type="line" smooth="yes"/>
			<point x="127" y="68"/>
			<point x="123" y="83"/>
			<point x="140" y="94" type="curve" smooth="yes"/>
			<point x="553" y="395" type="line"/>
			<point x="597" y="355"/>
			<point x="628" y="307"/>
			<point x="648" y="254" type="curve"/>
			<point x="239" y="-46" type="line" smooth="yes"/>
			<point x="218" y="-60"/>
			<point x="206" y="-61"/>
			<point x="186" y="-37" type="curve" smooth="yes"/>
			<point x="162" y="-9" type="line"/>
			<point x="154" y="-15" type="line"/>
		</contour>
	</outline>
</glyph>
<glyph name="sampi" format="2">
	<unicode hex="03E1"/>
	<advance width="600"/>
	<outline>
		<contour>
			<point x="450" y="-253" type="line"/>
			<point x="514" y="-140"/>
			<point x="545" y="-6"/>
			<point x="545" y="94" type="curve" smooth="yes"/>
			<point x="545" y="280"/>
			<point x="443" y="449"/>
			<point x="220" y="502" type="curve"/>
			<point x="207" y="468" type="line"/>
			<point x="294" y="446"/>
			<point x="359" y="409"/>
			<point x="406" y="362" type="curve"/>
			<point x="112" y="242" type="line"/>
			<point x="79" y="230"/>
			<point x="62" y="223"/>
			<point x="48" y="248" type="curve" smooth="yes"/>
			<point x="17" y="303" type="line"/>
			<point x="7" y="298" type="line"/>
			<point x="76" y="101" type="line"/>
			<point x="87" y="105" type="line"/>
			<point x="78" y="168" type="line" smooth="yes"/>
			<point x="75" y="191"/>
			<point x="79" y="199"/>
			<point x="113" y="213" type="curve" smooth="yes"/>
			<point x="427" y="340" type="line"/>
			<point x="479" y="277"/>
			<point x="503" y="201"/>
			<point x="507" y="122" type="curve"/>
			<point x="199" y="-4" type="line" smooth="yes"/>
			<point x="170" y="-15"/>
			<point x="151" y="-24"/>
			<point x="136" y="2" type="curve" smooth="yes"/>
			<point x="105" y="58" type="line"/>
			<point x="94" y="53" type="line"/>
			<point x="163" y="-145" type="line"/>
			<point x="174" y="-140" type="line"/>
			<point x="165" y="-78" type="line"/>
			<point x="164" y="-54"/>
			<point x="166" y="-45"/>
			<point x="200" y="-33" type="curve"/>
			<point x="508" y="90" type="line"/>
			<point x="507" y="-28"/>
			<point x="463" y="-158"/>
			<point x="420" y="-242" type="curve"/>
		</contour>
	</outline>
</glyph>
<glyph name="E-cy" format="2">
	<unicode hex="0404"/>
	<advance width="580"/>
	<outline>
		<contour>
			<point x="491" y="614" type="curve" smooth="yes"/>
			<point x="479" y="587" type="line"/>
			<point x="490" y="577"/>
			<point x="503" y="567"/>
			<point x="523" y="567" type="curve" smooth="yes"/>
			<point x="544" y="567"/>
			<point x="561" y="587"/>
			<point x="561" y="617" type="curve" smooth="yes"/>
			<point x="561" y="696"/>
			<point x="459" y="744"/>
			<point x="360" y="744" type="curve" smooth="yes"/>
			<point x="181" y="744"/>
			<point x="61" y="592"/>
			<point x="61" y="342" type="curve" smooth="yes"/>
			<point x="61" y="122"/>
			<point x="164" y="-14"/>
			<point x="325" y="-14" type="curve" smooth="yes"/>
			<point x="417" y="-14"/>
			<point x="491" y="27"/>
			<point x="551" y="108" type="curve"/>
			<point x="541" y="115" type="line"/>
			<point x="489" y="49"/>
			<point x="421" y="14"/>
			<point x="343" y="14" type="curve" smooth="yes"/>
			<point x="213" y="14"/>
			<point x="114" y="110"/>
			<point x="114" y="348" type="curve"/>
			<point x="467" y="348" type="line"/>
			<point x="469" y="366" type="line"/>
			<point x="114" y="366" type="line"/>
			<point x="121" y="608"/>
			<point x="216" y="725"/>
			<point x="359" y="725" type="curve" smooth="yes"/>
			<point x="449" y="725"/>
			<point x="525" y="691"/>
		</contour>
	</outline>
	<anchor name="top" x="345" y="730"/>
</glyph>
<glyph name="Be-cy" format="2">
	<unicode hex="0411"/>
	<advance width="574"/>
	<outline>
		<contour>
			<point x="52" y="10" type="line"/>
			<point x="51" y="0" type="line"/>
			<point x="267" y="0" type="line" smooth="yes"/>
			<point x="433" y="0"/>
			<point x="538" y="86"/>
			<point x="538" y="224" type="curve" smooth="yes"/>
			<point x="538" y="359"/>
			<point x="432" y="405"/>
			<point x="317" y="405" type="curve" smooth="yes"/>
			<point x="287" y="405"/>
			<point x="254" y="401"/>
			<point x="229" y="396" type="curve"/>
			<point x="227" y="378" type="line"/>
			<point x="257" y="384"/>
			<point x="285" y="386"/>
			<point x="319" y="386" type="curve" smooth="yes"/>
			<point x="410" y="386"/>
			<point x="487" y="342"/>
			<point x="487" y="226" type="curve" smooth="yes"/>
			<point x="487" y="71"/>
			<point x="393" y="18"/>
			<point x="255" y="18" type="curve" smooth="yes"/>
			<point x="186" y="18" type="line"/>
			<point x="213" y="712" type="line"/>
			<point x="371" y="712" type="line" smooth="yes"/>
			<point x="425" y="712"/>
			<point x="453" y="704"/>
			<point x="472" y="637" type="curve" smooth="yes"/>
			<point x="492" y="566" type="line"/>
			<point x="504" y="568" type="line"/>
			<point x="490" y="730" type="line"/>
			<point x="80" y="730" type="line"/>
			<point x="79" y="720" type="line"/>
			<point x="164" y="709" type="line"/>
			<point x="137" y="21" type="line"/>
		</contour>
	</outline>
</glyph>
<glyph name="Ze-cy" format="2">
	<unicode hex="0417"/>
	<advance width="540"/>
	<outline>
		<contour>
			<point x="100" y="621" type="curve"/>
			<point x="110" y="614" type="line"/>
			<point x="157" y="679"/>
			<point x="212" y="717"/>
			<point x="288" y="717" type="curve" smooth="yes"/>
			<point x="357" y="717"/>
			<point x="410" y="677"/>
			<point x="410" y="595" type="curve" smooth="yes"/>
			<point x="410" y="494"/>
			<point x="355" y="430"/>
			<point x="279" y="402" type="curve" smooth="yes"/>
			<point x="260" y="395"/>
			<point x="230" y="390"/>
			<point x="198" y="385" type="curve"/>
			<point x="201" y="368" type="line"/>
			<point x="229" y="373"/>
			<point x="260" y="378"/>
			<point x="281" y="378" type="curve" smooth="yes"/>
			<point x="372" y="378"/>
			<point x="439" y="328"/>
			<point x="439" y="217" type="curve" smooth="yes"/>
			<point x="439" y="83"/>
			<point x="357" y="4"/>
			<point x="249" y="4" type="curve" smooth="yes"/>
			<point x="163" y="4"/>
			<point x="99" y="45"/>
			<point x="130" y="114" type="curve" smooth="yes"/>
			<point x="142" y="141" type="line"/>
			<point x="131" y="151"/>
			<point x="119" y="160"/>
			<point x="99" y="160" type="curve" smooth="yes"/>
			<point x="78" y="160"/>
			<point x="60" y="141"/>
			<point x="60" y="111" type="curve" smooth="yes"/>
			<point x="60" y="34"/>
			<point x="138" y="-15"/>
			<point x="246" y="-15" type="curve" smooth="yes"/>
			<point x="391" y="-15"/>
			<point x="489" y="89"/>
			<point x="489" y="216" type="curve" smooth="yes"/>
			<point x="489" y="314"/>
			<point x="430" y="386"/>
			<point x="303" y="394" type="curve"/>
			<point x="303" y="396" type="line"/>
			<point x="404" y="431"/>
			<point x="462" y="502"/>
			<point x="462" y="599" type="curve" smooth="yes"/>
			<point x="462" y="686"/>
			<point x="403" y="744"/>
			<point x="303" y="744" type="curve" smooth="yes"/>
			<point x="219" y="744"/>
			<point x="149" y="701"/>
		</contour>
	</outline>
</glyph>
<glyph name="Ii-cy" format="2">
	<unicode hex="0418"/>
	<advance width="709"/>
	<outline>
		<contour>
			<point x="553" y="563" type="line"/>
			<point x="528" y="23" type="line"/>
			<point x="443" y="10" type="line"/>
			<point x="442" y="0" type="line"/>
			<point x="661" y="0" type="line"/>
			<point x="662" y="10" type="line"/>
			<point x="577" y="22" type="line"/>
			<point x="606" y="707" type="line"/>
			<point x="691" y="720" type="line"/>
			<point x="691" y="730" type="line"/>
			<point x="473" y="730" type="line"/>
			<point x="472" y="720" type="line"/>
			<point x="557" y="707" type="line"/>
			<point x="553" y="592" type="line"/>
			<point x="189" y="115" type="line"/>
			<point x="213" y="707" type="line"/>
			<point x="298" y="719" type="line"/>
			<point x="298" y="730" type="line"/>
			<point x="80" y="730" type="line"/>
			<point x="79" y="718" type="line"/>
			<point x="164" y="707" type="line"/>
			<point x="137" y="23" type="line"/>
			<point x="52" y="10" type="line"/>
			<point x="51" y="0" type="line"/>
			<point x="270" y="0" type="line"/>
			<point x="271" y="10" type="line"/>
			<point x="186" y="22" type="line"/>
			<point x="189" y="85" type="line"/>
		</contour>
	</outline>
	<anchor name="top" x="394" y="730"/>
</glyph>
<glyph name="Ka-cy" format="2">
	<unicode hex="041A"/>
	<advance width="654"/>
	<outline>
		<contour>
			<point x="223" y="398" type="curve"/>
			<point x="222" y="380" type="line"/>
			<point x="299" y="376"/>
			<point x="345" y="342"/>
			<point x="370" y="276" type="curve" smooth="yes"/>
			<point x="392" y="219"/>
			<point x="398" y="201"/>
			<point x="417" y="144" type="curve" smooth="yes"/>
			<point x="458" y="22"/>
			<point x="502" y="-14"/>
			<point x="562" y="-14" type="curve" smooth="yes"/>
			<point x="595" y="-14"/>
			<point x="623" y="-2"/>
			<point x="646" y="21" type="curve"/>
			<point x="640" y="29" type="line"/>
			<point x="621" y="14"/>
			<point x="604" y="8"/>
			<point x="585" y="8" type="curve" smooth="yes"/>
			<point x="539" y="8"/>
			<point x="506" y="46"/>
			<point x="468" y="152" type="curve" smooth="yes"/>
			<point x="451" y="200"/>
			<point x="447" y="211"/>
			<point x="429" y="255" type="curve" smooth="yes"/>
			<point x="396" y="336"/>
			<point x="332" y="382"/>
			<point x="254" y="390" type="curve"/>
			<point x="254" y="392" type="line"/>
			<point x="343" y="414"/>
			<point x="386" y="465"/>
			<point x="438" y="569" type="curve" smooth="yes"/>
			<point x="470" y="633"/>
			<point x="495" y="680"/>
			<point x="510" y="680" type="curve" smooth="yes"/>
			<point x="518" y="680"/>
			<point x="523" y="677"/>
			<point x="532" y="668" type="curve" smooth="yes"/>
			<point x="553" y="646" type="line"/>
			<point x="571" y="660"/>
			<point x="587" y="678"/>
			<point x="587" y="702" type="curve" smooth="yes"/>
			<point x="587" y="723"/>
			<point x="571" y="739"/>
			<point x="547" y="739" type="curve" smooth="yes"/>
			<point x="499" y="739"/>
			<point x="470" y="679"/>
			<point x="424" y="585" type="curve" smooth="yes"/>
			<point x="365" y="464"/>
			<point x="317" y="418"/>
		</contour>
		<contour>
			<point x="164" y="707" type="line"/>
			<point x="137" y="23" type="line"/>
			<point x="52" y="10" type="line"/>
			<point x="51" y="0" type="line"/>
			<point x="270" y="0" type="line"/>
			<point x="271" y="10" type="line"/>
			<point x="186" y="22" type="line"/>
			<point x="213" y="707" type="line"/>
			<point x="298" y="719" type="line"/>
			<point x="298" y="730" type="line"/>
			<point x="80" y="730" type="line"/>
			<point x="79" y="718" type="line"/>
		</contour>
	</outline>
	<anchor name="top" x="359" y="730"/>
</glyph>
<glyph name="Ef-cy" format="2">
	<unicode hex="0424"/>
	<advance width="718"/>
	<outline>
		<contour>
			<point x="259" y="0" type="line"/>
			<point x="455" y="0" type="line"/>
			<point x="456" y="10" type="line"/>
			<point x="382" y="21" type="line"/>
			<point x="387" y="164" type="line"/>
			<point x="409" y="159"/>
			<point x="436" y="155"/>
			<point x="466" y="155" type="curve" smooth="yes"/>
			<point x="593" y="155"/>
			<point x="688" y="232"/>
			<point x="688" y="403" type="curve" smooth="yes"/>
			<point x="688" y="529"/>
			<point x="604" y="620"/>
			<point x="480" y="620" type="curve" smooth="yes"/>
			<point x="459" y="620"/>
			<point x="426" y="616"/>
			<point x="404" y="610" type="curve"/>
			<point x="408" y="723" type="line"/>
			<point x="482" y="734" type="line"/>
			<point x="483" y="744" type="line"/>
			<point x="287" y="744" type="line"/>
			<point x="286" y="734" type="line"/>
			<point x="360" y="723" type="line"/>
			<point x="356" y="611" type="line"/>
			<point x="334" y="615"/>
			<point x="304" y="620"/>
			<point x="276" y="620" type="curve" smooth="yes"/>
			<point x="159" y="620"/>
			<point x="55" y="543"/>
			<point x="55" y="381" type="curve" smooth="yes"/>
			<point x="55" y="246"/>
			<point x="139" y="155"/>
			<point x="269" y="155" type="curve" smooth="yes"/>
			<point x="292" y="155"/>
			<point x="319" y="159"/>
			<point x="339" y="163" type="curve"/>
			<point x="334" y="21" type="line"/>
			<point x="260" y="10" type="line"/>
		</contour>
		<contour>
			<point x="274" y="173" type="curve" smooth="yes"/>
			<point x="175" y="173"/>
			<point x="106" y="233"/>
			<point x="106" y="382" type="curve" smooth="yes"/>
			<point x="106" y="512"/>
			<point x="168" y="602"/>
			<point x="286" y="602" type="curve" smooth="yes"/>
			<point x="312" y="602"/>
			<point x="338" y="597"/>
			<point x="356" y="593" type="curve"/>
			<point x="340" y="180" type="line"/>
			<point x="320" y="176"/>
			<point x="293" y="173"/>
		</contour>
		<contour>
			<point x="388" y="180" type="curve"/>
			<point x="404" y="593" type="line"/>
			<point x="423" y="598"/>
			<point x="453" y="602"/>
			<point x="469" y="602" type="curve" smooth="yes"/>
			<point x="572" y="602"/>
			<point x="638" y="538"/>
			<point x="638" y="390" type="curve" smooth="yes"/>
			<point x="638" y="275"/>
			<point x="584" y="173"/>
			<point x="455" y="173" type="curve" smooth="yes"/>
			<point x="433" y="173"/>
			<point x="405" y="176"/>
		</contour>
	</outline>
	<guideline x="356" y="593" angle="0"/>
</glyph>
<glyph name="Tse-cy" format="2">
	<unicode hex="0426"/>
	<advance width="722"/>
	<outline>
		<contour>
			<point x="185" y="18" type="line"/>
			<point x="213" y="707" type="line"/>
			<point x="298" y="719" type="line"/>
			<point x="298" y="730" type="line"/>
			<point x="80" y="730" type="line"/>
			<point x="79" y="718" type="line"/>
			<point x="164" y="707" type="line"/>
			<point x="137" y="23" type="line"/>
			<point x="52" y="10" type="line"/>
			<point x="51" y="0" type="line"/>
			<point x="564" y="0" type="line" smooth="yes"/>
			<point x="643" y="0"/>
			<point x="653" y="-17"/>
			<point x="644" y="-166" type="curve"/>
			<point x="657" y="-167" type="line"/>
			<point x="684" y="18" type="line"/>
			<point x="576" y="18" type="line"/>
			<point x="606" y="707" type="line"/>
			<point x="691" y="720" type="line"/>
			<point x="691" y="730" type="line"/>
			<point x="473" y="730" type="line"/>
			<point x="472" y="720" type="line"/>
			<point x="557" y="707" type="line"/>
			<point x="528" y="18" type="line"/>
		</contour>
	</outline>
</glyph>
<glyph name="Shcha-cy" format="2">
	<unicode hex="0429"/>
	<advance width="1051"/>
	<outline>
		<contour>
			<point x="186" y="18" type="line"/>
			<point x="213" y="707" type="line"/>
			<point x="298" y="719" type="line"/>
			<point x="298" y="730" type="line"/>
			<point x="80" y="730" type="line"/>
			<point x="79" y="718" type="line"/>
			<point x="164" y="707" type="line"/>
			<point x="137" y="23" type="line"/>
			<point x="52" y="10" type="line"/>
			<point x="51" y="0" type="line"/>
			<point x="893" y="0" type="line" smooth="yes"/>
			<point x="958" y="0"/>
			<point x="980" y="-12"/>
			<point x="976" y="-98" type="curve" smooth="yes"/>
			<point x="973" y="-165" type="line"/>
			<point x="986" y="-167" type="line"/>
			<point x="1013" y="18" type="line"/>
			<point x="905" y="18" type="line"/>
			<point x="934" y="707" type="line"/>
			<point x="1019" y="720" type="line"/>
			<point x="1019" y="730" type="line"/>
			<point x="801" y="730" type="line"/>
			<point x="800" y="720" type="line"/>
			<point x="885" y="707" type="line"/>
			<point x="857" y="18" type="line"/>
			<point x="546" y="18" type="line"/>
			<point x="574" y="707" type="line"/>
			<point x="659" y="720" type="line"/>
			<point x="659" y="730" type="line"/>
			<point x="441" y="730" type="line"/>
			<point x="440" y="720" type="line"/>
			<point x="525" y="707" type="line"/>
			<point x="497" y="18" type="line"/>
		</contour>
	</outline>
	<guideline x="1064" y="-166" angle="0"/>
</glyph>
<glyph name="Yeru-cy" format="2">
	<unicode hex="042B"/>
	<advance width="829"/>
	<outline>
		<contour>
			<point x="164" y="707" type="line"/>
			<point x="137" y="23" type="line"/>
			<point x="52" y="10" type="line"/>
			<point x="51" y="0" type="line"/>
			<point x="268" y="0" type="line" smooth="yes"/>
			<point x="424" y="0"/>
			<point x="532" y="86"/>
			<point x="532" y="224" type="curve" smooth="yes"/>
			<point x="532" y="359"/>
			<point x="427" y="405"/>
			<point x="318" y="405" type="curve" smooth="yes"/>
			<point x="288" y="405"/>
			<point x="255" y="401"/>
			<point x="230" y="396" type="curve"/>
			<point x="228" y="378" type="line"/>
			<point x="258" y="384"/>
			<point x="286" y="387"/>
			<point x="320" y="387" type="curve" smooth="yes"/>
			<point x="411" y="387"/>
			<point x="481" y="344"/>
			<point x="481" y="226" type="curve" smooth="yes"/>
			<point x="481" y="71"/>
			<point x="384" y="18"/>
			<point x="256" y="18" type="curve" smooth="yes"/>
			<point x="185" y="18" type="line"/>
			<point x="213" y="707" type="line"/>
			<point x="298" y="719" type="line"/>
			<point x="298" y="730" type="line"/>
			<point x="80" y="730" type="line"/>
			<point x="79" y="718" type="line"/>
		</contour>
		<contour>
			<point x="677" y="707" type="line"/>
			<point x="648" y="23" type="line"/>
			<point x="563" y="10" type="line"/>
			<point x="562" y="0" type="line"/>
			<point x="781" y="0" type="line"/>
			<point x="782" y="10" type="line"/>
			<point x="697" y="22" type="line"/>
			<point x="726" y="707" type="line"/>
			<point x="811" y="720" type="line"/>
			<point x="811" y="730" type="line"/>
			<point x="593" y="730" type="line"/>
			<point x="592" y="720" type="line"/>
		</contour>
	</outline>
	<anchor name="top" x="456" y="730"/>
</glyph>
<glyph name="Ereversed-cy" format="2">
	<unicode hex="042D"/>
	<advance width="601"/>
	<outline>
		<contour>
			<point x="504" y="376" type="curve"/>
			<point x="161" y="376" type="line"/>
			<point x="160" y="358" type="line"/>
			<point x="504" y="358" type="line"/>
			<point x="496" y="120"/>
			<point x="401" y="5"/>
			<point x="259" y="5" type="curve" smooth="yes"/>
			<point x="169" y="5"/>
			<point x="100" y="40"/>
			<point x="133" y="115" type="curve" smooth="yes"/>
			<point x="145" y="142" type="line"/>
			<point x="134" y="152"/>
			<point x="122" y="161"/>
			<point x="102" y="161" type="curve" smooth="yes"/>
			<point x="81" y="161"/>
			<point x="63" y="142"/>
			<point x="63" y="112" type="curve" smooth="yes"/>
			<point x="63" y="32"/>
			<point x="154" y="-14"/>
			<point x="258" y="-14" type="curve" smooth="yes"/>
			<point x="437" y="-14"/>
			<point x="557" y="134"/>
			<point x="557" y="388" type="curve" smooth="yes"/>
			<point x="557" y="614"/>
			<point x="455" y="744"/>
			<point x="307" y="744" type="curve" smooth="yes"/>
			<point x="207" y="744"/>
			<point x="133" y="688"/>
			<point x="87" y="605" type="curve"/>
			<point x="97" y="598" type="line"/>
			<point x="143" y="670"/>
			<point x="203" y="716"/>
			<point x="289" y="716" type="curve" smooth="yes"/>
			<point x="419" y="716"/>
			<point x="504" y="599"/>
		</contour>
	</outline>
	<anchor name="top" x="294" y="730"/>
</glyph>
<glyph name="Ia-cy" format="2">
	<unicode hex="042F"/>
	<advance width="658"/>
	<outline>
		<contour>
			<point x="506" y="711" type="line"/>
			<point x="479" y="23" type="line"/>
			<point x="394" y="10" type="line"/>
			<point x="393" y="0" type="line"/>
			<point x="610" y="0" type="line"/>
			<point x="611" y="10" type="line"/>
			<point x="528" y="22" type="line"/>
			<point x="555" y="707" type="line"/>
			<point x="640" y="719" type="line"/>
			<point x="640" y="730" type="line"/>
			<point x="427" y="730" type="line" smooth="yes"/>
			<point x="271" y="730"/>
			<point x="180" y="657"/>
			<point x="180" y="548" type="curve" smooth="yes"/>
			<point x="180" y="430"/>
			<point x="283" y="355"/>
			<point x="408" y="346" type="curve"/>
			<point x="408" y="344" type="line"/>
			<point x="322" y="320"/>
			<point x="279" y="293"/>
			<point x="215" y="173" type="curve" smooth="yes"/>
			<point x="136" y="25"/>
			<point x="114" y="6"/>
			<point x="74" y="6" type="curve" smooth="yes"/>
			<point x="55" y="6"/>
			<point x="40" y="13"/>
			<point x="23" y="28" type="curve"/>
			<point x="17" y="21" type="line"/>
			<point x="38" y="-2"/>
			<point x="65" y="-14"/>
			<point x="100" y="-14" type="curve" smooth="yes"/>
			<point x="155" y="-14"/>
			<point x="197" y="22"/>
			<point x="258" y="144" type="curve" smooth="yes"/>
			<point x="300" y="228"/>
			<point x="346" y="319"/>
			<point x="435" y="334" type="curve" smooth="yes"/>
			<point x="470" y="340" type="line"/>
			<point x="470" y="360" type="line"/>
			<point x="463" y="360"/>
			<point x="450" y="360"/>
			<point x="433" y="360" type="curve" smooth="yes"/>
			<point x="307" y="360"/>
			<point x="233" y="440"/>
			<point x="233" y="541" type="curve" smooth="yes"/>
			<point x="233" y="648"/>
			<point x="315" y="711"/>
			<point x="414" y="711" type="curve" smooth="yes"/>
		</contour>
	</outline>
	<anchor name="top" x="439" y="730"/>
</glyph>
<glyph name="ve-cy" format="2">
	<unicode hex="0432"/>
	<advance width="447"/>
	<outline>
		<contour>
			<point x="228" y="-14" type="curve" smooth="yes"/>
			<point x="334" y="-14"/>
			<point x="411" y="73"/>
			<point x="411" y="175" type="curve" smooth="yes"/>
			<point x="411" y="253"/>
			<point x="350" y="281"/>
			<point x="267" y="280" type="curve"/>
			<point x="267" y="282" type="line"/>
			<point x="343" y="299"/>
			<point x="390" y="350"/>
			<point x="390" y="418" type="curve" smooth="yes"/>
			<point x="390" y="487"/>
			<point x="331" y="520"/>
			<point x="264" y="520" type="curve" smooth="yes"/>
			<point x="125" y="520"/>
			<point x="44" y="386"/>
			<point x="44" y="217" type="curve" smooth="yes"/>
			<point x="44" y="54"/>
			<point x="126" y="-14"/>
		</contour>
		<contour>
			<point x="233" y="4" type="curve" smooth="yes"/>
			<point x="151" y="4"/>
			<point x="111" y="73"/>
			<point x="100" y="186" type="curve" smooth="yes"/>
			<point x="98" y="209"/>
			<point x="98" y="222"/>
			<point x="98" y="246" type="curve"/>
			<point x="144" y="257"/>
			<point x="206" y="265"/>
			<point x="244" y="265" type="curve" smooth="yes"/>
			<point x="316" y="265"/>
			<point x="358" y="246"/>
			<point x="358" y="167" type="curve" smooth="yes"/>
			<point x="358" y="77"/>
			<point x="311" y="4"/>
		</contour>
		<contour>
			<point x="98" y="264" type="line"/>
			<point x="104" y="403"/>
			<point x="162" y="504"/>
			<point x="258" y="504" type="curve" smooth="yes"/>
			<point x="307" y="504"/>
			<point x="337" y="473"/>
			<point x="337" y="414" type="curve" smooth="yes"/>
			<point x="337" y="335"/>
			<point x="290" y="297"/>
			<point x="202" y="282" type="curve" smooth="yes"/>
		</contour>
	</outline>
	<guideline x="676" y="4" angle="0"/>
	<guideline x="697" y="505" angle="0"/>
</glyph>
<glyph name="de-cy" format="2">
	<unicode hex="0434"/>
	<advance width="465"/>
	<outline>
		<contour>
			<point x="110" y="722" type="curve"/>
			<point x="118" y="710" type="line"/>
			<point x="159" y="736"/>
			<point x="211" y="758"/>
			<point x="252" y="758" type="curve" smooth="yes"/>
			<point x="313" y="758"/>
			<point x="355" y="729"/>
			<point x="373" y="665" type="curve" smooth="yes"/>
			<point x="384" y="627"/>
			<point x="389" y="565"/>
			<point x="389" y="493" type="curve"/>
			<point x="361" y="509"/>
			<point x="322" y="523"/>
			<point x="276" y="523" type="curve" smooth="yes"/>
			<point x="147" y="523"/>
			<point x="44" y="406"/>
			<point x="44" y="206" type="curve" smooth="yes"/>
			<point x="44" y="90"/>
			<point x="94" y="-14"/>
			<point x="200" y="-14" type="curve" smooth="yes"/>
			<point x="373" y="-14"/>
			<point x="443" y="253"/>
			<point x="443" y="501" type="curve" smooth="yes"/>
			<point x="443" y="707"/>
			<point x="374" y="782"/>
			<point x="269" y="782" type="curve" smooth="yes"/>
			<point x="213" y="782"/>
			<point x="154" y="754"/>
		</contour>
		<contour>
			<point x="206" y="5" type="curve" smooth="yes"/>
			<point x="133" y="5"/>
			<point x="97" y="86"/>
			<point x="97" y="216" type="curve" smooth="yes"/>
			<point x="97" y="408"/>
			<point x="173" y="504"/>
			<point x="273" y="504" type="curve" smooth="yes"/>
			<point x="316" y="504"/>
			<point x="345" y="497"/>
			<point x="389" y="473" type="curve"/>
			<point x="389" y="423"/>
			<point x="385" y="356"/>
			<point x="370" y="258" type="curve" smooth="yes"/>
			<point x="346" y="102"/>
			<point x="276" y="5"/>
		</contour>
	</outline>
	<guideline x="675" y="4" angle="0"/>
</glyph>
<glyph name="ze-cy" format="2">
	<unicode hex="0437"/>
	<advance width="417"/>
	<outline>
		<contour>
			<point x="185" y="-14" type="curve" smooth="yes"/>
			<point x="293" y="-14"/>
			<point x="377" y="62"/>
			<point x="377" y="164" type="curve" smooth="yes"/>
			<point x="377" y="242"/>
			<point x="316" y="281"/>
			<point x="233" y="280" type="curve"/>
			<point x="233" y="282" type="line"/>
			<point x="309" y="299"/>
			<point x="356" y="350"/>
			<point x="356" y="418" type="curve" smooth="yes"/>
			<point x="356" y="487"/>
			<point x="301" y="523"/>
			<point x="234" y="523" type="curve" smooth="yes"/>
			<point x="152" y="523"/>
			<point x="107" y="480"/>
			<point x="69" y="426" type="curve"/>
			<point x="79" y="418" type="line"/>
			<point x="122" y="475"/>
			<point x="164" y="499"/>
			<point x="219" y="499" type="curve" smooth="yes"/>
			<point x="268" y="499"/>
			<point x="303" y="474"/>
			<point x="303" y="412" type="curve" smooth="yes"/>
			<point x="303" y="341"/>
			<point x="257" y="294"/>
			<point x="168" y="283" type="curve" smooth="yes"/>
			<point x="129" y="278" type="line"/>
			<point x="127" y="265" type="line"/>
			<point x="180" y="265" type="line" smooth="yes"/>
			<point x="272" y="265"/>
			<point x="324" y="232"/>
			<point x="324" y="161" type="curve" smooth="yes"/>
			<point x="324" y="63"/>
			<point x="257" y="4"/>
			<point x="189" y="4" type="curve" smooth="yes"/>
			<point x="127" y="4"/>
			<point x="103" y="32"/>
			<point x="109" y="69" type="curve" smooth="yes"/>
			<point x="115" y="106" type="line"/>
			<point x="104" y="114"/>
			<point x="93" y="118"/>
			<point x="81" y="118" type="curve" smooth="yes"/>
			<point x="58" y="118"/>
			<point x="42" y="103"/>
			<point x="42" y="74" type="curve" smooth="yes"/>
			<point x="42" y="33"/>
			<point x="91" y="-14"/>
		</contour>
	</outline>
</glyph>
<glyph name="el-cy" format="2">
	<unicode hex="043B"/>
	<advance width="502"/>
	<outline>
		<contour>
			<point x="96" y="466" type="curve"/>
			<point x="100" y="454" type="line"/>
			<point x="119" y="463"/>
			<point x="167" y="480"/>
			<point x="196" y="482" type="curve"/>
			<point x="184" y="373"/>
			<point x="161" y="231"/>
			<point x="138" y="140" type="curve" smooth="yes"/>
			<point x="124" y="85"/>
			<point x="111" y="54"/>
			<point x="91" y="32" type="curve"/>
			<point x="52" y="78" type="line"/>
			<point x="32" y="75"/>
			<point x="12" y="56"/>
			<point x="12" y="31" type="curve" smooth="yes"/>
			<point x="12" y="4"/>
			<point x="32" y="-14"/>
			<point x="56" y="-14" type="curve" smooth="yes"/>
			<point x="94" y="-14"/>
			<point x="131" y="28"/>
			<point x="157" y="135" type="curve" smooth="yes"/>
			<point x="179" y="225"/>
			<point x="204" y="381"/>
			<point x="215" y="484" type="curve"/>
			<point x="258" y="487"/>
			<point x="313" y="487"/>
			<point x="360" y="473" type="curve"/>
			<point x="335" y="63" type="line" smooth="yes"/>
			<point x="332" y="9"/>
			<point x="352" y="-14"/>
			<point x="392" y="-14" type="curve" smooth="yes"/>
			<point x="429" y="-14"/>
			<point x="462" y="4"/>
			<point x="484" y="22" type="curve"/>
			<point x="478" y="31" type="line"/>
			<point x="456" y="18"/>
			<point x="435" y="12"/>
			<point x="412" y="12" type="curve" smooth="yes"/>
			<point x="389" y="12"/>
			<point x="381" y="28"/>
			<point x="383" y="58" type="curve" smooth="yes"/>
			<point x="407" y="482" type="line"/>
			<point x="383" y="505"/>
			<point x="352" y="514"/>
			<point x="299" y="514" type="curve" smooth="yes"/>
			<point x="221" y="514"/>
			<point x="153" y="496"/>
		</contour>
	</outline>
</glyph>
<glyph name="ef-cy" format="2">
	<unicode hex="0444"/>
	<advance width="762"/>
	<outline>
		<contour>
			<point x="398" y="324" type="line"/>
			<point x="421" y="759" type="line"/>
			<point x="413" y="767" type="line"/>
			<point x="290" y="767" type="line"/>
			<point x="289" y="760" type="line"/>
			<point x="373" y="742" type="line"/>
			<point x="365" y="499" type="line"/>
			<point x="337" y="514"/>
			<point x="311" y="523"/>
			<point x="271" y="523" type="curve" smooth="yes"/>
			<point x="139" y="523"/>
			<point x="43" y="386"/>
			<point x="43" y="196" type="curve" smooth="yes"/>
			<point x="43" y="80"/>
			<point x="89" y="-14"/>
			<point x="184" y="-14" type="curve" smooth="yes"/>
			<point x="260" y="-14"/>
			<point x="314" y="43"/>
			<point x="354" y="158" type="curve"/>
			<point x="358" y="158" type="line"/>
			<point x="337" y="-220" type="line"/>
			<point x="345" y="-228" type="line"/>
			<point x="467" y="-228" type="line"/>
			<point x="468" y="-221" type="line"/>
			<point x="384" y="-203" type="line"/>
			<point x="394" y="16" type="line"/>
			<point x="421" y="-2"/>
			<point x="462" y="-14"/>
			<point x="494" y="-14" type="curve" smooth="yes"/>
			<point x="623" y="-14"/>
			<point x="719" y="121"/>
			<point x="719" y="313" type="curve" smooth="yes"/>
			<point x="719" y="429"/>
			<point x="675" y="523"/>
			<point x="578" y="523" type="curve" smooth="yes"/>
			<point x="494" y="523"/>
			<point x="440" y="449"/>
			<point x="402" y="324" type="curve"/>
		</contour>
		<contour>
			<point x="198" y="24" type="curve" smooth="yes"/>
			<point x="132" y="24"/>
			<point x="96" y="83"/>
			<point x="96" y="206" type="curve" smooth="yes"/>
			<point x="96" y="365"/>
			<point x="157" y="504"/>
			<point x="268" y="504" type="curve" smooth="yes"/>
			<point x="304" y="504"/>
			<point x="329" y="498"/>
			<point x="364" y="478" type="curve"/>
			<point x="354" y="212" type="line"/>
			<point x="314" y="81"/>
			<point x="259" y="24"/>
		</contour>
		<contour>
			<point x="567" y="485" type="curve" smooth="yes"/>
			<point x="633" y="485"/>
			<point x="666" y="415"/>
			<point x="666" y="305" type="curve" smooth="yes"/>
			<point x="666" y="123"/>
			<point x="597" y="5"/>
			<point x="495" y="5" type="curve" smooth="yes"/>
			<point x="459" y="5"/>
			<point x="428" y="13"/>
			<point x="395" y="36" type="curve"/>
			<point x="409" y="279" type="line"/>
			<point x="448" y="415"/>
			<point x="503" y="485"/>
		</contour>
	</outline>
	<guideline x="1073" y="485" angle="0"/>
	<guideline x="-215" y="24" angle="0"/>
</glyph>
<glyph name="tse-cy" format="2">
	<unicode hex="0446"/>
	<advance width="562"/>
	<outline>
		<contour>
			<point x="24" y="487" type="curve"/>
			<point x="30" y="478" type="line"/>
			<point x="52" y="491"/>
			<point x="73" y="497"/>
			<point x="96" y="497" type="curve" smooth="yes"/>
			<point x="119" y="497"/>
			<point x="126" y="483"/>
			<point x="124" y="453" type="curve" smooth="yes"/>
			<point x="99" y="132" type="line" smooth="yes"/>
			<point x="92" y="47"/>
			<point x="112" y="-14"/>
			<point x="194" y="-14" type="curve" smooth="yes"/>
			<point x="260" y="-14"/>
			<point x="296" y="27"/>
			<point x="333" y="143" type="curve" smooth="yes"/>
			<point x="407" y="376" type="line"/>
			<point x="409" y="376" type="line"/>
			<point x="388" y="79" type="line" smooth="yes"/>
			<point x="384" y="16"/>
			<point x="401" y="-14"/>
			<point x="447" y="-14" type="curve" smooth="yes"/>
			<point x="474" y="-14"/>
			<point x="495" y="0"/>
			<point x="510" y="17" type="curve"/>
			<point x="511" y="17" type="line"/>
			<point x="499" y="-49"/>
			<point x="478" y="-115"/>
			<point x="431" y="-189" type="curve"/>
			<point x="437" y="-194" type="line"/>
			<point x="504" y="-110"/>
			<point x="531" y="-47"/>
			<point x="555" y="57" type="curve"/>
			<point x="527" y="65" type="line"/>
			<point x="508" y="21"/>
			<point x="481" y="8"/>
			<point x="465" y="8" type="curve" smooth="yes"/>
			<point x="445" y="8"/>
			<point x="436" y="19"/>
			<point x="437" y="51" type="curve" smooth="yes"/>
			<point x="455" y="509" type="line"/>
			<point x="430" y="509" type="line"/>
			<point x="316" y="151" type="line" smooth="yes"/>
			<point x="280" y="37"/>
			<point x="246" y="20"/>
			<point x="205" y="20" type="curve" smooth="yes"/>
			<point x="162" y="20"/>
			<point x="141" y="48"/>
			<point x="147" y="126" type="curve" smooth="yes"/>
			<point x="172" y="446" type="line" smooth="yes"/>
			<point x="176" y="500"/>
			<point x="156" y="523"/>
			<point x="116" y="523" type="curve" smooth="yes"/>
			<point x="79" y="523"/>
			<point x="46" y="505"/>
		</contour>
	</outline>
</glyph>
<glyph name="yeru-cy" format="2">
	<unicode hex="044B"/>
	<advance width="638"/>
	<outline>
		<contour>
			<point x="213" y="-14" type="curve" smooth="yes"/>
			<point x="333" y="-14"/>
			<point x="401" y="94"/>
			<point x="401" y="190" type="curve" smooth="yes"/>
			<point x="401" y="261"/>
			<point x="355" y="304"/>
			<point x="279" y="304" type="curve" smooth="yes"/>
			<point x="226" y="304"/>
			<point x="186" y="292"/>
			<point x="152" y="277" type="curve"/>
			<point x="160" y="333"/>
			<point x="169" y="381"/>
			<point x="176" y="432" type="curve" smooth="yes"/>
			<point x="185" y="493"/>
			<point x="166" y="523"/>
			<point x="122" y="523" type="curve" smooth="yes"/>
			<point x="86" y="523"/>
			<point x="55" y="508"/>
			<point x="28" y="491" type="curve"/>
			<point x="33" y="481" type="line"/>
			<point x="62" y="496"/>
			<point x="83" y="501"/>
			<point x="99" y="501" type="curve" smooth="yes"/>
			<point x="119" y="501"/>
			<point x="132" y="490"/>
			<point x="128" y="458" type="curve" smooth="yes"/>
			<point x="112" y="344"/>
			<point x="89" y="180"/>
			<point x="89" y="128" type="curve" smooth="yes"/>
			<point x="89" y="37"/>
			<point x="140" y="-14"/>
		</contour>
		<contour>
			<point x="222" y="4" type="curve" smooth="yes"/>
			<point x="171" y="4"/>
			<point x="138" y="37"/>
			<point x="138" y="105" type="curve" smooth="yes"/>
			<point x="138" y="160"/>
			<point x="143" y="208"/>
			<point x="150" y="258" type="curve"/>
			<point x="184" y="274"/>
			<point x="219" y="285"/>
			<point x="263" y="285" type="curve" smooth="yes"/>
			<point x="321" y="285"/>
			<point x="349" y="250"/>
			<point x="349" y="187" type="curve" smooth="yes"/>
			<point x="349" y="75"/>
			<point x="300" y="4"/>
		</contour>
		<contour>
			<point x="528" y="-14" type="curve" smooth="yes"/>
			<point x="565" y="-14"/>
			<point x="598" y="4"/>
			<point x="620" y="22" type="curve"/>
			<point x="614" y="31" type="line"/>
			<point x="592" y="18"/>
			<point x="571" y="12"/>
			<point x="548" y="12" type="curve" smooth="yes"/>
			<point x="525" y="12"/>
			<point x="517" y="26"/>
			<point x="519" y="56" type="curve" smooth="yes"/>
			<point x="551" y="509" type="line"/>
			<point x="503" y="509" type="line"/>
			<point x="471" y="63" type="line" smooth="yes"/>
			<point x="467" y="9"/>
			<point x="488" y="-14"/>
		</contour>
	</outline>
	<anchor name="top" x="334" y="550"/>
</glyph>
<glyph name="softsign-cy" format="2">
	<unicode hex="044C"/>
	<advance width="431"/>
	<outline>
		<contour>
			<point x="152" y="277" type="curve"/>
			<point x="160" y="333"/>
			<point x="169" y="381"/>
			<point x="176" y="430" type="curve" smooth="yes"/>
			<point x="185" y="493"/>
			<point x="168" y="523"/>
			<point x="122" y="523" type="curve" smooth="yes"/>
			<point x="86" y="523"/>
			<point x="55" y="508"/>
			<point x="28" y="491" type="curve"/>
			<point x="33" y="481" type="line"/>
			<point x="62" y="496"/>
			<point x="83" y="501"/>
			<point x="99" y="501" type="curve" smooth="yes"/>
			<point x="119" y="501"/>
			<point x="131" y="490"/>
			<point x="127" y="458" type="curve" smooth="yes"/>
			<point x="111" y="344"/>
			<point x="89" y="180"/>
			<point x="89" y="128" type="curve" smooth="yes"/>
			<point x="89" y="37"/>
			<point x="140" y="-14"/>
			<point x="219" y="-14" type="curve" smooth="yes"/>
			<point x="338" y="-14"/>
			<point x="409" y="89"/>
			<point x="409" y="190" type="curve" smooth="yes"/>
			<point x="409" y="261"/>
			<point x="361" y="304"/>
			<point x="287" y="304" type="curve" smooth="yes"/>
			<point x="234" y="304"/>
			<point x="186" y="292"/>
		</contour>
		<contour>
			<point x="150" y="258" type="curve"/>
			<point x="184" y="274"/>
			<point x="230" y="285"/>
			<point x="270" y="285" type="curve" smooth="yes"/>
			<point x="329" y="285"/>
			<point x="357" y="250"/>
			<point x="357" y="187" type="curve" smooth="yes"/>
			<point x="357" y="71"/>
			<point x="300" y="4"/>
			<point x="228" y="4" type="curve" smooth="yes"/>
			<point x="171" y="4"/>
			<point x="138" y="37"/>
			<point x="138" y="105" type="curve" smooth="yes"/>
			<point x="138" y="160"/>
			<point x="143" y="208"/>
		</contour>
	</outline>
	<guideline x="632" y="4" angle="0"/>
</glyph>
<glyph name="iu-cy" format="2">
	<unicode hex="044E"/>
	<advance width="720"/>
	<outline>
		<contour>
			<point x="470" y="-14" type="curve" smooth="yes"/>
			<point x="613" y="-14"/>
			<point x="676" y="126"/>
			<point x="676" y="279" type="curve" smooth="yes"/>
			<point x="676" y="431"/>
			<point x="597" y="523"/>
			<point x="500" y="523" type="curve" smooth="yes"/>
			<point x="370" y="523"/>
			<point x="309" y="417"/>
			<point x="298" y="280" type="curve"/>
			<point x="166" y="280" type="line"/>
			<point x="169" y="334"/>
			<point x="173" y="388"/>
			<point x="176" y="442" type="curve" smooth="yes"/>
			<point x="180" y="498"/>
			<point x="166" y="523"/>
			<point x="122" y="523" type="curve" smooth="yes"/>
			<point x="86" y="523"/>
			<point x="55" y="508"/>
			<point x="28" y="491" type="curve"/>
			<point x="33" y="481" type="line"/>
			<point x="62" y="496"/>
			<point x="83" y="501"/>
			<point x="99" y="501" type="curve" smooth="yes"/>
			<point x="119" y="501"/>
			<point x="129" y="490"/>
			<point x="127" y="458" type="curve" smooth="yes"/>
			<point x="99" y="0" type="line"/>
			<point x="147" y="0" type="line"/>
			<point x="164" y="261" type="line"/>
			<point x="297" y="261" type="line"/>
			<point x="296" y="85"/>
			<point x="360" y="-14"/>
		</contour>
		<contour>
			<point x="480" y="4" type="curve" smooth="yes"/>
			<point x="397" y="4"/>
			<point x="349" y="82"/>
			<point x="349" y="232" type="curve" smooth="yes"/>
			<point x="349" y="391"/>
			<point x="389" y="505"/>
			<point x="495" y="505" type="curve" smooth="yes"/>
			<point x="584" y="505"/>
			<point x="623" y="427"/>
			<point x="623" y="278" type="curve" smooth="yes"/>
			<point x="623" y="117"/>
			<point x="579" y="4"/>
		</contour>
	</outline>
	<anchor name="top" x="495" y="550"/>
</glyph>
<glyph name="dje-cy" format="2">
	<unicode hex="0452"/>
	<advance width="532"/>
	<outline>
		<contour>
			<point x="123" y="603" type="line"/>
			<point x="95" y="0" type="line"/>
			<point x="120" y="0" type="line"/>
			<point x="234" y="358" type="line" smooth="yes"/>
			<point x="270" y="472"/>
			<point x="304" y="488"/>
			<point x="345" y="488" type="curve" smooth="yes"/>
			<point x="388" y="488"/>
			<point x="409" y="460"/>
			<point x="403" y="382" type="curve" smooth="yes"/>
			<point x="379" y="63" type="line" smooth="yes"/>
			<point x="375" y="13"/>
			<point x="368" y="-109"/>
			<point x="365" y="-141" type="curve" smooth="yes"/>
			<point x="360" y="-190"/>
			<point x="328" y="-211"/>
			<point x="277" y="-170" type="curve" smooth="yes"/>
			<point x="253" y="-151" type="line"/>
			<point x="241" y="-161"/>
			<point x="235" y="-173"/>
			<point x="235" y="-191" type="curve" smooth="yes"/>
			<point x="235" y="-208"/>
			<point x="248" y="-229"/>
			<point x="284" y="-229" type="curve" smooth="yes"/>
			<point x="313" y="-229"/>
			<point x="345" y="-217"/>
			<point x="369" y="-184" type="curve" smooth="yes"/>
			<point x="403" y="-138"/>
			<point x="420" y="-23"/>
			<point x="426" y="56" type="curve" smooth="yes"/>
			<point x="434" y="163"/>
			<point x="443" y="270"/>
			<point x="451" y="377" type="curve" smooth="yes"/>
			<point x="458" y="462"/>
			<point x="438" y="522"/>
			<point x="356" y="522" type="curve" smooth="yes"/>
			<point x="290" y="522"/>
			<point x="254" y="482"/>
			<point x="217" y="366" type="curve" smooth="yes"/>
			<point x="143" y="133" type="line"/>
			<point x="141" y="133" type="line"/>
			<point x="165" y="430" type="line"/>
			<point x="171" y="603" type="line"/>
			<point x="350" y="603" type="line"/>
			<point x="352" y="622" type="line"/>
			<point x="172" y="622" type="line"/>
			<point x="177" y="759" type="line"/>
			<point x="169" y="767" type="line"/>
			<point x="46" y="767" type="line"/>
			<point x="45" y="760" type="line"/>
			<point x="129" y="742" type="line"/>
			<point x="124" y="622" type="line"/>
			<point x="34" y="622" type="line"/>
			<point x="32" y="603" type="line"/>
		</contour>
	</outline>
</glyph>
<glyph name="nje-cy" format="2">
	<unicode hex="045A"/>
	<advance width="718"/>
	<outline>
		<contour>
			<point x="454" y="509" type="line"/>
			<point x="406" y="509" type="line"/>
			<point x="390" y="280" type="line"/>
			<point x="166" y="280" type="line"/>
			<point x="169" y="334"/>
			<point x="173" y="388"/>
			<point x="176" y="442" type="curve" smooth="yes"/>
			<point x="180" y="498"/>
			<point x="166" y="523"/>
			<point x="122" y="523" type="curve" smooth="yes"/>
			<point x="86" y="523"/>
			<point x="55" y="508"/>
			<point x="28" y="491" type="curve"/>
			<point x="33" y="481" type="line"/>
			<point x="62" y="496"/>
			<point x="83" y="501"/>
			<point x="99" y="501" type="curve" smooth="yes"/>
			<point x="119" y="501"/>
			<point x="129" y="490"/>
			<point x="127" y="458" type="curve" smooth="yes"/>
			<point x="99" y="0" type="line"/>
			<point x="147" y="0" type="line"/>
			<point x="164" y="261" type="line"/>
			<point x="388" y="261" type="line"/>
			<point x="383" y="203"/>
			<point x="380" y="153"/>
			<point x="380" y="128" type="curve" smooth="yes"/>
			<point x="380" y="37"/>
			<point x="427" y="-14"/>
			<point x="506" y="-14" type="curve" smooth="yes"/>
			<point x="625" y="-14"/>
			<point x="696" y="89"/>
			<point x="696" y="190" type="curve" smooth="yes"/>
			<point x="696" y="261"/>
			<point x="649" y="305"/>
			<point x="571" y="305" type="curve" smooth="yes"/>
			<point x="517" y="305"/>
			<point x="474" y="292"/>
			<point x="437" y="280" type="curve"/>
		</contour>
		<contour>
			<point x="435" y="259" type="curve"/>
			<point x="469" y="274"/>
			<point x="516" y="285"/>
			<point x="557" y="285" type="curve" smooth="yes"/>
			<point x="616" y="285"/>
			<point x="644" y="250"/>
			<point x="644" y="187" type="curve" smooth="yes"/>
			<point x="644" y="71"/>
			<point x="587" y="4"/>
			<point x="515" y="4" type="curve" smooth="yes"/>
			<point x="458" y="4"/>
			<point x="428" y="37"/>
			<point x="428" y="105" type="curve" smooth="yes"/>
			<point x="428" y="155"/>
			<point x="431" y="209"/>
		</contour>
	</outline>
</glyph>
<glyph name="tshe-cy" format="2">
	<unicode hex="045B"/>
	<advance width="544"/>
	<outline>
		<contour>
			<point x="347" y="603" type="line"/>
			<point x="349" y="622" type="line"/>
			<point x="169" y="622" type="line"/>
			<point x="174" y="759" type="line"/>
			<point x="166" y="767" type="line"/>
			<point x="43" y="767" type="line"/>
			<point x="42" y="760" type="line"/>
			<point x="126" y="742" type="line"/>
			<point x="121" y="622" type="line"/>
			<point x="31" y="622" type="line"/>
			<point x="29" y="603" type="line"/>
			<point x="120" y="603" type="line"/>
			<point x="92" y="0" type="line"/>
			<point x="117" y="0" type="line"/>
			<point x="231" y="358" type="line" smooth="yes"/>
			<point x="267" y="472"/>
			<point x="301" y="488"/>
			<point x="342" y="488" type="curve" smooth="yes"/>
			<point x="385" y="488"/>
			<point x="406" y="460"/>
			<point x="400" y="382" type="curve" smooth="yes"/>
			<point x="375" y="63" type="line" smooth="yes"/>
			<point x="371" y="9"/>
			<point x="391" y="-14"/>
			<point x="431" y="-14" type="curve" smooth="yes"/>
			<point x="468" y="-14"/>
			<point x="501" y="4"/>
			<point x="523" y="22" type="curve"/>
			<point x="517" y="31" type="line"/>
			<point x="495" y="18"/>
			<point x="474" y="12"/>
			<point x="451" y="12" type="curve" smooth="yes"/>
			<point x="428" y="12"/>
			<point x="421" y="26"/>
			<point x="423" y="56" type="curve" smooth="yes"/>
			<point x="448" y="377" type="line" smooth="yes"/>
			<point x="455" y="462"/>
			<point x="435" y="522"/>
			<point x="353" y="522" type="curve" smooth="yes"/>
			<point x="287" y="522"/>
			<point x="251" y="482"/>
			<point x="214" y="366" type="curve" smooth="yes"/>
			<point x="140" y="133" type="line"/>
			<point x="138" y="133" type="line"/>
			<point x="162" y="430" type="line"/>
			<point x="168" y="603" type="line"/>
		</contour>
	</outline>
</glyph>
<glyph name="yat-cy" format="2">
	<unicode hex="0463"/>
	<advance width="731"/>
	<outline>
		<contour>
			<point x="452" y="277" type="curve"/>
			<point x="457" y="310"/>
			<point x="462" y="347"/>
			<point x="467" y="386" type="curve" smooth="yes"/>
			<point x="478" y="471"/>
			<point x="448" y="522"/>
			<point x="370" y="522" type="curve" smooth="yes"/>
			<point x="304" y="522"/>
			<point x="268" y="482"/>
			<point x="231" y="366" type="curve" smooth="yes"/>
			<point x="157" y="133" type="line"/>
			<point x="155" y="133" type="line"/>
			<point x="176" y="430" type="line" smooth="yes"/>
			<point x="180" y="493"/>
			<point x="168" y="523"/>
			<point x="122" y="523" type="curve" smooth="yes"/>
			<point x="86" y="523"/>
			<point x="55" y="508"/>
			<point x="28" y="491" type="curve"/>
			<point x="33" y="481" type="line"/>
			<point x="62" y="496"/>
			<point x="83" y="501"/>
			<point x="99" y="501" type="curve" smooth="yes"/>
			<point x="119" y="501"/>
			<point x="128" y="490"/>
			<point x="127" y="458" type="curve" smooth="yes"/>
			<point x="109" y="0" type="line"/>
			<point x="134" y="0" type="line"/>
			<point x="248" y="358" type="line" smooth="yes"/>
			<point x="284" y="472"/>
			<point x="318" y="488"/>
			<point x="359" y="488" type="curve" smooth="yes"/>
			<point x="401" y="488"/>
			<point x="427" y="461"/>
			<point x="417" y="386" type="curve" smooth="yes"/>
			<point x="403" y="284"/>
			<point x="389" y="170"/>
			<point x="389" y="128" type="curve" smooth="yes"/>
			<point x="389" y="37"/>
			<point x="440" y="-14"/>
			<point x="519" y="-14" type="curve" smooth="yes"/>
			<point x="638" y="-14"/>
			<point x="709" y="89"/>
			<point x="709" y="190" type="curve" smooth="yes"/>
			<point x="709" y="261"/>
			<point x="661" y="304"/>
			<point x="587" y="304" type="curve" smooth="yes"/>
			<point x="534" y="304"/>
			<point x="486" y="292"/>
		</contour>
		<contour>
			<point x="450" y="258" type="curve"/>
			<point x="484" y="274"/>
			<point x="530" y="285"/>
			<point x="570" y="285" type="curve" smooth="yes"/>
			<point x="629" y="285"/>
			<point x="657" y="250"/>
			<point x="657" y="187" type="curve" smooth="yes"/>
			<point x="657" y="71"/>
			<point x="600" y="4"/>
			<point x="528" y="4" type="curve" smooth="yes"/>
			<point x="471" y="4"/>
			<point x="438" y="37"/>
			<point x="438" y="105" type="curve" smooth="yes"/>
			<point x="438" y="160"/>
			<point x="443" y="208"/>
		</contour>
	</outline>
</glyph>
<glyph name="Yusbig-cy" format="2">
	<unicode hex="046A"/>
	<advance width="878"/>
	<outline>
		<contour>
			<point x="429" y="351" type="line"/>
			<point x="418" y="23" type="line"/>
			<point x="330" y="10" type="line"/>
			<point x="329" y="0" type="line"/>
			<point x="549" y="0" type="line"/>
			<point x="550" y="10" type="line"/>
			<point x="467" y="22" type="line"/>
			<point x="478" y="351" type="line"/>
			<point x="487" y="351" type="line" smooth="yes"/>
			<point x="554" y="351"/>
			<point x="598" y="320"/>
			<point x="629" y="241" type="curve" smooth="yes"/>
			<point x="637" y="221"/>
			<point x="644" y="201"/>
			<point x="662" y="144" type="curve" smooth="yes"/>
			<point x="701" y="22"/>
			<point x="746" y="-14"/>
			<point x="806" y="-14" type="curve" smooth="yes"/>
			<point x="839" y="-14"/>
			<point x="867" y="-2"/>
			<point x="890" y="21" type="curve"/>
			<point x="884" y="29" type="line"/>
			<point x="865" y="14"/>
			<point x="848" y="8"/>
			<point x="829" y="8" type="curve" smooth="yes"/>
			<point x="780" y="8"/>
			<point x="749" y="45"/>
			<point x="713" y="146" type="curve" smooth="yes"/>
			<point x="696" y="194"/>
			<point x="692" y="205"/>
			<point x="677" y="242" type="curve" smooth="yes"/>
			<point x="641" y="331"/>
			<point x="571" y="367"/>
			<point x="484" y="367" type="curve"/>
			<point x="728" y="709" type="line"/>
			<point x="801" y="720" type="line"/>
			<point x="803" y="730" type="line"/>
			<point x="136" y="730" type="line"/>
			<point x="135" y="720" type="line"/>
			<point x="214" y="709" type="line"/>
			<point x="422" y="368" type="line"/>
			<point x="296" y="368"/>
			<point x="248" y="303"/>
			<point x="195" y="193" type="curve" smooth="yes"/>
			<point x="115" y="27"/>
			<point x="94" y="8"/>
			<point x="54" y="8" type="curve" smooth="yes"/>
			<point x="35" y="8"/>
			<point x="22" y="15"/>
			<point x="4" y="30" type="curve"/>
			<point x="-3" y="21" type="line"/>
			<point x="19" y="-2"/>
			<point x="45" y="-14"/>
			<point x="80" y="-14" type="curve" smooth="yes"/>
			<point x="135" y="-14"/>
			<point x="172" y="22"/>
			<point x="224" y="144" type="curve" smooth="yes"/>
			<point x="241" y="184"/>
			<point x="256" y="216"/>
			<point x="271" y="244" type="curve" smooth="yes"/>
			<point x="312" y="321"/>
			<point x="358" y="351"/>
			<point x="418" y="351" type="curve" smooth="yes"/>
		</contour>
		<contour>
			<point x="266" y="712" type="line"/>
			<point x="707" y="712" type="line"/>
			<point x="470" y="377" type="line"/>
			<point x="468" y="377" type="line"/>
		</contour>
	</outline>
	<guideline x="429" y="351" angle="0"/>
</glyph>
